SplineFontDB: 1.0
FontName: ArundinaSansMono-BoldOblique
FullName: Arundina Sans Mono Bold Oblique
FamilyName: Arundina Sans Mono
Weight: Bold
Copyright: Copyright (c) 2003 by Bitstream, Inc. All Rights Reserved.\nCopyright (c) 2007 by Software Industry Promotion Agency (Public Organization). All Rights Reserved.
Version: 1.20
ItalicAngle: -12
UnderlinePosition: -213
UnderlineWidth: 141
Ascent: 800
Descent: 200
Order2: 1
XUID: [1021 375 425136265 14147668]
FSType: 4
OS2Version: 2
OS2_WeightWidthSlopeOnly: 0
OS2_UseTypoMetrics: 1
CreationTime: 1050374940
ModificationTime: 1171885185
PfmFamily: 49
TTFWeight: 700
TTFWidth: 5
LineGap: 12
VLineGap: 0
Panose: 2 11 3 0 2 2 2 2 2 4
OS2TypoAscent: 0
OS2TypoAOffset: 1
OS2TypoDescent: -200
OS2TypoDOffset: 1
OS2TypoLinegap: 0
OS2WinAscent: -201
OS2WinAOffset: 1
OS2WinDescent: 47
OS2WinDOffset: 1
HheadAscent: -201
HheadAOffset: 1
HheadDescent: -47
HheadDOffset: 1
OS2SubXSize: 700
OS2SubYSize: 650
OS2SubXOff: 0
OS2SubYOff: 140
OS2SupXSize: 700
OS2SupYSize: 650
OS2SupXOff: 0
OS2SupYOff: 477
OS2StrikeYSize: 50
OS2StrikeYPos: 250
OS2FamilyClass: 1285
OS2Vendor: 'Bits'
ScriptLang: 2
 1 latn 1 dflt 
 0 
ChainSub: coverage 0 0 'liga' 0 0 0 1
 1 1 0
  Coverage: 7 uni0E47
  BCoverage: 12 uni0E2C.alt1
 1
  SeqLookup: 0 'L019'
EndFPST
ChainSub: coverage 0 0 'liga' 0 0 0 1
 1 0 1
  Coverage: 7 uni0E2C
  FCoverage: 39 uni0E34 uni0E35 uni0E36 uni0E37 uni0E47
 1
  SeqLookup: 0 'L019'
EndFPST
ChainSub: coverage 0 0 'liga' 0 0 0 1
 1 0 1
  Coverage: 15 uni0E0E uni0E0F
  FCoverage: 38 uni0E38.alt1 uni0E39.alt1 uni0E3A.alt1
 1
  SeqLookup: 0 'L019'
EndFPST
ChainSub: coverage 0 0 'liga' 0 0 0 1
 1 1 0
  Coverage: 5 a b c
  BCoverage: 23 uni0E1B uni0E1D uni0E1F
 1
  SeqLookup: 0 'L019'
EndFPST
ChainSub: coverage 0 0 'liga' 0 0 0 1
 1 0 1
  Coverage: 5 a b c
  FCoverage: 64 uni0E48.alt1 uni0E49.alt1 uni0E4A.alt1 uni0E4B.alt1 uni0E4C.alt1
 1
  SeqLookup: 0 'L019'
EndFPST
ChainSub: coverage 0 0 'liga' 0 0 0 1
 1 1 0

StartChar: .notdef
Encoding: 65536 -1 0
Width: 364
Flags: W
Fore
31 426 m 1,0,-1
 333 426 l 1,1,-1
 333 -107 l 1,2,-1
 31 -107 l 1,3,-1
 31 426 l 1,0,-1
299 -73 m 1,4,-1
 299 392 l 1,5,-1
 65 392 l 1,6,-1
 65 -73 l 1,7,-1
 299 -73 l 1,4,-1
EndSplineSet
EndChar
StartChar: exclam
Encoding: 33 33 4
Width: 364
Flags: W
Fore
194 83 m 1,0,-1
 178 0 l 1,1,-1
 100 0 l 1,2,-1
 116 83 l 1,3,-1
 194 83 l 1,0,-1
264 440 m 1,4,-1
 227 247 l 1,5,-1
 196 142 l 1,6,-1
 138 142 l 1,7,-1
 148 247 l 1,8,-1
 186 440 l 1,9,-1
 264 440 l 1,4,-1
EndSplineSet
EndChar
StartChar: quotedbl
Encoding: 34 34 5
Width: 364
Flags: W
Fore
295 277 m 1,0,-1
 219 277 l 1,1,-1
 219 440 l 1,2,-1
 295 440 l 1,3,-1
 295 277 l 1,0,-1
144 277 m 1,4,-1
 68 277 l 1,5,-1
 68 440 l 1,6,-1
 144 440 l 1,7,-1
 144 277 l 1,4,-1
EndSplineSet
EndChar
StartChar: numbersign
Encoding: 35 35 6
Width: 364
Flags: W
Fore
162 260 m 1,0,-1
 140 173 l 1,1,-1
 200 173 l 1,2,-1
 222 260 l 1,3,-1
 162 260 l 1,0,-1
178 323 m 1,4,-1
 238 323 l 1,5,-1
 266 434 l 1,6,-1
 331 434 l 1,7,-1
 303 323 l 1,8,-1
 374 323 l 1,9,-1
 358 260 l 1,10,-1
 287 260 l 1,11,-1
 266 173 l 1,12,-1
 337 173 l 1,13,-1
 321 110 l 1,14,-1
 250 110 l 1,15,-1
 222 0 l 1,16,-1
 156 0 l 1,17,-1
 184 110 l 1,18,-1
 124 110 l 1,19,-1
 96 0 l 1,20,-1
 31 0 l 1,21,-1
 59 110 l 1,22,-1
 -12 110 l 1,23,-1
 4 173 l 1,24,-1
 75 173 l 1,25,-1
 96 260 l 1,26,-1
 25 260 l 1,27,-1
 41 323 l 1,28,-1
 112 323 l 1,29,-1
 140 434 l 1,30,-1
 205 434 l 1,31,-1
 178 323 l 1,4,-1
EndSplineSet
EndChar
StartChar: dollar
Encoding: 36 36 7
Width: 364
Flags: W
Fore
173 67 m 1,0,1
 198 70 198 70 212.5 84 c 128,-1,2
 227 98 227 98 227 118 c 0,3,4
 227 147 227 147 191 157 c 1,5,-1
 173 67 l 1,0,1
181 324 m 1,6,7
 160 322 160 322 147.5 308.5 c 128,-1,8
 135 295 135 295 135 275 c 0,9,10
 135 250 135 250 165 242 c 1,11,-1
 181 324 l 1,6,7
101 -89 m 1,12,-1
 118 0 l 1,13,14
 69 1 69 1 12 27 c 1,15,-1
 27 104 l 1,16,17
 53 87 53 87 79 77 c 128,-1,18
 105 67 105 67 131 66 c 1,19,-1
 151 168 l 1,20,21
 59 190 59 190 59 265 c 0,22,23
 59 316 59 316 96 352 c 0,24,25
 135 388 135 388 194 389 c 1,26,-1
 208 459 l 1,27,-1
 250 459 l 1,28,-1
 236 389 l 1,29,30
 257 388 257 388 278 384 c 128,-1,31
 299 380 299 380 322 372 c 1,32,-1
 307 299 l 1,33,34
 290 310 290 310 268.5 316.5 c 128,-1,35
 247 323 247 323 224 325 c 1,36,-1
 205 231 l 1,37,38
 303 205 303 205 303 129 c 0,39,40
 303 75 303 75 264 40 c 0,41,42
 227 5 227 5 160 0 c 1,43,-1
 143 -89 l 1,44,-1
 101 -89 l 1,12,-1
EndSplineSet
EndChar
StartChar: percent
Encoding: 37 37 8
Width: 364
Flags: W
Fore
10 328 m 256,0,1
 10 368 10 368 37 395 c 256,2,3
 64 422 64 422 104 422 c 0,4,5
 143 422 143 422 171 395 c 0,6,7
 198 367 198 367 198 328 c 0,8,9
 198 290 198 290 171 261 c 0,10,11
 143 234 143 234 104 234 c 0,12,13
 64 234 64 234 37 261 c 256,14,15
 10 288 10 288 10 328 c 256,0,1
104 368 m 0,16,17
 86 368 86 368 75 357 c 0,18,19
 63 345 63 345 63 328 c 256,20,21
 63 311 63 311 75 299 c 0,22,23
 86 288 86 288 104 288 c 256,24,25
 122 288 122 288 132 299 c 0,26,27
 144 311 144 311 144 328 c 256,28,29
 144 345 144 345 132 357 c 0,30,31
 121 368 121 368 104 368 c 0,16,17
333 289 m 1,32,-1
 345 260 l 1,33,-1
 36 137 l 1,34,-1
 25 165 l 1,35,-1
 333 289 l 1,32,-1
171 94 m 256,36,37
 171 134 171 134 198 161 c 0,38,39
 228 189 228 189 265 189 c 256,40,41
 302 189 302 189 332 161 c 0,42,43
 360 131 360 131 360 94 c 256,44,45
 360 57 360 57 332 27 c 0,46,47
 304 0 304 0 265 0 c 0,48,49
 227 0 227 0 198 27 c 0,50,51
 171 54 171 54 171 94 c 256,36,37
265 135 m 256,52,53
 248 135 248 135 236 123 c 0,54,55
 225 110 225 110 225 94 c 256,56,57
 225 78 225 78 236 65 c 1,58,59
 249 54 249 54 265 54 c 256,60,61
 281 54 281 54 294 65 c 1,62,63
 306 79 306 79 306 94 c 256,64,65
 306 109 306 109 294 123 c 0,66,67
 282 135 282 135 265 135 c 256,52,53
EndSplineSet
EndChar
StartChar: ampersand
Encoding: 38 38 9
Width: 364
Flags: W
Fore
218 21 m 1,0,1
 167 -9 167 -9 114 -9 c 0,2,3
 58 -9 58 -9 24 23 c 0,4,5
 -10 54 -10 54 -10 106 c 0,6,7
 -10 154 -10 154 19 196 c 128,-1,8
 48 238 48 238 103 269 c 1,9,10
 88 304 88 304 88 330 c 0,11,12
 88 383 88 383 128 416 c 0,13,14
 168 448 168 448 235 448 c 0,15,16
 277 448 277 448 314 436 c 1,17,-1
 300 360 l 1,18,19
 265 382 265 382 227 382 c 0,20,21
 173 382 173 382 173 341 c 0,22,23
 173 321 173 321 196 271 c 2,24,-1
 261 130 l 1,25,26
 286 164 286 164 289 220 c 1,27,-1
 358 220 l 1,28,29
 352 126 352 126 288 73 c 1,30,-1
 322 0 l 1,31,-1
 228 0 l 1,32,-1
 218 21 l 1,33,-1
 218 21 l 1,0,1
129 216 m 1,34,35
 74 184 74 184 74 129 c 0,36,37
 74 102 74 102 93 81 c 0,38,39
 113 61 113 61 140 61 c 256,40,41
 167 61 167 61 193 77 c 1,42,-1
 129 216 l 1,43,-1
 129 216 l 1,34,35
EndSplineSet
EndChar
StartChar: quotesingle
Encoding: 39 39 10
Width: 364
Flags: W
Fore
219 277 m 1,0,-1
 144 277 l 1,1,-1
 144 440 l 1,2,-1
 219 440 l 1,3,-1
 219 277 l 1,0,-1
EndSplineSet
EndChar
StartChar: parenleft
Encoding: 40 40 11
Width: 364
Flags: W
Fore
318 458 m 1,0,1
 181 274 181 274 181 102 c 0,2,3
 181 60 181 60 189 15 c 128,-1,4
 197 -30 197 -30 214 -80 c 1,5,-1
 148 -80 l 1,6,7
 123 -29 123 -29 111.5 19.5 c 128,-1,8
 100 68 100 68 100 116 c 0,9,10
 100 288 100 288 252 458 c 1,11,-1
 318 458 l 1,12,-1
 318 458 l 1,0,1
EndSplineSet
EndChar
StartChar: parenright
Encoding: 41 41 12
Width: 364
Flags: W
Fore
33 -80 m 1,0,1
 171 105 171 105 171 277 c 0,2,3
 171 361 171 361 138 458 c 1,4,-1
 204 458 l 1,5,6
 252 358 252 358 252 263 c 0,7,8
 252 92 252 92 100 -80 c 1,9,-1
 33 -80 l 1,10,-1
 33 -80 l 1,0,1
EndSplineSet
EndChar
StartChar: asterisk
Encoding: 42 42 13
Width: 364
Flags: W
Fore
230 308 m 1,0,-1
 327 257 l 1,1,-1
 304 215 l 1,2,-1
 207 269 l 1,3,-1
 207 168 l 1,4,-1
 156 168 l 1,5,-1
 156 269 l 1,6,-1
 58 215 l 1,7,-1
 36 257 l 1,8,-1
 134 308 l 1,9,-1
 36 359 l 1,10,-1
 58 401 l 1,11,-1
 156 347 l 1,12,-1
 156 448 l 1,13,-1
 207 448 l 1,14,-1
 207 347 l 1,15,-1
 304 401 l 1,16,-1
 327 359 l 1,17,-1
 230 308 l 1,0,-1
EndSplineSet
EndChar
StartChar: plus
Encoding: 43 43 14
Width: 364
Flags: W
Fore
217 225 m 1,0,-1
 344 225 l 1,1,-1
 344 155 l 1,2,-1
 217 155 l 1,3,-1
 217 27 l 1,4,-1
 147 27 l 1,5,-1
 147 155 l 1,6,-1
 19 155 l 1,7,-1
 19 225 l 1,8,-1
 147 225 l 1,9,-1
 147 352 l 1,10,-1
 217 352 l 1,11,-1
 217 225 l 1,0,-1
EndSplineSet
EndChar
StartChar: comma
Encoding: 44 44 15
Width: 364
Flags: W
Fore
221 108 m 1,0,-1
 205 28 l 1,1,-1
 125 -85 l 1,2,-1
 62 -85 l 1,3,-1
 112 28 l 1,4,-1
 128 108 l 1,5,-1
 221 108 l 1,0,-1
EndSplineSet
EndChar
StartChar: hyphen
Encoding: 45 45 16
Width: 364
Flags: W
Fore
274 217 m 1,0,-1
 257 131 l 1,1,-1
 72 131 l 1,2,-1
 88 217 l 1,3,-1
 274 217 l 1,0,-1
EndSplineSet
EndChar
StartChar: period
Encoding: 46 46 17
Width: 364
Flags: W
Fore
222 108 m 1,0,-1
 201 0 l 1,1,-1
 103 0 l 1,2,-1
 123 108 l 1,3,-1
 222 108 l 1,0,-1
EndSplineSet
EndChar
StartChar: slash
Encoding: 47 47 18
Width: 364
Flags: W
Fore
317 440 m 1,0,-1
 65 -56 l 1,1,-1
 0 -56 l 1,2,-1
 251 440 l 1,3,-1
 317 440 l 1,0,-1
EndSplineSet
EndChar
StartChar: zero
Encoding: 48 48 19
Width: 364
Flags: W
Fore
144 220 m 256,0,1
 144 235 144 235 155 246 c 256,2,3
 166 257 166 257 181 257 c 0,4,5
 195 257 195 257 208 246 c 0,6,7
 219 235 219 235 219 220 c 256,8,9
 219 205 219 205 208 194 c 0,10,11
 195 183 195 183 181 183 c 0,12,13
 166 183 166 183 155 194 c 256,14,15
 144 205 144 205 144 220 c 256,0,1
113 130 m 0,16,17
 113 65 113 65 154 65 c 0,18,19
 193 65 193 65 215 125 c 0,20,21
 223 148 223 148 229 171.5 c 128,-1,22
 235 195 235 195 240 221 c 0,23,24
 250 270 250 270 250 310 c 0,25,26
 250 375 250 375 210 375 c 0,27,28
 169 375 169 375 148 315 c 0,29,30
 140 293 140 293 133.5 269 c 128,-1,31
 127 245 127 245 122 219 c 0,32,33
 113 168 113 168 113 130 c 0,16,17
337 316 m 0,34,35
 337 254 337 254 322 188 c 256,36,37
 307 122 307 122 282 77 c 0,38,39
 261 37 261 37 225 14 c 0,40,41
 188 -9 188 -9 147 -9 c 0,42,43
 90 -9 90 -9 58 26 c 0,44,45
 27 61 27 61 27 124 c 0,46,47
 27 184 27 184 41 251 c 0,48,49
 49 284 49 284 59 312 c 128,-1,50
 69 340 69 340 81 363 c 0,51,52
 103 404 103 404 138 426 c 256,53,54
 173 448 173 448 216 448 c 0,55,56
 274 448 274 448 305 413 c 0,57,58
 337 380 337 380 337 316 c 0,34,35
EndSplineSet
EndChar
StartChar: one
Encoding: 49 49 20
Width: 364
Flags: W
Fore
125 77 m 1,0,-1
 181 363 l 1,1,-1
 86 340 l 1,2,-1
 101 419 l 1,3,-1
 197 440 l 1,4,-1
 280 440 l 1,5,-1
 210 77 l 1,6,-1
 301 77 l 1,7,-1
 286 0 l 1,8,-1
 13 0 l 1,9,-1
 28 77 l 1,10,-1
 125 77 l 1,0,-1
EndSplineSet
EndChar
StartChar: two
Encoding: 50 50 21
Width: 364
Flags: W
Fore
286 77 m 1,0,-1
 271 0 l 1,1,-1
 -9 0 l 1,2,-1
 6 74 l 1,3,-1
 88 148 l 2,4,5
 96 155 96 155 106 164 c 128,-1,6
 116 173 116 173 130 185 c 0,7,8
 249 290 249 290 249 335 c 0,9,10
 249 356 249 356 232.5 368 c 128,-1,11
 216 380 216 380 187 380 c 0,12,13
 138 380 138 380 66 345 c 1,14,-1
 81 424 l 1,15,16
 146 448 146 448 207 448 c 0,17,18
 264 448 264 448 299 420 c 0,19,20
 335 393 335 393 335 348 c 0,21,22
 335 274 335 274 201 160 c 2,23,-1
 189 150 l 1,24,-1
 104 77 l 1,25,-1
 286 77 l 1,0,-1
EndSplineSet
EndChar
StartChar: three
Encoding: 51 51 22
Width: 364
Flags: W
Fore
105 197 m 1,0,-1
 120 274 l 1,1,-1
 167 274 l 2,2,3
 204 274 204 274 226 290 c 0,4,5
 249 307 249 307 249 332 c 0,6,7
 249 352 249 352 232 363.5 c 128,-1,8
 215 375 215 375 184 375 c 0,9,10
 159 375 159 375 130 368.5 c 128,-1,11
 101 362 101 362 68 350 c 1,12,-1
 84 430 l 1,13,14
 146 448 146 448 198 448 c 0,15,16
 259 448 259 448 294 420 c 0,17,18
 330 392 330 392 330 344 c 0,19,20
 330 303 330 303 302 274 c 0,21,22
 276 246 276 246 225 237 c 1,23,24
 304 216 304 216 304 140 c 0,25,26
 304 71 304 71 255 32 c 0,27,28
 206 -9 206 -9 124 -9 c 0,29,30
 94 -9 94 -9 60.5 -3.5 c 128,-1,31
 27 2 27 2 -9 13 c 1,32,-1
 7 93 l 1,33,34
 66 65 66 65 128 65 c 0,35,36
 221 65 221 65 221 144 c 0,37,38
 221 169 221 169 202 182 c 0,39,40
 183 197 183 197 152 197 c 2,41,-1
 105 197 l 1,0,-1
EndSplineSet
EndChar
StartChar: four
Encoding: 52 52 23
Width: 364
Flags: W
Fore
85 170 m 1,0,-1
 195 170 l 1,1,-1
 228 340 l 1,2,-1
 85 170 l 1,0,-1
330 440 m 1,3,-1
 278 170 l 1,4,-1
 326 170 l 1,5,-1
 312 95 l 1,6,-1
 263 95 l 1,7,-1
 245 0 l 1,8,-1
 162 0 l 1,9,-1
 181 95 l 1,10,-1
 5 95 l 1,11,-1
 22 179 l 1,12,-1
 239 440 l 1,13,-1
 330 440 l 1,3,-1
EndSplineSet
EndChar
StartChar: five
Encoding: 53 53 24
Width: 364
Flags: W
Fore
340 440 m 1,0,-1
 325 364 l 1,1,-1
 156 364 l 1,2,-1
 140 282 l 1,3,4
 158 289 158 289 183 289 c 0,5,6
 242 289 242 289 276 255 c 256,7,8
 310 221 310 221 310 163 c 0,9,10
 310 83 310 83 258 37 c 0,11,12
 203 -9 203 -9 114 -9 c 0,13,14
 86 -9 86 -9 58 -4 c 128,-1,15
 30 1 30 1 2 10 c 1,16,-1
 17 89 l 1,17,18
 58 65 58 65 116 65 c 0,19,20
 167 65 167 65 196 88 c 256,21,22
 225 111 225 111 225 151 c 0,23,24
 225 182 225 182 204.5 199.5 c 128,-1,25
 184 217 184 217 148 217 c 0,26,27
 99 217 99 217 53 194 c 1,28,-1
 100 440 l 1,29,-1
 340 440 l 1,0,-1
EndSplineSet
EndChar
StartChar: six
Encoding: 54 54 25
Width: 364
Flags: W
Fore
237 164 m 0,0,1
 237 190 237 190 223.5 205.5 c 128,-1,2
 210 221 210 221 187 221 c 0,3,4
 156 221 156 221 135 191 c 0,5,6
 113 162 113 162 113 118 c 0,7,8
 113 92 113 92 126 76.5 c 128,-1,9
 139 61 139 61 162 61 c 0,10,11
 194 61 194 61 215 91 c 0,12,13
 237 119 237 119 237 164 c 0,0,1
330 351 m 1,14,15
 292 378 292 378 250 378 c 0,16,17
 203 378 203 378 172 346 c 128,-1,18
 141 314 141 314 127 252 c 1,19,20
 162 291 162 291 216 291 c 0,21,22
 264 291 264 291 294 258 c 0,23,24
 322 226 322 226 322 168 c 0,25,26
 322 92 322 92 277 41 c 0,27,28
 231 -10 231 -10 163 -10 c 0,29,30
 28 -10 28 -10 28 138 c 0,31,32
 28 202 28 202 46 263 c 0,33,34
 64 322 64 322 96 368 c 0,35,36
 155 448 155 448 262 448 c 0,37,38
 300 448 300 448 345 430 c 1,39,-1
 330 351 l 1,14,15
EndSplineSet
EndChar
StartChar: seven
Encoding: 55 55 26
Width: 364
Flags: W
Fore
361 440 m 1,0,-1
 349 379 l 1,1,-1
 126 0 l 1,2,-1
 32 0 l 1,3,-1
 249 364 l 1,4,-1
 62 364 l 1,5,-1
 77 440 l 1,6,-1
 361 440 l 1,0,-1
EndSplineSet
EndChar
StartChar: eight
Encoding: 56 56 27
Width: 364
Flags: W
Fore
230 141 m 0,0,1
 230 167 230 167 214 182 c 128,-1,2
 198 197 198 197 171 197 c 0,3,4
 138 197 138 197 117 175 c 256,5,6
 96 153 96 153 96 118 c 0,7,8
 96 92 96 92 112 77 c 0,9,10
 129 62 129 62 156 62 c 0,11,12
 188 62 188 62 209 84 c 0,13,14
 230 108 230 108 230 141 c 0,0,1
128 236 m 1,15,16
 66 251 66 251 66 318 c 0,17,18
 66 371 66 371 109 410 c 0,19,20
 151 448 151 448 216 448 c 0,21,22
 270 448 270 448 302 419 c 0,23,24
 335 391 335 391 335 343 c 0,25,26
 335 298 335 298 309 269 c 0,27,28
 284 240 284 240 239 232 c 1,29,30
 271 223 271 223 289 198.5 c 128,-1,31
 307 174 307 174 307 137 c 0,32,33
 307 73 307 73 263 32 c 256,34,35
 219 -9 219 -9 149 -9 c 0,36,37
 86 -9 86 -9 53 21 c 0,38,39
 19 49 19 49 19 103 c 0,40,41
 19 155 19 155 48 188 c 0,42,43
 76 224 76 224 128 236 c 1,15,16
143 315 m 0,44,45
 143 295 143 295 156 280 c 0,46,47
 170 266 170 266 191 266 c 0,48,49
 221 266 221 266 240 284 c 0,50,51
 259 303 259 303 259 329 c 0,52,53
 259 352 259 352 245.5 365.5 c 128,-1,54
 232 379 232 379 207 379 c 0,55,56
 180 379 180 379 161 360 c 0,57,58
 143 342 143 342 143 315 c 0,44,45
EndSplineSet
EndChar
StartChar: nine
Encoding: 57 57 28
Width: 364
Flags: W
Fore
31 88 m 1,0,1
 67 61 67 61 112 61 c 0,2,3
 206 61 206 61 235 187 c 1,4,5
 199 148 199 148 146 148 c 0,6,7
 97 148 97 148 68 181 c 0,8,9
 40 213 40 213 40 271 c 0,10,11
 40 347 40 347 85 398 c 0,12,13
 129 448 129 448 199 448 c 0,14,15
 333 448 333 448 333 300 c 0,16,17
 333 237 333 237 315 175 c 0,18,19
 297 116 297 116 265 70 c 0,20,21
 208 -9 208 -9 100 -9 c 0,22,23
 61 -9 61 -9 16 9 c 1,24,-1
 31 88 l 1,0,1
125 274 m 0,25,26
 125 248 125 248 138 233 c 128,-1,27
 151 218 151 218 174 218 c 0,28,29
 205 218 205 218 227 248 c 0,30,31
 248 277 248 277 248 320 c 0,32,33
 248 346 248 346 235 362 c 128,-1,34
 222 378 222 378 199 378 c 0,35,36
 167 378 167 378 146 348 c 256,37,38
 125 318 125 318 125 274 c 0,25,26
EndSplineSet
EndChar
StartChar: colon
Encoding: 58 58 29
Width: 364
Flags: W
Fore
249 314 m 1,0,-1
 228 206 l 1,1,-1
 129 206 l 1,2,-1
 150 314 l 1,3,-1
 249 314 l 1,0,-1
209 108 m 1,4,-1
 189 0 l 1,5,-1
 90 0 l 1,6,-1
 111 108 l 1,7,-1
 209 108 l 1,4,-1
EndSplineSet
EndChar
StartChar: semicolon
Encoding: 59 59 30
Width: 364
Flags: W
Fore
209 108 m 1,0,-1
 193 28 l 1,1,-1
 114 -85 l 1,2,-1
 50 -85 l 1,3,-1
 95 28 l 1,4,-1
 111 108 l 1,5,-1
 209 108 l 1,0,-1
249 314 m 1,6,-1
 228 206 l 1,7,-1
 129 206 l 1,8,-1
 150 314 l 1,9,-1
 249 314 l 1,6,-1
EndSplineSet
EndChar
StartChar: less
Encoding: 60 60 31
Width: 364
Flags: W
Fore
103 189 m 1,0,-1
 338 106 l 1,1,-1
 338 32 l 1,2,-1
 26 155 l 1,3,-1
 26 224 l 1,4,-1
 338 347 l 1,5,-1
 338 273 l 1,6,-1
 103 189 l 1,0,-1
EndSplineSet
EndChar
StartChar: equal
Encoding: 61 61 32
Width: 364
Flags: W
Fore
338 157 m 1,0,-1
 338 87 l 1,1,-1
 26 87 l 1,2,-1
 26 157 l 1,3,-1
 338 157 l 1,0,-1
338 291 m 1,4,-1
 338 222 l 1,5,-1
 26 222 l 1,6,-1
 26 291 l 1,7,-1
 338 291 l 1,4,-1
EndSplineSet
EndChar
StartChar: greater
Encoding: 62 62 33
Width: 364
Flags: W
Fore
26 347 m 1,0,-1
 338 224 l 1,1,-1
 338 155 l 1,2,-1
 26 32 l 1,3,-1
 26 106 l 1,4,-1
 260 189 l 1,5,-1
 26 273 l 1,6,-1
 26 347 l 1,0,-1
EndSplineSet
EndChar
StartChar: question
Encoding: 63 63 34
Width: 364
Flags: W
Fore
181 83 m 1,0,-1
 164 0 l 1,1,-1
 86 0 l 1,2,-1
 102 83 l 1,3,-1
 181 83 l 1,0,-1
109 118 m 1,4,-1
 118 164 l 2,5,6
 122 192 122 192 136 213 c 0,7,8
 151 236 151 236 176 257 c 2,9,-1
 208 285 l 1,10,-1
 210 287 l 2,11,12
 253 324 253 324 253 344 c 0,13,14
 253 379 253 379 211 379 c 0,15,16
 161 379 161 379 90 336 c 1,17,-1
 106 415 l 1,18,19
 166 448 166 448 230 448 c 0,20,21
 279 448 279 448 307 424 c 0,22,23
 337 400 337 400 337 360 c 0,24,25
 337 332 337 332 322 308 c 0,26,27
 307 282 307 282 273 254 c 2,28,-1
 242 229 l 1,29,-1
 240 227 l 2,30,31
 203 196 203 196 194 155 c 2,32,-1
 187 118 l 1,33,-1
 109 118 l 1,4,-1
EndSplineSet
EndChar
StartChar: at
Encoding: 64 64 35
Width: 364
Flags: W
Fore
213 89 m 0,0,1
 244 89 244 89 265 116 c 256,2,3
 286 143 286 143 286 183 c 0,4,5
 286 206 286 206 274 219 c 128,-1,6
 262 232 262 232 241 232 c 0,7,8
 212 232 212 232 189 205 c 0,9,10
 168 178 168 178 168 141 c 0,11,12
 168 116 168 116 180 102.5 c 128,-1,13
 192 89 192 89 213 89 c 0,0,1
257 40 m 1,14,-1
 262 64 l 1,15,16
 235 34 235 34 198 34 c 0,17,18
 156 34 156 34 133 60 c 0,19,20
 109 86 109 86 109 131 c 0,21,22
 109 196 109 196 147 242 c 0,23,24
 185 287 185 287 239 287 c 0,25,26
 282 287 282 287 299 259 c 1,27,28
 302 270 302 270 303 279.5 c 128,-1,29
 304 289 304 289 304 297 c 0,30,31
 304 324 304 324 286 340 c 128,-1,32
 268 356 268 356 237 356 c 0,33,34
 200 356 200 356 167 337 c 128,-1,35
 134 318 134 318 108 283 c 0,36,37
 81 247 81 247 67 203.5 c 128,-1,38
 53 160 53 160 53 114 c 0,39,40
 53 43 53 43 87 2 c 0,41,42
 123 -39 123 -39 181 -39 c 0,43,44
 227 -39 227 -39 276 -10 c 1,45,-1
 295 -62 l 1,46,47
 234 -94 234 -94 179 -94 c 0,48,49
 95 -94 95 -94 45 -38 c 0,50,51
 -4 18 -4 18 -4 114 c 0,52,53
 -4 213 -4 213 47 296 c 0,54,55
 79 350 79 350 130 381 c 256,56,57
 181 412 181 412 236 412 c 256,58,59
 291 412 291 412 328 381 c 0,60,61
 363 351 363 351 363 301 c 0,62,63
 363 286 363 286 358 263 c 2,64,-1
 315 40 l 1,65,-1
 257 40 l 1,14,-1
EndSplineSet
EndChar
StartChar: A
Encoding: 65 65 36
Width: 364
Flags: W
Fore
134 181 m 1,0,-1
 217 181 l 1,1,-1
 212 360 l 1,2,-1
 134 181 l 1,0,-1
278 440 m 1,3,-1
 311 0 l 1,4,-1
 225 0 l 1,5,-1
 221 109 l 1,6,-1
 103 109 l 1,7,-1
 55 0 l 1,8,-1
 -33 0 l 1,9,-1
 172 440 l 1,10,-1
 278 440 l 1,3,-1
EndSplineSet
KernsSLIFO: 57 -50 0 0
EndChar
StartChar: B
Encoding: 66 66 37
Width: 364
Flags: W
Fore
92 70 m 1,0,-1
 150 70 l 2,1,2
 239 70 239 70 239 150 c 0,3,4
 239 200 239 200 175 200 c 2,5,-1
 117 200 l 1,6,-1
 92 70 l 1,0,-1
130 269 m 1,7,-1
 189 269 l 2,8,9
 260 269 260 269 260 333 c 0,10,11
 260 372 260 372 209 372 c 2,12,-1
 150 372 l 1,13,-1
 130 269 l 1,7,-1
222 441 m 2,14,15
 348 441 348 441 348 344 c 0,16,17
 348 296 348 296 320 267 c 128,-1,18
 292 238 292 238 240 232 c 1,19,20
 281 228 281 228 303.5 205 c 128,-1,21
 326 182 326 182 326 143 c 0,22,23
 326 111 326 111 315 83.5 c 128,-1,24
 304 56 304 56 283 37 c 0,25,26
 263 18 263 18 227 9 c 0,27,28
 194 0 194 0 136 0 c 2,29,-1
 -6 0 l 1,30,-1
 80 441 l 1,31,-1
 222 441 l 2,14,15
EndSplineSet
EndChar
StartChar: C
Encoding: 67 67 38
Width: 364
Flags: W
Fore
279 13 m 1,0,1
 232 -9 232 -9 184 -9 c 0,2,3
 113 -9 113 -9 76 31.5 c 128,-1,4
 39 72 39 72 39 149 c 0,5,6
 39 183 39 183 43.5 215.5 c 128,-1,7
 48 248 48 248 59 279 c 0,8,9
 80 341 80 341 116 382 c 0,10,11
 145 415 145 415 183 431.5 c 128,-1,12
 221 448 221 448 266 448 c 0,13,14
 314 448 314 448 360 427 c 1,15,-1
 341 330 l 1,16,17
 311 371 311 371 257 371 c 0,18,19
 234 371 234 371 211.5 356.5 c 128,-1,20
 189 342 189 342 172 317 c 0,21,22
 152 285 152 285 139 241 c 0,23,24
 127 198 127 198 127 157 c 0,25,26
 127 113 127 113 145.5 90.5 c 128,-1,27
 164 68 164 68 199 68 c 0,28,29
 223 68 223 68 246.5 78 c 128,-1,30
 270 88 270 88 298 109 c 1,31,-1
 279 13 l 1,32,-1
 279 13 l 1,0,1
EndSplineSet
EndChar
StartChar: D
Encoding: 68 68 39
Width: 364
Flags: W
Fore
100 78 m 1,0,-1
 128 78 l 2,1,2
 193 78 193 78 219 130 c 0,3,4
 235 160 235 160 244 205 c 0,5,6
 249 227 249 227 251.5 246.5 c 128,-1,7
 254 266 254 266 254 285 c 0,8,9
 254 362 254 362 179 362 c 2,10,-1
 155 362 l 1,11,-1
 100 78 l 1,0,-1
176 440 m 2,12,13
 344 440 344 440 344 295 c 0,14,15
 344 269 344 269 339.5 240 c 128,-1,16
 335 211 335 211 327 178 c 0,17,18
 316 133 316 133 301 102 c 128,-1,19
 286 71 286 71 265 51 c 0,20,21
 236 24 236 24 198 12 c 0,22,23
 161 0 161 0 95 0 c 2,24,-1
 -2 0 l 1,25,-1
 83 440 l 1,26,-1
 176 440 l 2,12,13
EndSplineSet
EndChar
StartChar: E
Encoding: 69 69 40
Width: 364
Flags: W
Fore
9 0 m 1,0,-1
 94 440 l 1,1,-1
 368 440 l 1,2,-1
 353 364 l 1,3,-1
 166 364 l 1,4,-1
 148 269 l 1,5,-1
 317 269 l 1,6,-1
 303 192 l 1,7,-1
 133 192 l 1,8,-1
 111 77 l 1,9,-1
 298 77 l 1,10,-1
 283 0 l 1,11,-1
 9 0 l 1,0,-1
EndSplineSet
EndChar
StartChar: F
Encoding: 70 70 41
Width: 364
Flags: W
Fore
172 364 m 1,0,-1
 153 269 l 1,1,-1
 324 269 l 1,2,-1
 309 192 l 1,3,-1
 138 192 l 1,4,-1
 101 0 l 1,5,-1
 14 0 l 1,6,-1
 100 440 l 1,7,-1
 374 440 l 1,8,-1
 359 364 l 1,9,-1
 172 364 l 1,0,-1
EndSplineSet
EndChar
StartChar: G
Encoding: 71 71 42
Width: 364
Flags: W
Fore
292 28 m 1,0,1
 250 -9 250 -9 180 -9 c 256,2,3
 110 -9 110 -9 69 34 c 0,4,5
 30 78 30 78 30 155 c 0,6,7
 30 219 30 219 51 280 c 0,8,9
 74 342 74 342 108 382 c 0,10,11
 168 448 168 448 259 448 c 0,12,13
 306 448 306 448 352 427 c 1,14,-1
 332 330 l 1,15,16
 302 371 302 371 253 371 c 0,17,18
 210 371 210 371 178 337 c 0,19,20
 153 307 153 307 138 263 c 0,21,22
 129 234 129 234 124 207 c 128,-1,23
 119 180 119 180 119 157 c 0,24,25
 119 114 119 114 137.5 91 c 128,-1,26
 156 68 156 68 191 68 c 0,27,28
 212 68 212 68 227 78 c 1,29,-1
 244 164 l 1,30,-1
 183 164 l 1,31,-1
 198 237 l 1,32,-1
 333 237 l 1,33,-1
 292 28 l 1,34,-1
 292 28 l 1,0,1
EndSplineSet
EndChar
StartChar: H
Encoding: 72 72 43
Width: 364
Flags: W
Fore
171 440 m 1,0,-1
 138 273 l 1,1,-1
 247 273 l 1,2,-1
 279 440 l 1,3,-1
 366 440 l 1,4,-1
 280 0 l 1,5,-1
 193 0 l 1,6,-1
 231 196 l 1,7,-1
 123 196 l 1,8,-1
 85 0 l 1,9,-1
 -2 0 l 1,10,-1
 83 440 l 1,11,-1
 171 440 l 1,0,-1
EndSplineSet
EndChar
StartChar: I
Encoding: 73 73 44
Width: 364
Flags: W
Fore
94 440 m 1,0,-1
 356 440 l 1,1,-1
 341 364 l 1,2,-1
 253 364 l 1,3,-1
 198 77 l 1,4,-1
 285 77 l 1,5,-1
 270 0 l 1,6,-1
 8 0 l 1,7,-1
 23 77 l 1,8,-1
 111 77 l 1,9,-1
 166 364 l 1,10,-1
 78 364 l 1,11,-1
 94 440 l 1,0,-1
EndSplineSet
EndChar
StartChar: J
Encoding: 74 74 45
Width: 364
Flags: W
Fore
13 124 m 1,0,1
 60 68 60 68 119 68 c 0,2,3
 154 68 154 68 170 84 c 0,4,5
 187 101 187 101 194 141 c 2,6,-1
 238 364 l 1,7,-1
 132 364 l 1,8,-1
 147 440 l 1,9,-1
 340 440 l 1,10,-1
 281 141 l 2,11,12
 272 92 272 92 260 66 c 0,13,14
 248 41 248 41 228 24 c 0,15,16
 186 -9 186 -9 121 -9 c 256,17,18
 56 -9 56 -9 -6 23 c 1,19,-1
 13 124 l 1,0,1
EndSplineSet
EndChar
StartChar: K
Encoding: 75 75 46
Width: 364
Flags: W
Fore
167 440 m 1,0,-1
 135 276 l 1,1,-1
 301 440 l 1,2,-1
 404 440 l 1,3,-1
 225 262 l 1,4,-1
 325 0 l 1,5,-1
 235 0 l 1,6,-1
 160 198 l 1,7,-1
 109 148 l 1,8,-1
 81 0 l 1,9,-1
 -5 0 l 1,10,-1
 80 440 l 1,11,-1
 167 440 l 1,0,-1
EndSplineSet
EndChar
StartChar: L
Encoding: 76 76 47
Width: 364
Flags: W
Fore
109 440 m 1,0,-1
 196 440 l 1,1,-1
 126 77 l 1,2,-1
 312 77 l 1,3,-1
 297 0 l 1,4,-1
 24 0 l 1,5,-1
 109 440 l 1,0,-1
EndSplineSet
EndChar
StartChar: M
Encoding: 77 77 48
Width: 364
Flags: W
Fore
172 440 m 1,0,-1
 187 247 l 1,1,-1
 274 440 l 1,2,-1
 381 440 l 1,3,-1
 295 0 l 1,4,-1
 221 0 l 1,5,-1
 291 353 l 1,6,-1
 204 160 l 1,7,-1
 140 160 l 1,8,-1
 126 353 l 1,9,-1
 58 0 l 1,10,-1
 -17 0 l 1,11,-1
 68 440 l 1,12,-1
 172 440 l 1,0,-1
EndSplineSet
EndChar
StartChar: N
Encoding: 78 78 49
Width: 364
Flags: W
Fore
168 440 m 1,0,-1
 231 120 l 1,1,-1
 294 440 l 1,2,-1
 370 440 l 1,3,-1
 285 0 l 1,4,-1
 199 0 l 1,5,-1
 132 320 l 1,6,-1
 70 0 l 1,7,-1
 -7 0 l 1,8,-1
 78 440 l 1,9,-1
 168 440 l 1,0,-1
EndSplineSet
EndChar
StartChar: O
Encoding: 79 79 50
Width: 364
Flags: W
Fore
256 301 m 0,0,1
 256 372 256 372 209 372 c 0,2,3
 172 372 172 372 151 330 c 0,4,5
 144 319 144 319 138 300 c 128,-1,6
 132 281 132 281 125 254 c 0,7,8
 108 184 108 184 108 139 c 0,9,10
 108 69 108 69 155 69 c 0,11,12
 190 69 190 69 213 110 c 0,13,14
 227 136 227 136 239 186 c 0,15,16
 256 256 256 256 256 301 c 0,0,1
18 137 m 0,17,18
 18 196 18 196 33 257 c 0,19,20
 40 287 40 287 50 313.5 c 128,-1,21
 60 340 60 340 73 363 c 0,22,23
 96 405 96 405 132.5 426.5 c 128,-1,24
 169 448 169 448 215 448 c 0,25,26
 279 448 279 448 312 411 c 128,-1,27
 345 374 345 374 345 304 c 0,28,29
 345 274 345 274 342 244 c 128,-1,30
 339 214 339 214 331 183 c 0,31,32
 316 123 316 123 292 78 c 0,33,34
 269 36 269 36 232 13.5 c 128,-1,35
 195 -9 195 -9 149 -9 c 0,36,37
 84 -9 84 -9 51 28 c 128,-1,38
 18 65 18 65 18 137 c 0,17,18
EndSplineSet
EndChar
StartChar: P
Encoding: 80 80 51
Width: 364
Flags: W
Fore
138 238 m 1,0,-1
 181 238 l 2,1,2
 266 238 266 238 266 318 c 0,3,4
 266 344 266 344 251 356 c 0,5,6
 235 367 235 367 199 367 c 2,7,-1
 163 367 l 1,8,-1
 138 238 l 1,0,-1
214 440 m 2,9,10
 284 440 284 440 320.5 413.5 c 128,-1,11
 357 387 357 387 357 335 c 0,12,13
 357 303 357 303 346 268 c 0,14,15
 335 235 335 235 318 216 c 0,16,17
 296 189 296 189 261 177 c 0,18,19
 227 165 227 165 172 165 c 2,20,-1
 124 165 l 1,21,-1
 92 0 l 1,22,-1
 5 0 l 1,23,-1
 91 440 l 1,24,-1
 214 440 l 2,9,10
EndSplineSet
EndChar
StartChar: Q
Encoding: 81 81 52
Width: 364
Flags: W
Fore
150 -9 m 2,0,1
 85 -9 85 -9 51.5 28 c 128,-1,2
 18 65 18 65 18 136 c 0,3,4
 18 194 18 194 32 256 c 0,5,6
 47 318 47 318 72 362 c 0,7,8
 95 404 95 404 132 426 c 128,-1,9
 169 448 169 448 215 448 c 0,10,11
 278 448 278 448 311 412 c 0,12,13
 345 377 345 377 345 309 c 0,14,15
 345 278 345 278 342 247 c 128,-1,16
 339 216 339 216 331 185 c 0,17,18
 318 124 318 124 292 77 c 0,19,20
 271 38 271 38 229 12 c 1,21,-1
 273 -43 l 1,22,-1
 210 -83 l 1,23,-1
 158 -9 l 1,24,-1
 150 -9 l 2,0,1
256 301 m 0,25,26
 256 372 256 372 209 372 c 0,27,28
 172 372 172 372 151 330 c 0,29,30
 144 319 144 319 138 300 c 128,-1,31
 132 281 132 281 125 254 c 0,32,33
 108 184 108 184 108 139 c 0,34,35
 108 69 108 69 155 69 c 0,36,37
 190 69 190 69 213 110 c 0,38,39
 227 136 227 136 239 186 c 0,40,41
 256 256 256 256 256 301 c 0,25,26
EndSplineSet
EndChar
StartChar: R
Encoding: 82 82 53
Width: 364
Flags: W
Fore
232 208 m 1,0,1
 251 205 251 205 260 195 c 0,2,3
 271 184 271 184 278 158 c 2,4,-1
 327 0 l 1,5,-1
 238 0 l 1,6,-1
 207 111 l 2,7,8
 206 113 206 113 204 119 c 0,9,10
 189 174 189 174 158 174 c 2,11,-1
 123 174 l 1,12,-1
 89 0 l 1,13,-1
 2 0 l 1,14,-1
 88 440 l 1,15,-1
 209 440 l 2,16,17
 278 440 278 440 311 414.5 c 128,-1,18
 344 389 344 389 344 335 c 0,19,20
 344 280 344 280 315 247 c 128,-1,21
 286 214 286 214 232 208 c 1,0,1
138 247 m 1,22,-1
 174 247 l 2,23,24
 255 247 255 247 255 322 c 0,25,26
 255 367 255 367 201 367 c 2,27,-1
 161 367 l 1,28,-1
 138 247 l 1,22,-1
EndSplineSet
EndChar
StartChar: S
Encoding: 83 83 54
Width: 364
Flags: W
Fore
149 196 m 1,0,1
 91 221 91 221 74 242 c 0,2,3
 56 263 56 263 56 301 c 0,4,5
 56 367 56 367 104 407 c 0,6,7
 127 428 127 428 158 438 c 128,-1,8
 189 448 189 448 227 448 c 0,9,10
 288 448 288 448 342 424 c 1,11,-1
 325 340 l 1,12,13
 285 377 285 377 219 377 c 0,14,15
 184 377 184 377 162 360 c 256,16,17
 140 343 140 343 140 318 c 0,18,19
 140 294 140 294 194 268 c 1,20,-1
 196 268 l 1,21,-1
 231 253 l 2,22,23
 274 233 274 233 294 206 c 128,-1,24
 314 179 314 179 314 140 c 0,25,26
 314 73 314 73 266 32 c 0,27,28
 219 -9 219 -9 138 -9 c 0,29,30
 73 -9 73 -9 1 22 c 1,31,-1
 19 112 l 1,32,33
 48 89 48 89 78.5 76 c 128,-1,34
 109 63 109 63 141 63 c 0,35,36
 181 63 181 63 203 80.5 c 128,-1,37
 225 98 225 98 225 127 c 0,38,39
 225 165 225 165 184 181 c 2,40,-1
 149 196 l 1,41,-1
 149 196 l 1,0,1
EndSplineSet
EndChar
StartChar: T
Encoding: 84 84 55
Width: 364
Flags: W
Fore
96 0 m 1,0,-1
 166 364 l 1,1,-1
 53 364 l 1,2,-1
 68 440 l 1,3,-1
 380 440 l 1,4,-1
 365 364 l 1,5,-1
 253 364 l 1,6,-1
 182 0 l 1,7,-1
 96 0 l 1,0,-1
EndSplineSet
EndChar
StartChar: U
Encoding: 85 85 56
Width: 364
Flags: W
Fore
74 440 m 1,0,-1
 161 440 l 1,1,-1
 103 141 l 2,2,3
 103 140 103 140 102 139 c 1,4,5
 101 132 101 132 100.5 127 c 128,-1,6
 100 122 100 122 100 119 c 0,7,8
 100 95 100 95 113.5 81.5 c 128,-1,9
 127 68 127 68 152 68 c 0,10,11
 215 68 215 68 230 141 c 2,12,-1
 288 440 l 1,13,-1
 375 440 l 1,14,-1
 321 163 l 2,15,16
 310 107 310 107 299 82 c 0,17,18
 287 55 287 55 268 36 c 0,19,20
 221 -9 221 -9 148 -9 c 0,21,22
 82 -9 82 -9 47.5 20.5 c 128,-1,23
 13 50 13 50 13 104 c 0,24,25
 13 116 13 116 14.5 131 c 128,-1,26
 16 146 16 146 20 163 c 2,27,-1
 74 440 l 1,0,-1
EndSplineSet
EndChar
StartChar: V
Encoding: 86 86 57
Width: 364
Flags: W
Fore
302 440 m 1,0,-1
 391 440 l 1,1,-1
 201 0 l 1,2,-1
 79 0 l 1,3,-1
 60 440 l 1,4,-1
 146 440 l 1,5,-1
 153 71 l 1,6,-1
 302 440 l 1,0,-1
EndSplineSet
KernsSLIFO: 36 -50 0 0
EndChar
StartChar: W
Encoding: 87 87 58
Width: 364
Flags: W
Fore
117 440 m 1,0,-1
 85 117 l 1,1,-1
 165 326 l 1,2,-1
 236 326 l 1,3,-1
 239 117 l 1,4,-1
 327 440 l 1,5,-1
 404 440 l 1,6,-1
 268 0 l 1,7,-1
 189 0 l 1,8,-1
 185 231 l 1,9,-1
 91 0 l 1,10,-1
 12 0 l 1,11,-1
 42 440 l 1,12,-1
 117 440 l 1,0,-1
EndSplineSet
EndChar
StartChar: X
Encoding: 88 88 59
Width: 364
Flags: W
Fore
230 0 m 1,0,-1
 171 151 l 1,1,-1
 53 0 l 1,2,-1
 -42 0 l 1,3,-1
 139 231 l 1,4,-1
 54 440 l 1,5,-1
 140 440 l 1,6,-1
 195 304 l 1,7,-1
 301 440 l 1,8,-1
 396 440 l 1,9,-1
 227 223 l 1,10,-1
 316 0 l 1,11,-1
 230 0 l 1,0,-1
EndSplineSet
EndChar
StartChar: Y
Encoding: 89 89 60
Width: 364
Flags: W
Fore
129 440 m 1,0,-1
 184 249 l 1,1,-1
 306 440 l 1,2,-1
 401 440 l 1,3,-1
 214 173 l 1,4,-1
 180 0 l 1,5,-1
 94 0 l 1,6,-1
 127 173 l 1,7,-1
 43 440 l 1,8,-1
 129 440 l 1,0,-1
EndSplineSet
EndChar
StartChar: Z
Encoding: 90 90 61
Width: 364
Flags: W
Fore
381 440 m 1,0,-1
 366 368 l 1,1,-1
 108 77 l 1,2,-1
 314 77 l 1,3,-1
 299 0 l 1,4,-1
 -10 0 l 1,5,-1
 4 72 l 1,6,-1
 257 364 l 1,7,-1
 68 364 l 1,8,-1
 83 440 l 1,9,-1
 381 440 l 1,0,-1
EndSplineSet
EndChar
StartChar: bracketleft
Encoding: 91 91 62
Width: 364
Flags: W
Fore
321 459 m 1,0,-1
 309 403 l 1,1,-1
 238 403 l 1,2,-1
 155 -24 l 1,3,-1
 227 -24 l 1,4,-1
 216 -80 l 1,5,-1
 66 -80 l 1,6,-1
 171 459 l 1,7,-1
 321 459 l 1,0,-1
EndSplineSet
EndChar
StartChar: backslash
Encoding: 92 92 63
Width: 364
Flags: W
Fore
219 -56 m 1,0,-1
 159 -56 l 1,1,-1
 100 440 l 1,2,-1
 160 440 l 1,3,-1
 219 -56 l 1,0,-1
EndSplineSet
EndChar
StartChar: bracketright
Encoding: 93 93 64
Width: 364
Flags: W
Fore
31 -80 m 1,0,-1
 42 -24 l 1,1,-1
 114 -24 l 1,2,-1
 196 403 l 1,3,-1
 125 403 l 1,4,-1
 136 459 l 1,5,-1
 286 459 l 1,6,-1
 181 -80 l 1,7,-1
 31 -80 l 1,0,-1
EndSplineSet
EndChar
StartChar: asciicircum
Encoding: 94 94 65
Width: 364
Flags: W
Fore
347 276 m 1,0,-1
 276 276 l 1,1,-1
 182 365 l 1,2,-1
 88 276 l 1,3,-1
 17 276 l 1,4,-1
 146 440 l 1,5,-1
 218 440 l 1,6,-1
 347 276 l 1,0,-1
EndSplineSet
EndChar
StartChar: underscore
Encoding: 95 95 66
Width: 364
Flags: W
Fore
364 -142 m 1,0,-1
 0 -142 l 1,1,-1
 0 -86 l 1,2,-1
 364 -86 l 1,3,-1
 364 -142 l 1,0,-1
EndSplineSet
EndChar
StartChar: grave
Encoding: 96 96 67
Width: 364
Flags: W
Fore
255 372 m 1,0,-1
 196 372 l 1,1,-1
 109 483 l 1,2,-1
 193 483 l 1,3,-1
 255 372 l 1,0,-1
EndSplineSet
EndChar
StartChar: a
Encoding: 97 97 68
Width: 364
Flags: W
Fore
204 156 m 1,0,1
 104 156 104 156 104 94 c 0,2,3
 104 75 104 75 116 63 c 128,-1,4
 128 51 128 51 146 51 c 0,5,6
 181 51 181 51 204.5 78 c 128,-1,7
 228 105 228 105 237 156 c 1,8,-1
 204 156 l 1,9,-1
 204 156 l 1,0,1
292 0 m 1,10,-1
 207 0 l 1,11,-1
 214 37 l 1,12,13
 175 -9 175 -9 111 -9 c 0,14,15
 66 -9 66 -9 40 17 c 256,16,17
 14 43 14 43 14 87 c 0,18,19
 14 151 14 151 59.5 184 c 128,-1,20
 105 217 105 217 192 217 c 2,21,-1
 249 217 l 1,22,-1
 251 232 l 1,23,24
 252 234 252 234 252 240 c 0,25,26
 252 275 252 275 193 275 c 0,27,28
 169 275 169 275 138.5 267 c 128,-1,29
 108 259 108 259 73 242 c 1,30,-1
 87 315 l 1,31,32
 152 338 152 338 207 338 c 0,33,34
 337 338 337 338 337 250 c 0,35,36
 337 229 337 229 329 189 c 2,37,-1
 292 0 l 1,10,-1
EndSplineSet
Substitution: 0 65534 'L019' uni0E38
Substitution: 0 65534 'L019' uni0E38
EndChar
StartChar: b
Encoding: 98 98 69
Width: 364
Flags: W
Fore
177 62 m 0,0,1
 209 62 209 62 233 103 c 0,2,3
 257 145 257 145 257 205 c 0,4,5
 257 235 257 235 245 251.5 c 128,-1,6
 233 268 233 268 210 268 c 0,7,8
 176 268 176 268 152 227 c 0,9,10
 128 185 128 185 128 127 c 0,11,12
 128 96 128 96 141 79 c 128,-1,13
 154 62 154 62 177 62 c 0,0,1
100 0 m 1,14,-1
 14 0 l 1,15,-1
 103 459 l 1,16,-1
 190 459 l 1,17,-1
 155 281 l 1,18,19
 173 310 173 310 197.5 324 c 128,-1,20
 222 338 222 338 250 338 c 0,21,22
 292 338 292 338 318 306 c 0,23,24
 344 272 344 272 344 218 c 0,25,26
 344 179 344 179 335 141 c 128,-1,27
 326 103 326 103 309 72 c 0,28,29
 289 34 289 34 258 13 c 0,30,31
 225 -9 225 -9 193 -9 c 0,32,33
 160 -9 160 -9 138.5 9.5 c 128,-1,34
 117 28 117 28 112 61 c 1,35,-1
 100 0 l 1,14,-1
EndSplineSet
Substitution: 0 65534 'L019' uni0E39
Substitution: 0 65534 'L019' uni0E39
EndChar
StartChar: c
Encoding: 99 99 70
Width: 364
Flags: W
Fore
282 11 m 1,0,1
 236 -9 236 -9 187 -9 c 0,2,3
 121 -9 121 -9 82 28 c 0,4,5
 44 66 44 66 44 128 c 0,6,7
 44 222 44 222 98 280 c 0,8,9
 153 338 153 338 240 338 c 0,10,11
 298 338 298 338 341 314 c 1,12,-1
 326 235 l 1,13,14
 290 268 290 268 245 268 c 0,15,16
 195 268 195 268 163 232 c 0,17,18
 132 195 132 195 132 137 c 0,19,20
 132 62 132 62 204 62 c 0,21,22
 245 62 245 62 299 92 c 1,23,-1
 282 11 l 1,24,-1
 282 11 l 1,0,1
EndSplineSet
Substitution: 0 65534 'L019' uni0E3A
Substitution: 0 65534 'L019' uni0E3A
EndChar
StartChar: d
Encoding: 100 100 71
Width: 364
Flags: W
Fore
187 268 m 0,0,1
 154 268 154 268 130 226 c 0,2,3
 107 185 107 185 107 125 c 0,4,5
 107 95 107 95 119 78.5 c 128,-1,6
 131 62 131 62 153 62 c 0,7,8
 187 62 187 62 211 103 c 0,9,10
 236 145 236 145 236 202 c 0,11,12
 236 233 236 233 223 250.5 c 128,-1,13
 210 268 210 268 187 268 c 0,0,1
289 459 m 1,14,-1
 375 459 l 1,15,-1
 286 0 l 1,16,-1
 200 0 l 1,17,-1
 209 49 l 1,18,19
 169 -9 169 -9 113 -9 c 0,20,21
 69 -9 69 -9 45 24 c 0,22,23
 19 56 19 56 19 112 c 0,24,25
 19 150 19 150 28 188 c 128,-1,26
 37 226 37 226 54 258 c 0,27,28
 76 297 76 297 106 317 c 0,29,30
 135 339 135 339 171 339 c 0,31,32
 204 339 204 339 225.5 320 c 128,-1,33
 247 301 247 301 252 269 c 1,34,-1
 289 459 l 1,14,-1
EndSplineSet
EndChar
StartChar: e
Encoding: 101 101 72
Width: 364
Flags: W
Fore
293 16 m 1,0,1
 234 -9 234 -9 172 -9 c 0,2,3
 98 -9 98 -9 60 26 c 128,-1,4
 22 61 22 61 22 129 c 0,5,6
 22 149 22 149 25.5 169 c 128,-1,7
 29 189 29 189 35 209 c 0,8,9
 49 250 49 250 72 277 c 0,10,11
 123 339 123 339 205 339 c 0,12,13
 266 339 266 339 304 304 c 0,14,15
 341 267 341 267 341 210 c 0,16,17
 341 196 341 196 339 179 c 128,-1,18
 337 162 337 162 333 137 c 1,19,-1
 109 137 l 1,20,21
 108 132 108 132 107.5 128 c 128,-1,22
 107 124 107 124 107 119 c 0,23,24
 107 60 107 60 185 60 c 0,25,26
 217 60 217 60 248.5 69 c 128,-1,27
 280 78 280 78 308 96 c 1,28,-1
 293 16 l 1,29,-1
 293 16 l 1,0,1
258 202 m 1,30,31
 260 206 260 206 260 210 c 128,-1,32
 260 214 260 214 260 217 c 0,33,34
 260 243 260 243 245 257 c 128,-1,35
 230 271 230 271 204 271 c 0,36,37
 145 271 145 271 121 202 c 1,38,-1
 258 202 l 1,39,-1
 258 202 l 1,30,31
EndSplineSet
EndChar
StartChar: f
Encoding: 102 102 73
Width: 364
Flags: W
Fore
248 330 m 1,0,-1
 349 330 l 1,1,-1
 337 264 l 1,2,-1
 235 264 l 1,3,-1
 184 0 l 1,4,-1
 97 0 l 1,5,-1
 149 264 l 1,6,-1
 68 264 l 1,7,-1
 81 330 l 1,8,-1
 161 330 l 1,9,-1
 166 353 l 2,10,11
 178 415 178 415 206 437 c 0,12,13
 232 459 232 459 303 459 c 2,14,-1
 374 459 l 1,15,-1
 361 393 l 1,16,-1
 294 393 l 2,17,18
 274 393 274 393 266 384 c 0,19,20
 258 377 258 377 253 353 c 2,21,-1
 248 330 l 1,0,-1
EndSplineSet
EndChar
StartChar: g
Encoding: 103 103 74
Width: 364
Flags: W
Fore
153 73 m 0,0,1
 188 73 188 73 212 112 c 0,2,3
 237 150 237 150 237 206 c 0,4,5
 237 235 237 235 225 251.5 c 128,-1,6
 213 268 213 268 191 268 c 0,7,8
 159 268 159 268 133 229 c 0,9,10
 108 188 108 188 108 135 c 0,11,12
 108 105 108 105 120 89 c 128,-1,13
 132 73 132 73 153 73 c 0,0,1
291 25 m 1,14,15
 276 -56 276 -56 235 -91 c 0,16,17
 195 -125 195 -125 114 -125 c 0,18,19
 85 -125 85 -125 58 -120.5 c 128,-1,20
 31 -116 31 -116 5 -108 c 1,21,-1
 21 -30 l 1,22,23
 67 -56 67 -56 118 -56 c 0,24,25
 190 -56 190 -56 203 15 c 2,26,-1
 211 54 l 1,27,28
 179 5 179 5 121 5 c 0,29,30
 74 5 74 5 47 35 c 0,31,32
 20 67 20 67 20 119 c 0,33,34
 20 161 20 161 32 201 c 0,35,36
 46 245 46 245 66 275 c 0,37,38
 88 306 88 306 117 322 c 0,39,40
 146 340 146 340 178 340 c 0,41,42
 209 340 209 340 228.5 323.5 c 128,-1,43
 248 307 248 307 254 277 c 1,44,-1
 265 330 l 1,45,-1
 351 330 l 1,46,-1
 291 25 l 1,47,-1
 291 25 l 1,14,15
EndSplineSet
EndChar
StartChar: h
Encoding: 104 104 75
Width: 364
Flags: W
Fore
283 0 m 1,0,-1
 197 0 l 1,1,-1
 236 201 l 2,2,3
 239 218 239 218 239 232 c 0,4,5
 239 268 239 268 206 268 c 0,6,7
 155 268 155 268 140 186 c 2,8,-1
 104 0 l 1,9,-1
 17 0 l 1,10,-1
 107 459 l 1,11,-1
 193 459 l 1,12,-1
 158 281 l 1,13,14
 172 308 172 308 197 323 c 128,-1,15
 222 338 222 338 252 338 c 0,16,17
 290 338 290 338 310 318 c 128,-1,18
 330 298 330 298 330 260 c 0,19,20
 330 251 330 251 329 240 c 128,-1,21
 328 229 328 229 325 215 c 2,22,-1
 283 0 l 1,0,-1
EndSplineSet
EndChar
StartChar: i
Encoding: 105 105 76
Width: 364
Flags: W
Fore
262 330 m 1,0,-1
 211 66 l 1,1,-1
 318 66 l 1,2,-1
 306 0 l 1,3,-1
 4 0 l 1,4,-1
 17 66 l 1,5,-1
 124 66 l 1,6,-1
 163 264 l 1,7,-1
 78 264 l 1,8,-1
 91 330 l 1,9,-1
 262 330 l 1,0,-1
294 491 m 1,10,-1
 274 390 l 1,11,-1
 187 390 l 1,12,-1
 207 491 l 1,13,-1
 294 491 l 1,10,-1
EndSplineSet
EndChar
StartChar: j
Encoding: 106 106 77
Width: 364
Flags: W
Fore
216 13 m 1,0,1
 207 -39 207 -39 197 -58 c 0,2,3
 188 -79 188 -79 175 -92 c 0,4,5
 158 -109 158 -109 133 -117 c 0,6,7
 107 -125 107 -125 72 -125 c 2,8,-1
 -19 -125 l 1,9,-1
 -5 -59 l 1,10,-1
 63 -59 l 2,11,12
 91 -59 91 -59 107 -43 c 0,13,14
 123 -26 123 -26 130 13 c 2,15,-1
 179 264 l 1,16,-1
 91 264 l 1,17,-1
 104 330 l 1,18,-1
 278 330 l 1,19,-1
 216 13 l 1,20,-1
 216 13 l 1,0,1
204 390 m 1,21,-1
 223 491 l 1,22,-1
 309 491 l 1,23,-1
 290 390 l 1,24,-1
 204 390 l 1,21,-1
EndSplineSet
EndChar
StartChar: k
Encoding: 107 107 78
Width: 364
Flags: W
Fore
199 459 m 1,0,-1
 155 228 l 1,1,-1
 274 330 l 1,2,-1
 383 330 l 1,3,-1
 234 207 l 1,4,-1
 326 0 l 1,5,-1
 235 0 l 1,6,-1
 169 155 l 1,7,-1
 135 126 l 1,8,-1
 111 0 l 1,9,-1
 24 0 l 1,10,-1
 113 459 l 1,11,-1
 199 459 l 1,0,-1
EndSplineSet
EndChar
StartChar: l
Encoding: 108 108 79
Width: 364
Flags: W
Fore
184 108 m 1,0,1
 183 102 183 102 182.5 97.5 c 128,-1,2
 182 93 182 93 182 91 c 0,3,4
 182 77 182 77 191 71.5 c 128,-1,5
 200 66 200 66 223 66 c 2,6,-1
 305 66 l 1,7,-1
 292 0 l 1,8,-1
 204 0 l 2,9,10
 144 0 144 0 119 17 c 0,11,12
 94 32 94 32 94 71 c 0,13,14
 94 79 94 79 95.5 88.5 c 128,-1,15
 97 98 97 98 99 112 c 2,16,-1
 159 393 l 1,17,-1
 69 393 l 1,18,-1
 81 459 l 1,19,-1
 258 459 l 1,20,-1
 184 108 l 1,21,-1
 184 108 l 1,0,1
EndSplineSet
EndChar
StartChar: m
Encoding: 109 109 80
Width: 364
Flags: W
Fore
227 297 m 1,0,1
 237 316 237 316 255.5 327 c 128,-1,2
 274 338 274 338 297 338 c 0,3,4
 324 338 324 338 340 322 c 128,-1,5
 356 306 356 306 356 277 c 0,6,7
 356 263 356 263 354.5 249 c 128,-1,8
 353 235 353 235 348 212 c 2,9,-1
 307 0 l 1,10,-1
 236 0 l 1,11,-1
 277 212 l 2,12,13
 283 242 283 242 283 250 c 0,14,15
 283 274 283 274 262 274 c 0,16,17
 248 274 248 274 240 260 c 0,18,19
 231 248 231 248 225 212 c 2,20,-1
 184 0 l 1,21,-1
 113 0 l 1,22,-1
 155 212 l 2,23,24
 160 240 160 240 160 250 c 0,25,26
 160 274 160 274 139 274 c 0,27,28
 125 274 125 274 117 261 c 0,29,30
 113 254 113 254 109 242 c 128,-1,31
 105 230 105 230 102 212 c 2,32,-1
 61 0 l 1,33,-1
 -10 0 l 1,34,-1
 54 330 l 1,35,-1
 117 330 l 1,36,-1
 111 296 l 1,37,38
 136 338 136 338 179 338 c 0,39,40
 199 338 199 338 212 327 c 128,-1,41
 225 316 225 316 227 297 c 1,0,1
EndSplineSet
EndChar
StartChar: n
Encoding: 110 110 81
Width: 364
Flags: W
Fore
283 0 m 1,0,-1
 197 0 l 1,1,-1
 236 201 l 2,2,3
 239 218 239 218 239 232 c 0,4,5
 239 268 239 268 206 268 c 0,6,7
 182 268 182 268 165 246.5 c 128,-1,8
 148 225 148 225 140 186 c 2,9,-1
 104 0 l 1,10,-1
 17 0 l 1,11,-1
 81 330 l 1,12,-1
 168 330 l 1,13,-1
 158 281 l 1,14,15
 172 308 172 308 197 323 c 128,-1,16
 222 338 222 338 252 338 c 0,17,18
 290 338 290 338 310 318 c 128,-1,19
 330 298 330 298 330 260 c 0,20,21
 330 251 330 251 329 240 c 128,-1,22
 328 229 328 229 325 215 c 2,23,-1
 283 0 l 1,0,-1
EndSplineSet
EndChar
StartChar: o
Encoding: 111 111 82
Width: 364
Flags: W
Fore
251 202 m 0,0,1
 251 269 251 269 198 269 c 0,2,3
 163 269 163 269 137 229 c 0,4,5
 113 189 113 189 113 128 c 0,6,7
 113 96 113 96 127 78.5 c 128,-1,8
 141 61 141 61 166 61 c 0,9,10
 202 61 202 61 226 101 c 0,11,12
 251 143 251 143 251 202 c 0,0,1
26 126 m 0,13,14
 26 221 26 221 75 280 c 0,15,16
 125 339 125 339 203 339 c 0,17,18
 266 339 266 339 302 303 c 0,19,20
 338 269 338 269 338 205 c 0,21,22
 338 111 338 111 289 50 c 0,23,24
 239 -9 239 -9 161 -9 c 0,25,26
 98 -9 98 -9 62 27 c 256,27,28
 26 63 26 63 26 126 c 0,13,14
EndSplineSet
EndChar
StartChar: p
Encoding: 112 112 83
Width: 364
Flags: W
Fore
76 -126 m 1,0,-1
 -11 -126 l 1,1,-1
 78 330 l 1,2,-1
 164 330 l 1,3,-1
 155 281 l 1,4,5
 197 338 197 338 251 338 c 0,6,7
 294 338 294 338 320 306 c 0,8,9
 345 274 345 274 345 218 c 0,10,11
 345 180 345 180 336 142 c 128,-1,12
 327 104 327 104 310 72 c 0,13,14
 289 34 289 34 259 13 c 0,15,16
 226 -9 226 -9 193 -9 c 256,17,18
 160 -9 160 -9 139 9.5 c 128,-1,19
 118 28 118 28 112 61 c 1,20,-1
 76 -126 l 1,0,-1
178 62 m 0,21,22
 210 62 210 62 234 104 c 256,23,24
 258 146 258 146 258 205 c 0,25,26
 258 235 258 235 246 251.5 c 128,-1,27
 234 268 234 268 212 268 c 0,28,29
 179 268 179 268 153 227 c 0,30,31
 129 185 129 185 129 127 c 0,32,33
 129 96 129 96 142 79 c 128,-1,34
 155 62 155 62 178 62 c 0,21,22
EndSplineSet
EndChar
StartChar: q
Encoding: 113 113 84
Width: 364
Flags: W
Fore
263 330 m 1,0,-1
 350 330 l 1,1,-1
 261 -126 l 1,2,-1
 175 -126 l 1,3,-1
 209 49 l 1,4,5
 190 21 190 21 166 6 c 128,-1,6
 142 -9 142 -9 114 -9 c 0,7,8
 71 -9 71 -9 45 24 c 0,9,10
 20 55 20 55 20 112 c 0,11,12
 20 150 20 150 29 188 c 128,-1,13
 38 226 38 226 55 258 c 0,14,15
 76 296 76 296 106 317 c 0,16,17
 137 339 137 339 171 339 c 0,18,19
 204 339 204 339 225.5 320.5 c 128,-1,20
 247 302 247 302 252 269 c 1,21,-1
 263 330 l 1,0,-1
187 268 m 0,22,23
 154 268 154 268 130 226 c 0,24,25
 107 185 107 185 107 125 c 0,26,27
 107 96 107 96 119 79 c 128,-1,28
 131 62 131 62 153 62 c 0,29,30
 187 62 187 62 211 103 c 0,31,32
 236 145 236 145 236 202 c 0,33,34
 236 233 236 233 223 250.5 c 128,-1,35
 210 268 210 268 187 268 c 0,22,23
EndSplineSet
EndChar
StartChar: r
Encoding: 114 114 85
Width: 364
Flags: W
Fore
346 240 m 1,0,1
 318 265 318 265 276 265 c 0,2,3
 226 265 226 265 200 239 c 256,4,5
 174 213 174 213 162 152 c 2,6,-1
 132 0 l 1,7,-1
 45 0 l 1,8,-1
 110 330 l 1,9,-1
 196 330 l 1,10,-1
 186 279 l 1,11,12
 225 338 225 338 298 338 c 0,13,14
 335 338 335 338 362 322 c 1,15,-1
 346 240 l 1,16,-1
 346 240 l 1,0,1
EndSplineSet
EndChar
StartChar: s
Encoding: 115 115 86
Width: 364
Flags: W
Fore
308 245 m 1,0,1
 262 277 262 277 207 277 c 0,2,3
 179 277 179 277 163 266.5 c 128,-1,4
 147 256 147 256 147 239 c 0,5,6
 147 225 147 225 158 217 c 0,7,8
 168 210 168 210 207 198 c 2,9,-1
 228 192 l 2,10,11
 266 181 266 181 283.5 160.5 c 128,-1,12
 301 140 301 140 301 106 c 0,13,14
 301 52 301 52 260 22 c 0,15,16
 220 -9 220 -9 148 -9 c 0,17,18
 84 -9 84 -9 27 12 c 1,19,-1
 42 88 l 1,20,21
 68 71 68 71 95.5 62.5 c 128,-1,22
 123 54 123 54 150 54 c 0,23,24
 183 54 183 54 201 65 c 128,-1,25
 219 76 219 76 219 96 c 0,26,27
 219 110 219 110 210 117 c 0,28,29
 202 124 202 124 162 136 c 2,30,-1
 136 143 l 2,31,32
 66 163 66 163 66 228 c 0,33,34
 66 276 66 276 106 308 c 0,35,36
 147 338 147 338 213 338 c 0,37,38
 268 338 268 338 323 320 c 1,39,-1
 308 245 l 1,0,1
EndSplineSet
EndChar
StartChar: t
Encoding: 116 116 87
Width: 364
Flags: W
Fore
232 330 m 1,0,-1
 345 330 l 1,1,-1
 332 264 l 1,2,-1
 219 264 l 1,3,-1
 189 108 l 2,4,5
 186 96 186 96 186 91 c 0,6,7
 186 77 186 77 195 71.5 c 128,-1,8
 204 66 204 66 227 66 c 2,9,-1
 294 66 l 1,10,-1
 281 0 l 1,11,-1
 209 0 l 2,12,13
 148 0 148 0 123 16 c 256,14,15
 98 32 98 32 98 71 c 0,16,17
 98 77 98 77 99.5 87 c 128,-1,18
 101 97 101 97 103 112 c 2,19,-1
 133 264 l 1,20,-1
 48 264 l 1,21,-1
 61 330 l 1,22,-1
 146 330 l 1,23,-1
 164 424 l 1,24,-1
 250 424 l 1,25,-1
 232 330 l 1,0,-1
EndSplineSet
EndChar
StartChar: u
Encoding: 117 117 88
Width: 364
Flags: W
Fore
78 330 m 1,0,-1
 164 330 l 1,1,-1
 126 129 l 2,2,3
 123 113 123 113 123 98 c 0,4,5
 123 62 123 62 156 62 c 0,6,7
 205 62 205 62 222 144 c 2,8,-1
 258 330 l 1,9,-1
 344 330 l 1,10,-1
 280 0 l 1,11,-1
 193 0 l 1,12,-1
 203 49 l 1,13,14
 189 21 189 21 165 7 c 0,15,16
 140 -9 140 -9 110 -9 c 0,17,18
 72 -9 72 -9 51.5 12 c 128,-1,19
 31 33 31 33 31 72 c 0,20,21
 31 80 31 80 32.5 90.5 c 128,-1,22
 34 101 34 101 36 115 c 2,23,-1
 78 330 l 1,0,-1
EndSplineSet
EndChar
StartChar: v
Encoding: 118 118 89
Width: 364
Flags: W
Fore
201 0 m 1,0,-1
 92 0 l 1,1,-1
 51 330 l 1,2,-1
 134 330 l 1,3,-1
 158 71 l 1,4,-1
 273 330 l 1,5,-1
 363 330 l 1,6,-1
 201 0 l 1,0,-1
EndSplineSet
EndChar
StartChar: w
Encoding: 119 119 90
Width: 364
Flags: W
Fore
99 330 m 1,0,-1
 89 77 l 1,1,-1
 156 244 l 1,2,-1
 224 244 l 1,3,-1
 231 77 l 1,4,-1
 317 330 l 1,5,-1
 391 330 l 1,6,-1
 268 0 l 1,7,-1
 185 0 l 1,8,-1
 179 174 l 1,9,-1
 109 0 l 1,10,-1
 27 0 l 1,11,-1
 28 330 l 1,12,-1
 99 330 l 1,0,-1
EndSplineSet
EndChar
StartChar: x
Encoding: 120 120 91
Width: 364
Flags: W
Fore
221 167 m 1,0,-1
 303 0 l 1,1,-1
 215 0 l 1,2,-1
 165 105 l 1,3,-1
 76 0 l 1,4,-1
 -22 0 l 1,5,-1
 129 175 l 1,6,-1
 53 330 l 1,7,-1
 141 330 l 1,8,-1
 185 237 l 1,9,-1
 264 330 l 1,10,-1
 362 330 l 1,11,-1
 221 167 l 1,0,-1
EndSplineSet
EndChar
StartChar: y
Encoding: 121 121 92
Width: 364
Flags: W
Fore
163 -36 m 1,0,1
 146 -65 146 -65 132 -83 c 128,-1,2
 118 -101 118 -101 105 -109 c 0,3,4
 82 -125 82 -125 44 -125 c 2,5,-1
 -27 -125 l 1,6,-1
 -13 -59 l 1,7,-1
 21 -59 l 2,8,9
 47 -59 47 -59 62 -50 c 0,10,11
 76 -42 76 -42 94 -9 c 2,12,-1
 106 13 l 1,13,-1
 42 330 l 1,14,-1
 129 330 l 1,15,-1
 167 124 l 1,16,-1
 280 330 l 1,17,-1
 371 330 l 1,18,-1
 163 -36 l 1,19,-1
 163 -36 l 1,0,1
EndSplineSet
EndChar
StartChar: z
Encoding: 122 122 93
Width: 364
Flags: W
Fore
350 330 m 1,0,-1
 337 263 l 1,1,-1
 129 65 l 1,2,-1
 299 65 l 1,3,-1
 286 0 l 1,4,-1
 14 0 l 1,5,-1
 28 68 l 1,6,-1
 236 266 l 1,7,-1
 74 266 l 1,8,-1
 86 330 l 1,9,-1
 350 330 l 1,0,-1
EndSplineSet
EndChar
StartChar: braceleft
Encoding: 123 123 94
Width: 364
Flags: W
Fore
248 -99 m 1,0,-1
 205 -99 l 2,1,2
 148 -99 148 -99 122 -82 c 0,3,4
 97 -66 97 -66 97 -30 c 0,5,6
 97 -22 97 -22 98 -14.5 c 128,-1,7
 99 -7 99 -7 103 10 c 2,8,-1
 115 74 l 2,9,10
 118 88 118 88 119 97 c 128,-1,11
 120 106 120 106 120 112 c 0,12,13
 120 135 120 135 106 143 c 0,14,15
 93 152 93 152 57 152 c 2,16,-1
 39 152 l 1,17,-1
 50 209 l 1,18,-1
 68 209 l 2,19,20
 110 209 110 209 129 225 c 0,21,22
 147 242 147 242 156 287 c 2,23,-1
 168 350 l 2,24,25
 182 418 182 418 209 438 c 0,26,27
 236 459 236 459 313 459 c 2,28,-1
 357 459 l 1,29,-1
 346 403 l 1,30,-1
 310 403 l 2,31,32
 279 403 279 403 266 390 c 0,33,34
 260 384 260 384 254.5 370.5 c 128,-1,35
 249 357 249 357 245 336 c 2,36,-1
 234 274 l 2,37,38
 225 227 225 227 206 205 c 0,39,40
 188 186 188 186 149 181 c 1,41,42
 178 174 178 174 190 161.5 c 128,-1,43
 202 149 202 149 202 126 c 0,44,45
 202 111 202 111 197 86 c 2,46,-1
 185 25 l 2,47,48
 182 11 182 11 181 3 c 128,-1,49
 180 -5 180 -5 180 -10 c 0,50,51
 180 -27 180 -27 190 -34.5 c 128,-1,52
 200 -42 200 -42 224 -42 c 2,53,-1
 259 -42 l 1,54,-1
 248 -99 l 1,0,-1
EndSplineSet
EndChar
StartChar: bar
Encoding: 124 124 95
Width: 364
Flags: W
Fore
215 -142 m 1,0,-1
 148 -142 l 1,1,-1
 148 462 l 1,2,-1
 215 462 l 1,3,-1
 215 -142 l 1,0,-1
EndSplineSet
EndChar
StartChar: braceright
Encoding: 125 125 96
Width: 364
Flags: W
Fore
38 -42 m 2,0,1
 69 -42 69 -42 81 -30 c 0,2,3
 94 -17 94 -17 103 25 c 2,4,-1
 114 86 l 2,5,6
 123 133 123 133 142 155 c 0,7,8
 162 175 162 175 199 181 c 1,9,10
 171 186 171 186 158.5 198 c 128,-1,11
 146 210 146 210 146 233 c 0,12,13
 146 241 146 241 147.5 251.5 c 128,-1,14
 149 262 149 262 151 274 c 2,15,-1
 163 336 l 2,16,17
 166 350 166 350 167 358 c 128,-1,18
 168 366 168 366 168 371 c 0,19,20
 168 388 168 388 158 395.5 c 128,-1,21
 148 403 148 403 124 403 c 2,22,-1
 89 403 l 1,23,-1
 100 459 l 1,24,-1
 143 459 l 2,25,26
 203 459 203 459 228 445 c 0,27,28
 252 430 252 430 252 397 c 0,29,30
 252 387 252 387 246 355 c 2,31,-1
 245 350 l 1,32,-1
 233 287 l 2,33,34
 231 277 231 277 230 268.5 c 128,-1,35
 229 260 229 260 229 254 c 0,36,37
 229 230 229 230 243 219 c 0,38,39
 256 209 256 209 291 209 c 2,40,-1
 309 209 l 1,41,-1
 299 152 l 1,42,-1
 280 152 l 2,43,44
 237 152 237 152 219 135 c 0,45,46
 200 118 200 118 191 74 c 2,47,-1
 179 10 l 2,48,49
 167 -55 167 -55 137 -77 c 256,50,51
 107 -99 107 -99 35 -99 c 2,52,-1
 -9 -99 l 1,53,-1
 2 -42 l 1,54,-1
 38 -42 l 2,0,1
EndSplineSet
EndChar
StartChar: asciitilde
Encoding: 126 126 97
Width: 364
Flags: W
Fore
338 171 m 1,0,1
 315 153 315 153 294 145 c 128,-1,2
 273 137 273 137 250 137 c 0,3,4
 223 137 223 137 190 152 c 0,5,6
 187 154 187 154 185 154.5 c 128,-1,7
 183 155 183 155 181 156 c 0,8,9
 158 166 158 166 142 169 c 0,10,11
 129 173 129 173 112 173 c 0,12,13
 68 173 68 173 26 137 c 1,14,-1
 26 205 l 1,15,16
 49 223 49 223 70.5 231 c 128,-1,17
 92 239 92 239 117 239 c 0,18,19
 125 239 125 239 132 238 c 128,-1,20
 139 237 139 237 147 235 c 0,21,22
 162 232 162 232 183 223 c 0,23,24
 189 221 189 221 193 219 c 0,25,26
 229 202 229 202 255 202 c 0,27,28
 295 202 295 202 338 239 c 1,29,-1
 338 171 l 1,0,1
EndSplineSet
EndChar
StartChar: Adieresis
Encoding: 196 196 98
Width: 364
Flags: W
Fore
134 181 m 1,0,-1
 217 181 l 1,1,-1
 212 360 l 1,2,-1
 134 181 l 1,0,-1
278 440 m 1,3,-1
 311 0 l 1,4,-1
 225 0 l 1,5,-1
 221 109 l 1,6,-1
 103 109 l 1,7,-1
 55 0 l 1,8,-1
 -33 0 l 1,9,-1
 172 440 l 1,10,-1
 278 440 l 1,3,-1
335 560 m 1,11,-1
 321 488 l 1,12,-1
 251 488 l 1,13,-1
 265 560 l 1,14,-1
 335 560 l 1,11,-1
218 560 m 1,15,-1
 204 488 l 1,16,-1
 134 488 l 1,17,-1
 149 560 l 1,18,-1
 218 560 l 1,15,-1
EndSplineSet
EndChar
StartChar: Aring
Encoding: 197 197 99
Width: 364
Flags: W
Fore
184 477 m 0,0,1
 184 462 184 462 195 449 c 1,2,3
 208 438 208 438 222 438 c 0,4,5
 237 438 237 438 250 449 c 1,6,7
 261 462 261 462 261 477 c 0,8,9
 261 491 261 491 250 504 c 0,10,11
 239 515 239 515 222 515 c 0,12,13
 206 515 206 515 195 504 c 0,14,15
 184 491 184 491 184 477 c 0,0,1
311 0 m 1,16,-1
 224 0 l 1,17,-1
 218 109 l 1,18,-1
 101 109 l 1,19,-1
 54 0 l 1,20,-1
 -33 0 l 1,21,-1
 161 419 l 1,22,23
 150 430 150 430 144 445.5 c 128,-1,24
 138 461 138 461 138 477 c 0,25,26
 138 509 138 509 163 536 c 0,27,28
 187 561 187 561 222 561 c 256,29,30
 257 561 257 561 281 536 c 0,31,32
 306 511 306 511 306 477 c 0,33,34
 306 440 306 440 280 416 c 1,35,-1
 311 0 l 1,16,-1
133 181 m 1,36,-1
 215 181 l 1,37,-1
 209 361 l 1,38,-1
 133 181 l 1,36,-1
EndSplineSet
EndChar
StartChar: Ccedilla
Encoding: 199 199 100
Width: 364
Flags: W
Fore
279 13 m 1,0,1
 232 -9 232 -9 184 -9 c 0,2,3
 113 -9 113 -9 76 31.5 c 128,-1,4
 39 72 39 72 39 149 c 0,5,6
 39 183 39 183 43.5 215.5 c 128,-1,7
 48 248 48 248 59 279 c 0,8,9
 80 341 80 341 116 382 c 0,10,11
 145 415 145 415 183 431.5 c 128,-1,12
 221 448 221 448 266 448 c 0,13,14
 314 448 314 448 360 427 c 1,15,-1
 341 330 l 1,16,17
 311 371 311 371 257 371 c 0,18,19
 234 371 234 371 211.5 356.5 c 128,-1,20
 189 342 189 342 172 317 c 0,21,22
 152 285 152 285 139 241 c 0,23,24
 127 198 127 198 127 157 c 0,25,26
 127 113 127 113 145.5 90.5 c 128,-1,27
 164 68 164 68 199 68 c 0,28,29
 223 68 223 68 246.5 78 c 128,-1,30
 270 88 270 88 298 109 c 1,31,-1
 279 13 l 1,32,-1
 279 13 l 1,0,1
202 0 m 1,33,34
 223 -29 223 -29 223 -54 c 0,35,36
 223 -83 223 -83 200 -101 c 0,37,38
 177 -118 177 -118 140 -118 c 0,39,40
 107 -118 107 -118 80 -111 c 1,41,-1
 88 -65 l 1,42,43
 116 -75 116 -75 135 -75 c 0,44,45
 177 -75 177 -75 177 -44 c 0,46,47
 177 -31 177 -31 160 0 c 1,48,-1
 202 0 l 1,49,-1
 202 0 l 1,33,34
EndSplineSet
EndChar
StartChar: Eacute
Encoding: 201 201 101
Width: 364
Flags: W
Fore
9 0 m 1,0,-1
 94 440 l 1,1,-1
 368 440 l 1,2,-1
 353 364 l 1,3,-1
 166 364 l 1,4,-1
 148 269 l 1,5,-1
 317 269 l 1,6,-1
 303 192 l 1,7,-1
 133 192 l 1,8,-1
 111 77 l 1,9,-1
 298 77 l 1,10,-1
 283 0 l 1,11,-1
 9 0 l 1,0,-1
348 560 m 1,12,-1
 254 482 l 1,13,-1
 193 482 l 1,14,-1
 265 560 l 1,15,-1
 348 560 l 1,12,-1
EndSplineSet
EndChar
StartChar: Ntilde
Encoding: 209 209 102
Width: 364
Flags: W
Fore
168 440 m 1,0,-1
 231 120 l 1,1,-1
 294 440 l 1,2,-1
 370 440 l 1,3,-1
 285 0 l 1,4,-1
 199 0 l 1,5,-1
 132 320 l 1,6,-1
 70 0 l 1,7,-1
 -7 0 l 1,8,-1
 78 440 l 1,9,-1
 168 440 l 1,0,-1
216 508 m 2,10,11
 209 514 209 514 204 516 c 128,-1,12
 199 518 199 518 194 518 c 0,13,14
 183 518 183 518 175.5 508.5 c 128,-1,15
 168 499 168 499 165 482 c 1,16,-1
 124 482 l 1,17,18
 132 520 132 520 151 540.5 c 128,-1,19
 170 561 170 561 199 561 c 0,20,21
 218 561 218 561 239 546 c 2,22,-1
 255 534 l 2,23,24
 265 526 265 526 275 526 c 0,25,26
 299 526 299 526 305 561 c 1,27,-1
 345 561 l 1,28,29
 330 482 330 482 272 482 c 0,30,31
 261 482 261 482 251.5 485.5 c 128,-1,32
 242 489 242 489 231 497 c 2,33,-1
 216 508 l 2,10,11
EndSplineSet
EndChar
StartChar: Odieresis
Encoding: 214 214 103
Width: 364
Flags: W
Fore
256 301 m 0,0,1
 256 372 256 372 209 372 c 0,2,3
 172 372 172 372 151 330 c 0,4,5
 144 319 144 319 138 300 c 128,-1,6
 132 281 132 281 125 254 c 0,7,8
 108 184 108 184 108 139 c 0,9,10
 108 69 108 69 155 69 c 0,11,12
 190 69 190 69 213 110 c 0,13,14
 227 136 227 136 239 186 c 0,15,16
 256 256 256 256 256 301 c 0,0,1
18 137 m 0,17,18
 18 196 18 196 33 257 c 0,19,20
 40 287 40 287 50 313.5 c 128,-1,21
 60 340 60 340 73 363 c 0,22,23
 96 405 96 405 132.5 426.5 c 128,-1,24
 169 448 169 448 215 448 c 0,25,26
 279 448 279 448 312 411 c 128,-1,27
 345 374 345 374 345 304 c 0,28,29
 345 274 345 274 342 244 c 128,-1,30
 339 214 339 214 331 183 c 0,31,32
 316 123 316 123 292 78 c 0,33,34
 269 36 269 36 232 13.5 c 128,-1,35
 195 -9 195 -9 149 -9 c 0,36,37
 84 -9 84 -9 51 28 c 128,-1,38
 18 65 18 65 18 137 c 0,17,18
335 560 m 1,39,-1
 321 488 l 1,40,-1
 251 488 l 1,41,-1
 265 560 l 1,42,-1
 335 560 l 1,39,-1
218 560 m 1,43,-1
 204 488 l 1,44,-1
 134 488 l 1,45,-1
 149 560 l 1,46,-1
 218 560 l 1,43,-1
EndSplineSet
EndChar
StartChar: Udieresis
Encoding: 220 220 104
Width: 364
Flags: W
Fore
74 440 m 1,0,-1
 161 440 l 1,1,-1
 103 141 l 2,2,3
 103 140 103 140 102 139 c 1,4,5
 101 132 101 132 100.5 127 c 128,-1,6
 100 122 100 122 100 119 c 0,7,8
 100 95 100 95 113.5 81.5 c 128,-1,9
 127 68 127 68 152 68 c 0,10,11
 215 68 215 68 230 141 c 2,12,-1
 288 440 l 1,13,-1
 375 440 l 1,14,-1
 321 163 l 2,15,16
 310 107 310 107 299 82 c 0,17,18
 287 55 287 55 268 36 c 0,19,20
 221 -9 221 -9 148 -9 c 0,21,22
 82 -9 82 -9 47.5 20.5 c 128,-1,23
 13 50 13 50 13 104 c 0,24,25
 13 116 13 116 14.5 131 c 128,-1,26
 16 146 16 146 20 163 c 2,27,-1
 74 440 l 1,0,-1
336 560 m 1,28,-1
 322 488 l 1,29,-1
 253 488 l 1,30,-1
 267 560 l 1,31,-1
 336 560 l 1,28,-1
220 560 m 1,32,-1
 205 488 l 1,33,-1
 136 488 l 1,34,-1
 150 560 l 1,35,-1
 220 560 l 1,32,-1
EndSplineSet
EndChar
StartChar: aacute
Encoding: 225 225 105
Width: 364
Flags: W
Fore
204 156 m 1,0,1
 104 156 104 156 104 94 c 0,2,3
 104 75 104 75 116 63 c 128,-1,4
 128 51 128 51 146 51 c 0,5,6
 181 51 181 51 204.5 78 c 128,-1,7
 228 105 228 105 237 156 c 1,8,-1
 204 156 l 1,9,-1
 204 156 l 1,0,1
292 0 m 1,10,-1
 207 0 l 1,11,-1
 214 37 l 1,12,13
 175 -9 175 -9 111 -9 c 0,14,15
 66 -9 66 -9 40 17 c 256,16,17
 14 43 14 43 14 87 c 0,18,19
 14 151 14 151 59.5 184 c 128,-1,20
 105 217 105 217 192 217 c 2,21,-1
 249 217 l 1,22,-1
 251 232 l 1,23,24
 252 234 252 234 252 240 c 0,25,26
 252 275 252 275 193 275 c 0,27,28
 169 275 169 275 138.5 267 c 128,-1,29
 108 259 108 259 73 242 c 1,30,-1
 87 315 l 1,31,32
 152 338 152 338 207 338 c 0,33,34
 337 338 337 338 337 250 c 0,35,36
 337 229 337 229 329 189 c 2,37,-1
 292 0 l 1,10,-1
366 483 m 1,38,-1
 235 372 l 1,39,-1
 177 372 l 1,40,-1
 271 483 l 1,41,-1
 366 483 l 1,38,-1
EndSplineSet
EndChar
StartChar: agrave
Encoding: 224 224 106
Width: 364
Flags: W
Fore
204 156 m 1,0,1
 104 156 104 156 104 94 c 0,2,3
 104 75 104 75 116 63 c 128,-1,4
 128 51 128 51 146 51 c 0,5,6
 181 51 181 51 204.5 78 c 128,-1,7
 228 105 228 105 237 156 c 1,8,-1
 204 156 l 1,9,-1
 204 156 l 1,0,1
292 0 m 1,10,-1
 207 0 l 1,11,-1
 214 37 l 1,12,13
 175 -9 175 -9 111 -9 c 0,14,15
 66 -9 66 -9 40 17 c 256,16,17
 14 43 14 43 14 87 c 0,18,19
 14 151 14 151 59.5 184 c 128,-1,20
 105 217 105 217 192 217 c 2,21,-1
 249 217 l 1,22,-1
 251 232 l 1,23,24
 252 234 252 234 252 240 c 0,25,26
 252 275 252 275 193 275 c 0,27,28
 169 275 169 275 138.5 267 c 128,-1,29
 108 259 108 259 73 242 c 1,30,-1
 87 315 l 1,31,32
 152 338 152 338 207 338 c 0,33,34
 337 338 337 338 337 250 c 0,35,36
 337 229 337 229 329 189 c 2,37,-1
 292 0 l 1,10,-1
264 372 m 1,38,-1
 206 372 l 1,39,-1
 119 483 l 1,40,-1
 202 483 l 1,41,-1
 264 372 l 1,38,-1
EndSplineSet
EndChar
StartChar: acircumflex
Encoding: 226 226 107
Width: 364
Flags: W
Fore
204 156 m 1,0,1
 104 156 104 156 104 94 c 0,2,3
 104 75 104 75 116 63 c 128,-1,4
 128 51 128 51 146 51 c 0,5,6
 181 51 181 51 204.5 78 c 128,-1,7
 228 105 228 105 237 156 c 1,8,-1
 204 156 l 1,9,-1
 204 156 l 1,0,1
292 0 m 1,10,-1
 207 0 l 1,11,-1
 214 37 l 1,12,13
 175 -9 175 -9 111 -9 c 0,14,15
 66 -9 66 -9 40 17 c 256,16,17
 14 43 14 43 14 87 c 0,18,19
 14 151 14 151 59.5 184 c 128,-1,20
 105 217 105 217 192 217 c 2,21,-1
 249 217 l 1,22,-1
 251 232 l 1,23,24
 252 234 252 234 252 240 c 0,25,26
 252 275 252 275 193 275 c 0,27,28
 169 275 169 275 138.5 267 c 128,-1,29
 108 259 108 259 73 242 c 1,30,-1
 87 315 l 1,31,32
 152 338 152 338 207 338 c 0,33,34
 337 338 337 338 337 250 c 0,35,36
 337 229 337 229 329 189 c 2,37,-1
 292 0 l 1,10,-1
278 483 m 1,38,-1
 332 372 l 1,39,-1
 280 372 l 1,40,-1
 235 439 l 1,41,-1
 164 372 l 1,42,-1
 108 372 l 1,43,-1
 206 483 l 1,44,-1
 278 483 l 1,38,-1
EndSplineSet
EndChar
StartChar: adieresis
Encoding: 228 228 108
Width: 364
Flags: W
Fore
204 156 m 1,0,1
 104 156 104 156 104 94 c 0,2,3
 104 75 104 75 116 63 c 128,-1,4
 128 51 128 51 146 51 c 0,5,6
 181 51 181 51 204.5 78 c 128,-1,7
 228 105 228 105 237 156 c 1,8,-1
 204 156 l 1,9,-1
 204 156 l 1,0,1
292 0 m 1,10,-1
 207 0 l 1,11,-1
 214 37 l 1,12,13
 175 -9 175 -9 111 -9 c 0,14,15
 66 -9 66 -9 40 17 c 256,16,17
 14 43 14 43 14 87 c 0,18,19
 14 151 14 151 59.5 184 c 128,-1,20
 105 217 105 217 192 217 c 2,21,-1
 249 217 l 1,22,-1
 251 232 l 1,23,24
 252 234 252 234 252 240 c 0,25,26
 252 275 252 275 193 275 c 0,27,28
 169 275 169 275 138.5 267 c 128,-1,29
 108 259 108 259 73 242 c 1,30,-1
 87 315 l 1,31,32
 152 338 152 338 207 338 c 0,33,34
 337 338 337 338 337 250 c 0,35,36
 337 229 337 229 329 189 c 2,37,-1
 292 0 l 1,10,-1
332 468 m 1,38,-1
 318 395 l 1,39,-1
 248 395 l 1,40,-1
 262 468 l 1,41,-1
 332 468 l 1,38,-1
216 468 m 1,42,-1
 201 395 l 1,43,-1
 132 395 l 1,44,-1
 146 468 l 1,45,-1
 216 468 l 1,42,-1
EndSplineSet
EndChar
StartChar: atilde
Encoding: 227 227 109
Width: 364
Flags: W
Fore
204 156 m 1,0,1
 104 156 104 156 104 94 c 0,2,3
 104 75 104 75 116 63 c 128,-1,4
 128 51 128 51 146 51 c 0,5,6
 181 51 181 51 204.5 78 c 128,-1,7
 228 105 228 105 237 156 c 1,8,-1
 204 156 l 1,9,-1
 204 156 l 1,0,1
292 0 m 1,10,-1
 207 0 l 1,11,-1
 214 37 l 1,12,13
 175 -9 175 -9 111 -9 c 0,14,15
 66 -9 66 -9 40 17 c 256,16,17
 14 43 14 43 14 87 c 0,18,19
 14 151 14 151 59.5 184 c 128,-1,20
 105 217 105 217 192 217 c 2,21,-1
 249 217 l 1,22,-1
 251 232 l 1,23,24
 252 234 252 234 252 240 c 0,25,26
 252 275 252 275 193 275 c 0,27,28
 169 275 169 275 138.5 267 c 128,-1,29
 108 259 108 259 73 242 c 1,30,-1
 87 315 l 1,31,32
 152 338 152 338 207 338 c 0,33,34
 337 338 337 338 337 250 c 0,35,36
 337 229 337 229 329 189 c 2,37,-1
 292 0 l 1,10,-1
213 413 m 2,38,39
 212 414 212 414 211 414 c 1,40,41
 200 424 200 424 190 424 c 0,42,43
 167 424 167 424 161 386 c 1,44,-1
 120 386 l 1,45,46
 126 424 126 424 146 447 c 256,47,48
 166 470 166 470 194 470 c 0,49,50
 204 470 204 470 213 466.5 c 128,-1,51
 222 463 222 463 236 452 c 2,52,-1
 251 440 l 2,53,54
 256 436 256 436 261.5 433.5 c 128,-1,55
 267 431 267 431 271 431 c 0,56,57
 295 431 295 431 301 469 c 1,58,-1
 342 469 l 1,59,60
 328 386 328 386 268 386 c 0,61,62
 258 386 258 386 248.5 389.5 c 128,-1,63
 239 393 239 393 227 402 c 2,64,-1
 213 413 l 2,38,39
EndSplineSet
EndChar
StartChar: aring
Encoding: 229 229 110
Width: 364
Flags: W
Fore
204 156 m 1,0,1
 104 156 104 156 104 94 c 0,2,3
 104 75 104 75 116 63 c 128,-1,4
 128 51 128 51 146 51 c 0,5,6
 181 51 181 51 204.5 78 c 128,-1,7
 228 105 228 105 237 156 c 1,8,-1
 204 156 l 1,9,-1
 204 156 l 1,0,1
292 0 m 1,10,-1
 207 0 l 1,11,-1
 214 37 l 1,12,13
 175 -9 175 -9 111 -9 c 0,14,15
 66 -9 66 -9 40 17 c 256,16,17
 14 43 14 43 14 87 c 0,18,19
 14 151 14 151 59.5 184 c 128,-1,20
 105 217 105 217 192 217 c 2,21,-1
 249 217 l 1,22,-1
 251 232 l 1,23,24
 252 234 252 234 252 240 c 0,25,26
 252 275 252 275 193 275 c 0,27,28
 169 275 169 275 138.5 267 c 128,-1,29
 108 259 108 259 73 242 c 1,30,-1
 87 315 l 1,31,32
 152 338 152 338 207 338 c 0,33,34
 337 338 337 338 337 250 c 0,35,36
 337 229 337 229 329 189 c 2,37,-1
 292 0 l 1,10,-1
146 453 m 0,38,39
 146 488 146 488 170 512 c 0,40,41
 195 537 195 537 230 537 c 0,42,43
 264 537 264 537 289 512 c 256,44,45
 314 487 314 487 314 453 c 0,46,47
 314 418 314 418 289 393 c 256,48,49
 264 368 264 368 230 368 c 0,50,51
 195 368 195 368 170 393 c 0,52,53
 146 417 146 417 146 453 c 0,38,39
191 453 m 0,54,55
 191 436 191 436 202 425 c 0,56,57
 215 414 215 414 230 414 c 0,58,59
 246 414 246 414 257 425 c 256,60,61
 268 436 268 436 268 453 c 0,62,63
 268 469 268 469 257 480 c 0,64,65
 244 491 244 491 230 491 c 0,66,67
 215 491 215 491 202 480 c 1,68,69
 191 467 191 467 191 453 c 0,54,55
EndSplineSet
EndChar
StartChar: ccedilla
Encoding: 231 231 111
Width: 364
Flags: W
Fore
282 11 m 1,0,1
 236 -9 236 -9 187 -9 c 0,2,3
 121 -9 121 -9 82 28 c 0,4,5
 44 66 44 66 44 128 c 0,6,7
 44 222 44 222 98 280 c 0,8,9
 153 338 153 338 240 338 c 0,10,11
 298 338 298 338 341 314 c 1,12,-1
 326 235 l 1,13,14
 290 268 290 268 245 268 c 0,15,16
 195 268 195 268 163 232 c 0,17,18
 132 195 132 195 132 137 c 0,19,20
 132 62 132 62 204 62 c 0,21,22
 245 62 245 62 299 92 c 1,23,-1
 282 11 l 1,24,-1
 282 11 l 1,0,1
209 0 m 1,25,26
 230 -29 230 -29 230 -54 c 0,27,28
 230 -83 230 -83 207 -101 c 0,29,30
 184 -118 184 -118 147 -118 c 0,31,32
 114 -118 114 -118 87 -111 c 1,33,-1
 95 -65 l 1,34,35
 123 -75 123 -75 142 -75 c 0,36,37
 184 -75 184 -75 184 -44 c 0,38,39
 184 -31 184 -31 167 0 c 1,40,-1
 209 0 l 1,41,-1
 209 0 l 1,25,26
EndSplineSet
EndChar
StartChar: eacute
Encoding: 233 233 112
Width: 364
Flags: W
Fore
293 16 m 1,0,1
 234 -9 234 -9 172 -9 c 0,2,3
 98 -9 98 -9 60 26 c 128,-1,4
 22 61 22 61 22 129 c 0,5,6
 22 149 22 149 25.5 169 c 128,-1,7
 29 189 29 189 35 209 c 0,8,9
 49 250 49 250 72 277 c 0,10,11
 123 339 123 339 205 339 c 0,12,13
 266 339 266 339 304 304 c 0,14,15
 341 267 341 267 341 210 c 0,16,17
 341 196 341 196 339 179 c 128,-1,18
 337 162 337 162 333 137 c 1,19,-1
 109 137 l 1,20,21
 108 132 108 132 107.5 128 c 128,-1,22
 107 124 107 124 107 119 c 0,23,24
 107 60 107 60 185 60 c 0,25,26
 217 60 217 60 248.5 69 c 128,-1,27
 280 78 280 78 308 96 c 1,28,-1
 293 16 l 1,29,-1
 293 16 l 1,0,1
258 202 m 1,30,31
 260 206 260 206 260 210 c 128,-1,32
 260 214 260 214 260 217 c 0,33,34
 260 243 260 243 245 257 c 128,-1,35
 230 271 230 271 204 271 c 0,36,37
 145 271 145 271 121 202 c 1,38,-1
 258 202 l 1,39,-1
 258 202 l 1,30,31
356 483 m 1,40,-1
 226 372 l 1,41,-1
 168 372 l 1,42,-1
 262 483 l 1,43,-1
 356 483 l 1,40,-1
EndSplineSet
EndChar
StartChar: egrave
Encoding: 232 232 113
Width: 364
Flags: W
Fore
293 16 m 1,0,1
 234 -9 234 -9 172 -9 c 0,2,3
 98 -9 98 -9 60 26 c 128,-1,4
 22 61 22 61 22 129 c 0,5,6
 22 149 22 149 25.5 169 c 128,-1,7
 29 189 29 189 35 209 c 0,8,9
 49 250 49 250 72 277 c 0,10,11
 123 339 123 339 205 339 c 0,12,13
 266 339 266 339 304 304 c 0,14,15
 341 267 341 267 341 210 c 0,16,17
 341 196 341 196 339 179 c 128,-1,18
 337 162 337 162 333 137 c 1,19,-1
 109 137 l 1,20,21
 108 132 108 132 107.5 128 c 128,-1,22
 107 124 107 124 107 119 c 0,23,24
 107 60 107 60 185 60 c 0,25,26
 217 60 217 60 248.5 69 c 128,-1,27
 280 78 280 78 308 96 c 1,28,-1
 293 16 l 1,29,-1
 293 16 l 1,0,1
258 202 m 1,30,31
 260 206 260 206 260 210 c 128,-1,32
 260 214 260 214 260 217 c 0,33,34
 260 243 260 243 245 257 c 128,-1,35
 230 271 230 271 204 271 c 0,36,37
 145 271 145 271 121 202 c 1,38,-1
 258 202 l 1,39,-1
 258 202 l 1,30,31
255 372 m 1,40,-1
 196 372 l 1,41,-1
 109 483 l 1,42,-1
 193 483 l 1,43,-1
 255 372 l 1,40,-1
EndSplineSet
EndChar
StartChar: ecircumflex
Encoding: 234 234 114
Width: 364
Flags: W
Fore
293 16 m 1,0,1
 234 -9 234 -9 172 -9 c 0,2,3
 98 -9 98 -9 60 26 c 128,-1,4
 22 61 22 61 22 129 c 0,5,6
 22 149 22 149 25.5 169 c 128,-1,7
 29 189 29 189 35 209 c 0,8,9
 49 250 49 250 72 277 c 0,10,11
 123 339 123 339 205 339 c 0,12,13
 266 339 266 339 304 304 c 0,14,15
 341 267 341 267 341 210 c 0,16,17
 341 196 341 196 339 179 c 128,-1,18
 337 162 337 162 333 137 c 1,19,-1
 109 137 l 1,20,21
 108 132 108 132 107.5 128 c 128,-1,22
 107 124 107 124 107 119 c 0,23,24
 107 60 107 60 185 60 c 0,25,26
 217 60 217 60 248.5 69 c 128,-1,27
 280 78 280 78 308 96 c 1,28,-1
 293 16 l 1,29,-1
 293 16 l 1,0,1
258 202 m 1,30,31
 260 206 260 206 260 210 c 128,-1,32
 260 214 260 214 260 217 c 0,33,34
 260 243 260 243 245 257 c 128,-1,35
 230 271 230 271 204 271 c 0,36,37
 145 271 145 271 121 202 c 1,38,-1
 258 202 l 1,39,-1
 258 202 l 1,30,31
269 483 m 1,40,-1
 323 372 l 1,41,-1
 271 372 l 1,42,-1
 226 439 l 1,43,-1
 155 372 l 1,44,-1
 99 372 l 1,45,-1
 197 483 l 1,46,-1
 269 483 l 1,40,-1
EndSplineSet
EndChar
StartChar: edieresis
Encoding: 235 235 115
Width: 364
Flags: W
Fore
293 16 m 1,0,1
 234 -9 234 -9 172 -9 c 0,2,3
 98 -9 98 -9 60 26 c 128,-1,4
 22 61 22 61 22 129 c 0,5,6
 22 149 22 149 25.5 169 c 128,-1,7
 29 189 29 189 35 209 c 0,8,9
 49 250 49 250 72 277 c 0,10,11
 123 339 123 339 205 339 c 0,12,13
 266 339 266 339 304 304 c 0,14,15
 341 267 341 267 341 210 c 0,16,17
 341 196 341 196 339 179 c 128,-1,18
 337 162 337 162 333 137 c 1,19,-1
 109 137 l 1,20,21
 108 132 108 132 107.5 128 c 128,-1,22
 107 124 107 124 107 119 c 0,23,24
 107 60 107 60 185 60 c 0,25,26
 217 60 217 60 248.5 69 c 128,-1,27
 280 78 280 78 308 96 c 1,28,-1
 293 16 l 1,29,-1
 293 16 l 1,0,1
258 202 m 1,30,31
 260 206 260 206 260 210 c 128,-1,32
 260 214 260 214 260 217 c 0,33,34
 260 243 260 243 245 257 c 128,-1,35
 230 271 230 271 204 271 c 0,36,37
 145 271 145 271 121 202 c 1,38,-1
 258 202 l 1,39,-1
 258 202 l 1,30,31
323 468 m 1,40,-1
 309 395 l 1,41,-1
 239 395 l 1,42,-1
 253 468 l 1,43,-1
 323 468 l 1,40,-1
207 468 m 1,44,-1
 192 395 l 1,45,-1
 123 395 l 1,46,-1
 137 468 l 1,47,-1
 207 468 l 1,44,-1
EndSplineSet
EndChar
StartChar: iacute
Encoding: 237 237 116
Width: 364
Flags: W
Fore
262 330 m 1,0,-1
 211 66 l 1,1,-1
 318 66 l 1,2,-1
 306 0 l 1,3,-1
 4 0 l 1,4,-1
 17 66 l 1,5,-1
 124 66 l 1,6,-1
 163 264 l 1,7,-1
 78 264 l 1,8,-1
 91 330 l 1,9,-1
 262 330 l 1,0,-1
343 483 m 1,10,-1
 213 372 l 1,11,-1
 155 372 l 1,12,-1
 248 483 l 1,13,-1
 343 483 l 1,10,-1
EndSplineSet
EndChar
StartChar: igrave
Encoding: 236 236 117
Width: 364
Flags: W
Fore
262 330 m 1,0,-1
 211 66 l 1,1,-1
 318 66 l 1,2,-1
 306 0 l 1,3,-1
 4 0 l 1,4,-1
 17 66 l 1,5,-1
 124 66 l 1,6,-1
 163 264 l 1,7,-1
 78 264 l 1,8,-1
 91 330 l 1,9,-1
 262 330 l 1,0,-1
242 372 m 1,10,-1
 183 372 l 1,11,-1
 96 483 l 1,12,-1
 180 483 l 1,13,-1
 242 372 l 1,10,-1
EndSplineSet
EndChar
StartChar: icircumflex
Encoding: 238 238 118
Width: 364
Flags: W
Fore
262 330 m 1,0,-1
 211 66 l 1,1,-1
 318 66 l 1,2,-1
 306 0 l 1,3,-1
 4 0 l 1,4,-1
 17 66 l 1,5,-1
 124 66 l 1,6,-1
 163 264 l 1,7,-1
 78 264 l 1,8,-1
 91 330 l 1,9,-1
 262 330 l 1,0,-1
255 483 m 1,10,-1
 309 372 l 1,11,-1
 258 372 l 1,12,-1
 213 439 l 1,13,-1
 142 372 l 1,14,-1
 86 372 l 1,15,-1
 184 483 l 1,16,-1
 255 483 l 1,10,-1
EndSplineSet
EndChar
StartChar: idieresis
Encoding: 239 239 119
Width: 364
Flags: W
Fore
262 330 m 1,0,-1
 211 66 l 1,1,-1
 318 66 l 1,2,-1
 306 0 l 1,3,-1
 4 0 l 1,4,-1
 17 66 l 1,5,-1
 124 66 l 1,6,-1
 163 264 l 1,7,-1
 78 264 l 1,8,-1
 91 330 l 1,9,-1
 262 330 l 1,0,-1
310 468 m 1,10,-1
 296 395 l 1,11,-1
 226 395 l 1,12,-1
 240 468 l 1,13,-1
 310 468 l 1,10,-1
193 468 m 1,14,-1
 179 395 l 1,15,-1
 109 395 l 1,16,-1
 123 468 l 1,17,-1
 193 468 l 1,14,-1
EndSplineSet
EndChar
StartChar: ntilde
Encoding: 241 241 120
Width: 364
Flags: W
Fore
283 0 m 1,0,-1
 197 0 l 1,1,-1
 236 201 l 2,2,3
 239 218 239 218 239 232 c 0,4,5
 239 268 239 268 206 268 c 0,6,7
 182 268 182 268 165 246.5 c 128,-1,8
 148 225 148 225 140 186 c 2,9,-1
 104 0 l 1,10,-1
 17 0 l 1,11,-1
 81 330 l 1,12,-1
 168 330 l 1,13,-1
 158 281 l 1,14,15
 172 308 172 308 197 323 c 128,-1,16
 222 338 222 338 252 338 c 0,17,18
 290 338 290 338 310 318 c 128,-1,19
 330 298 330 298 330 260 c 0,20,21
 330 251 330 251 329 240 c 128,-1,22
 328 229 328 229 325 215 c 2,23,-1
 283 0 l 1,0,-1
204 413 m 2,24,25
 203 414 203 414 202 414 c 1,26,27
 191 424 191 424 181 424 c 0,28,29
 158 424 158 424 152 386 c 1,30,-1
 111 386 l 1,31,32
 117 424 117 424 137 447 c 256,33,34
 157 470 157 470 185 470 c 0,35,36
 195 470 195 470 204 466.5 c 128,-1,37
 213 463 213 463 227 452 c 2,38,-1
 242 440 l 2,39,40
 247 436 247 436 252 433.5 c 128,-1,41
 257 431 257 431 262 431 c 0,42,43
 286 431 286 431 292 469 c 1,44,-1
 333 469 l 1,45,46
 319 386 319 386 259 386 c 0,47,48
 248 386 248 386 239 389.5 c 128,-1,49
 230 393 230 393 218 402 c 2,50,-1
 204 413 l 2,24,25
EndSplineSet
EndChar
StartChar: oacute
Encoding: 243 243 121
Width: 364
Flags: W
Fore
251 202 m 0,0,1
 251 269 251 269 198 269 c 0,2,3
 163 269 163 269 137 229 c 0,4,5
 113 189 113 189 113 128 c 0,6,7
 113 96 113 96 127 78.5 c 128,-1,8
 141 61 141 61 166 61 c 0,9,10
 202 61 202 61 226 101 c 0,11,12
 251 143 251 143 251 202 c 0,0,1
26 126 m 0,13,14
 26 221 26 221 75 280 c 0,15,16
 125 339 125 339 203 339 c 0,17,18
 266 339 266 339 302 303 c 0,19,20
 338 269 338 269 338 205 c 0,21,22
 338 111 338 111 289 50 c 0,23,24
 239 -9 239 -9 161 -9 c 0,25,26
 98 -9 98 -9 62 27 c 256,27,28
 26 63 26 63 26 126 c 0,13,14
356 483 m 1,29,-1
 226 372 l 1,30,-1
 168 372 l 1,31,-1
 262 483 l 1,32,-1
 356 483 l 1,29,-1
EndSplineSet
EndChar
StartChar: ograve
Encoding: 242 242 122
Width: 364
Flags: W
Fore
251 202 m 0,0,1
 251 269 251 269 198 269 c 0,2,3
 163 269 163 269 137 229 c 0,4,5
 113 189 113 189 113 128 c 0,6,7
 113 96 113 96 127 78.5 c 128,-1,8
 141 61 141 61 166 61 c 0,9,10
 202 61 202 61 226 101 c 0,11,12
 251 143 251 143 251 202 c 0,0,1
26 126 m 0,13,14
 26 221 26 221 75 280 c 0,15,16
 125 339 125 339 203 339 c 0,17,18
 266 339 266 339 302 303 c 0,19,20
 338 269 338 269 338 205 c 0,21,22
 338 111 338 111 289 50 c 0,23,24
 239 -9 239 -9 161 -9 c 0,25,26
 98 -9 98 -9 62 27 c 256,27,28
 26 63 26 63 26 126 c 0,13,14
255 372 m 1,29,-1
 196 372 l 1,30,-1
 109 483 l 1,31,-1
 193 483 l 1,32,-1
 255 372 l 1,29,-1
EndSplineSet
EndChar
StartChar: ocircumflex
Encoding: 244 244 123
Width: 364
Flags: W
Fore
251 202 m 0,0,1
 251 269 251 269 198 269 c 0,2,3
 163 269 163 269 137 229 c 0,4,5
 113 189 113 189 113 128 c 0,6,7
 113 96 113 96 127 78.5 c 128,-1,8
 141 61 141 61 166 61 c 0,9,10
 202 61 202 61 226 101 c 0,11,12
 251 143 251 143 251 202 c 0,0,1
26 126 m 0,13,14
 26 221 26 221 75 280 c 0,15,16
 125 339 125 339 203 339 c 0,17,18
 266 339 266 339 302 303 c 0,19,20
 338 269 338 269 338 205 c 0,21,22
 338 111 338 111 289 50 c 0,23,24
 239 -9 239 -9 161 -9 c 0,25,26
 98 -9 98 -9 62 27 c 256,27,28
 26 63 26 63 26 126 c 0,13,14
269 483 m 1,29,-1
 323 372 l 1,30,-1
 271 372 l 1,31,-1
 226 439 l 1,32,-1
 155 372 l 1,33,-1
 99 372 l 1,34,-1
 197 483 l 1,35,-1
 269 483 l 1,29,-1
EndSplineSet
EndChar
StartChar: odieresis
Encoding: 246 246 124
Width: 364
Flags: W
Fore
251 202 m 0,0,1
 251 269 251 269 198 269 c 0,2,3
 163 269 163 269 137 229 c 0,4,5
 113 189 113 189 113 128 c 0,6,7
 113 96 113 96 127 78.5 c 128,-1,8
 141 61 141 61 166 61 c 0,9,10
 202 61 202 61 226 101 c 0,11,12
 251 143 251 143 251 202 c 0,0,1
26 126 m 0,13,14
 26 221 26 221 75 280 c 0,15,16
 125 339 125 339 203 339 c 0,17,18
 266 339 266 339 302 303 c 0,19,20
 338 269 338 269 338 205 c 0,21,22
 338 111 338 111 289 50 c 0,23,24
 239 -9 239 -9 161 -9 c 0,25,26
 98 -9 98 -9 62 27 c 256,27,28
 26 63 26 63 26 126 c 0,13,14
323 468 m 1,29,-1
 309 395 l 1,30,-1
 239 395 l 1,31,-1
 253 468 l 1,32,-1
 323 468 l 1,29,-1
207 468 m 1,33,-1
 192 395 l 1,34,-1
 123 395 l 1,35,-1
 137 468 l 1,36,-1
 207 468 l 1,33,-1
EndSplineSet
EndChar
StartChar: otilde
Encoding: 245 245 125
Width: 364
Flags: W
Fore
251 202 m 0,0,1
 251 269 251 269 198 269 c 0,2,3
 163 269 163 269 137 229 c 0,4,5
 113 189 113 189 113 128 c 0,6,7
 113 96 113 96 127 78.5 c 128,-1,8
 141 61 141 61 166 61 c 0,9,10
 202 61 202 61 226 101 c 0,11,12
 251 143 251 143 251 202 c 0,0,1
26 126 m 0,13,14
 26 221 26 221 75 280 c 0,15,16
 125 339 125 339 203 339 c 0,17,18
 266 339 266 339 302 303 c 0,19,20
 338 269 338 269 338 205 c 0,21,22
 338 111 338 111 289 50 c 0,23,24
 239 -9 239 -9 161 -9 c 0,25,26
 98 -9 98 -9 62 27 c 256,27,28
 26 63 26 63 26 126 c 0,13,14
204 413 m 2,29,30
 203 414 203 414 202 414 c 1,31,32
 191 424 191 424 181 424 c 0,33,34
 158 424 158 424 152 386 c 1,35,-1
 111 386 l 1,36,37
 117 424 117 424 137 447 c 256,38,39
 157 470 157 470 185 470 c 0,40,41
 195 470 195 470 204 466.5 c 128,-1,42
 213 463 213 463 227 452 c 2,43,-1
 242 440 l 2,44,45
 247 436 247 436 252 433.5 c 128,-1,46
 257 431 257 431 262 431 c 0,47,48
 286 431 286 431 292 469 c 1,49,-1
 333 469 l 1,50,51
 319 386 319 386 259 386 c 0,52,53
 248 386 248 386 239 389.5 c 128,-1,54
 230 393 230 393 218 402 c 2,55,-1
 204 413 l 2,29,30
EndSplineSet
EndChar
StartChar: uacute
Encoding: 250 250 126
Width: 364
Flags: W
Fore
78 330 m 1,0,-1
 164 330 l 1,1,-1
 126 129 l 2,2,3
 123 113 123 113 123 98 c 0,4,5
 123 62 123 62 156 62 c 0,6,7
 205 62 205 62 222 144 c 2,8,-1
 258 330 l 1,9,-1
 344 330 l 1,10,-1
 280 0 l 1,11,-1
 193 0 l 1,12,-1
 203 49 l 1,13,14
 189 21 189 21 165 7 c 0,15,16
 140 -9 140 -9 110 -9 c 0,17,18
 72 -9 72 -9 51.5 12 c 128,-1,19
 31 33 31 33 31 72 c 0,20,21
 31 80 31 80 32.5 90.5 c 128,-1,22
 34 101 34 101 36 115 c 2,23,-1
 78 330 l 1,0,-1
356 483 m 1,24,-1
 226 372 l 1,25,-1
 168 372 l 1,26,-1
 262 483 l 1,27,-1
 356 483 l 1,24,-1
EndSplineSet
EndChar
StartChar: ugrave
Encoding: 249 249 127
Width: 364
Flags: W
Fore
78 330 m 1,0,-1
 164 330 l 1,1,-1
 126 129 l 2,2,3
 123 113 123 113 123 98 c 0,4,5
 123 62 123 62 156 62 c 0,6,7
 205 62 205 62 222 144 c 2,8,-1
 258 330 l 1,9,-1
 344 330 l 1,10,-1
 280 0 l 1,11,-1
 193 0 l 1,12,-1
 203 49 l 1,13,14
 189 21 189 21 165 7 c 0,15,16
 140 -9 140 -9 110 -9 c 0,17,18
 72 -9 72 -9 51.5 12 c 128,-1,19
 31 33 31 33 31 72 c 0,20,21
 31 80 31 80 32.5 90.5 c 128,-1,22
 34 101 34 101 36 115 c 2,23,-1
 78 330 l 1,0,-1
255 372 m 1,24,-1
 196 372 l 1,25,-1
 109 483 l 1,26,-1
 193 483 l 1,27,-1
 255 372 l 1,24,-1
EndSplineSet
EndChar
StartChar: ucircumflex
Encoding: 251 251 128
Width: 364
Flags: W
Fore
78 330 m 1,0,-1
 164 330 l 1,1,-1
 126 129 l 2,2,3
 123 113 123 113 123 98 c 0,4,5
 123 62 123 62 156 62 c 0,6,7
 205 62 205 62 222 144 c 2,8,-1
 258 330 l 1,9,-1
 344 330 l 1,10,-1
 280 0 l 1,11,-1
 193 0 l 1,12,-1
 203 49 l 1,13,14
 189 21 189 21 165 7 c 0,15,16
 140 -9 140 -9 110 -9 c 0,17,18
 72 -9 72 -9 51.5 12 c 128,-1,19
 31 33 31 33 31 72 c 0,20,21
 31 80 31 80 32.5 90.5 c 128,-1,22
 34 101 34 101 36 115 c 2,23,-1
 78 330 l 1,0,-1
269 483 m 1,24,-1
 323 372 l 1,25,-1
 271 372 l 1,26,-1
 226 439 l 1,27,-1
 155 372 l 1,28,-1
 99 372 l 1,29,-1
 197 483 l 1,30,-1
 269 483 l 1,24,-1
EndSplineSet
EndChar
StartChar: udieresis
Encoding: 252 252 129
Width: 364
Flags: W
Fore
78 330 m 1,0,-1
 164 330 l 1,1,-1
 126 129 l 2,2,3
 123 113 123 113 123 98 c 0,4,5
 123 62 123 62 156 62 c 0,6,7
 205 62 205 62 222 144 c 2,8,-1
 258 330 l 1,9,-1
 344 330 l 1,10,-1
 280 0 l 1,11,-1
 193 0 l 1,12,-1
 203 49 l 1,13,14
 189 21 189 21 165 7 c 0,15,16
 140 -9 140 -9 110 -9 c 0,17,18
 72 -9 72 -9 51.5 12 c 128,-1,19
 31 33 31 33 31 72 c 0,20,21
 31 80 31 80 32.5 90.5 c 128,-1,22
 34 101 34 101 36 115 c 2,23,-1
 78 330 l 1,0,-1
323 468 m 1,24,-1
 309 395 l 1,25,-1
 239 395 l 1,26,-1
 253 468 l 1,27,-1
 323 468 l 1,24,-1
207 468 m 1,28,-1
 192 395 l 1,29,-1
 123 395 l 1,30,-1
 137 468 l 1,31,-1
 207 468 l 1,28,-1
EndSplineSet
EndChar
StartChar: dagger
Encoding: 8224 8224 130
Width: 364
Flags: W
Fore
262 440 m 1,0,-1
 240 326 l 1,1,-1
 338 326 l 1,2,-1
 325 260 l 1,3,-1
 227 260 l 1,4,-1
 165 -58 l 1,5,-1
 90 -58 l 1,6,-1
 152 260 l 1,7,-1
 54 260 l 1,8,-1
 66 326 l 1,9,-1
 164 326 l 1,10,-1
 187 440 l 1,11,-1
 262 440 l 1,0,-1
EndSplineSet
EndChar
StartChar: degree
Encoding: 176 176 131
Width: 364
Flags: W
Fore
182 448 m 0,0,1
 202 448 202 448 219.5 440.5 c 128,-1,2
 237 433 237 433 251 419 c 0,3,4
 280 392 280 392 280 350 c 0,5,6
 280 310 280 310 251 281 c 256,7,8
 222 252 222 252 181 252 c 0,9,10
 139 252 139 252 112 280 c 0,11,12
 83 309 83 309 83 350 c 256,13,14
 83 391 83 391 112 420 c 0,15,16
 140 448 140 448 182 448 c 0,0,1
182 401 m 0,17,18
 160 401 160 401 146 386 c 0,19,20
 131 371 131 371 131 350 c 0,21,22
 131 330 131 330 145 314 c 0,23,24
 159 300 159 300 181 300 c 256,25,26
 203 300 203 300 217 314 c 0,27,28
 232 329 232 329 232 350 c 256,29,30
 232 371 232 371 217 386 c 256,31,32
 202 401 202 401 182 401 c 0,17,18
EndSplineSet
EndChar
StartChar: cent
Encoding: 162 162 132
Width: 364
Flags: W
Fore
309 240 m 1,0,1
 282 264 282 264 245 268 c 1,2,-1
 205 63 l 1,3,4
 244 66 244 66 281 91 c 1,5,-1
 266 13 l 1,6,7
 247 4 247 4 229 -1 c 128,-1,8
 211 -6 211 -6 191 -7 c 1,9,-1
 175 -92 l 1,10,-1
 133 -92 l 1,11,-1
 149 -7 l 1,12,13
 92 -1 92 -1 61.5 33.5 c 128,-1,14
 31 68 31 68 31 128 c 0,15,16
 31 174 31 174 47 214.5 c 128,-1,17
 63 255 63 255 93 286 c 0,18,19
 116 311 116 311 148 324 c 128,-1,20
 180 337 180 337 216 338 c 1,21,-1
 232 422 l 1,22,-1
 274 422 l 1,23,-1
 258 338 l 1,24,25
 288 337 288 337 325 318 c 1,26,-1
 309 240 l 1,0,1
203 268 m 1,27,28
 164 264 164 264 135 224 c 0,29,30
 108 187 108 187 108 135 c 0,31,32
 108 104 108 104 123 84 c 0,33,34
 138 65 138 65 163 63 c 1,35,-1
 203 268 l 1,27,28
EndSplineSet
EndChar
StartChar: sterling
Encoding: 163 163 133
Width: 364
Flags: W
Fore
352 351 m 1,0,1
 316 375 316 375 281 375 c 0,2,3
 250 375 250 375 231 355.5 c 128,-1,4
 212 336 212 336 204 294 c 2,5,-1
 194 242 l 1,6,-1
 294 242 l 1,7,-1
 281 175 l 1,8,-1
 181 175 l 1,9,-1
 163 77 l 1,10,-1
 304 77 l 1,11,-1
 289 0 l 1,12,-1
 -7 0 l 1,13,-1
 9 77 l 1,14,-1
 78 77 l 1,15,-1
 97 175 l 1,16,-1
 38 175 l 1,17,-1
 51 242 l 1,18,-1
 110 242 l 1,19,-1
 121 300 l 2,20,21
 136 377 136 377 174 414 c 0,22,23
 211 448 211 448 282 448 c 0,24,25
 325 448 325 448 367 430 c 1,26,-1
 352 351 l 1,0,1
EndSplineSet
EndChar
StartChar: section
Encoding: 167 167 134
Width: 364
Flags: W
Fore
191 235 m 1,0,1
 190 236 190 236 188 237 c 256,2,3
 184 239 l 128,-1,4
 182 240 182 240 179 242 c 0,5,6
 173 247 173 247 167.5 250.5 c 128,-1,7
 162 254 162 254 156 259 c 1,8,9
 139 245 139 245 130 232.5 c 128,-1,10
 121 220 121 220 121 209 c 0,11,12
 121 187 121 187 142 172 c 2,13,-1
 165 156 l 2,14,15
 177 148 177 148 201 133 c 1,16,17
 218 144 218 144 227 157.5 c 128,-1,18
 236 171 236 171 236 182 c 0,19,20
 236 203 236 203 215 219 c 2,21,-1
 191 235 l 1,22,-1
 191 235 l 1,0,1
299 363 m 1,23,24
 257 383 257 383 222 383 c 0,25,26
 197 383 197 383 183 373 c 128,-1,27
 169 363 169 363 169 344 c 0,28,29
 169 333 169 333 178 322 c 0,30,31
 186 312 186 312 219 291 c 2,32,-1
 250 271 l 2,33,34
 279 251 279 251 291.5 233.5 c 128,-1,35
 304 216 304 216 304 193 c 0,36,37
 304 144 304 144 238 104 c 1,38,39
 264 81 264 81 264 43 c 0,40,41
 264 -1 264 -1 229 -30 c 0,42,43
 192 -58 192 -58 136 -58 c 0,44,45
 88 -58 88 -58 31 -40 c 1,46,-1
 44 28 l 1,47,48
 89 8 89 8 135 8 c 0,49,50
 188 8 188 8 188 47 c 0,51,52
 188 67 188 67 143 97 c 2,53,-1
 138 100 l 1,54,-1
 108 120 l 2,55,56
 92 131 92 131 81 140.5 c 128,-1,57
 70 150 70 150 64 158 c 0,58,59
 53 175 53 175 53 198 c 0,60,61
 53 225 53 225 70.5 248 c 128,-1,62
 88 271 88 271 122 285 c 1,63,64
 93 308 93 308 93 345 c 0,65,66
 93 392 93 392 127 420 c 0,67,68
 162 448 162 448 219 448 c 0,69,70
 240 448 240 448 263 444 c 128,-1,71
 286 440 286 440 312 431 c 1,72,-1
 299 363 l 1,23,24
EndSplineSet
EndChar
StartChar: bullet
Encoding: 8226 8226 135
Width: 364
Flags: W
Fore
76 225 m 0,0,1
 76 269 76 269 107 300 c 0,2,3
 139 330 139 330 182 330 c 256,4,5
 225 330 225 330 257 300 c 0,6,7
 288 269 288 269 288 225 c 0,8,9
 288 182 288 182 257 149 c 0,10,11
 226 118 226 118 181 118 c 0,12,13
 139 118 139 118 106 149 c 0,14,15
 76 179 76 179 76 225 c 0,0,1
EndSplineSet
EndChar
StartChar: paragraph
Encoding: 182 182 136
Width: 364
Flags: W
Fore
351 440 m 1,0,-1
 254 -58 l 1,1,-1
 198 -58 l 1,2,-1
 287 397 l 1,3,-1
 231 397 l 1,4,-1
 142 -58 l 1,5,-1
 86 -58 l 1,6,-1
 135 191 l 1,7,8
 84 197 84 197 57 222 c 128,-1,9
 30 247 30 247 30 289 c 0,10,11
 30 354 30 354 78 397 c 0,12,13
 125 440 125 440 198 440 c 2,14,-1
 351 440 l 1,0,-1
EndSplineSet
EndChar
StartChar: germandbls
Encoding: 223 223 137
Width: 364
Flags: W
Fore
338 312 m 1,0,1
 296 310 296 310 273 295.5 c 128,-1,2
 250 281 250 281 250 256 c 0,3,4
 250 241 250 241 278 211 c 2,5,-1
 280 209 l 1,6,-1
 303 187 l 2,7,8
 337 152 337 152 337 112 c 0,9,10
 337 56 337 56 299 24 c 0,11,12
 262 -9 262 -9 196 -9 c 0,13,14
 158 -9 158 -9 120 6 c 1,15,-1
 134 80 l 1,16,17
 170 61 170 61 196 61 c 0,18,19
 223 61 223 61 238.5 72.5 c 128,-1,20
 254 84 254 84 254 104 c 256,21,22
 254 124 254 124 221 157 c 1,23,-1
 219 158 l 1,24,-1
 199 179 l 2,25,26
 173 205 173 205 173 240 c 0,27,28
 173 281 173 281 200 308 c 128,-1,29
 227 335 227 335 277 346 c 1,30,-1
 277 351 l 2,31,32
 277 391 277 391 227 391 c 0,33,34
 172 391 172 391 160 331 c 2,35,-1
 95 0 l 1,36,-1
 9 0 l 1,37,-1
 73 332 l 2,38,39
 85 395 85 395 123.5 427.5 c 128,-1,40
 162 460 162 460 225 460 c 0,41,42
 341 460 341 460 341 356 c 0,43,44
 341 344 341 344 338 314 c 2,45,-1
 338 312 l 1,46,-1
 338 312 l 1,0,1
EndSplineSet
EndChar
StartChar: registered
Encoding: 174 174 138
Width: 364
Flags: W
Fore
182 401 m 256,0,1
 257 401 257 401 310 348 c 0,2,3
 364 292 364 292 364 219 c 0,4,5
 364 144 364 144 310 91 c 0,6,7
 256 37 256 37 182 37 c 0,8,9
 107 37 107 37 54 91 c 0,10,11
 0 144 0 144 0 219 c 256,12,13
 0 294 0 294 54 348 c 0,14,15
 107 401 107 401 182 401 c 256,0,1
155 278 m 1,16,-1
 155 230 l 1,17,-1
 173 230 l 2,18,19
 207 230 207 230 207 254 c 256,20,21
 207 278 207 278 173 278 c 2,22,-1
 155 278 l 1,16,-1
179 311 m 1,23,24
 256 311 256 311 256 259 c 0,25,26
 256 219 256 219 212 211 c 1,27,28
 233 203 233 203 247 176 c 2,29,-1
 270 127 l 1,30,-1
 219 127 l 1,31,-1
 201 166 l 2,32,33
 193 183 193 183 184.5 190 c 128,-1,34
 176 197 176 197 164 198 c 2,35,-1
 155 198 l 1,36,-1
 155 127 l 1,37,-1
 106 127 l 1,38,-1
 106 311 l 1,39,-1
 179 311 l 1,40,-1
 179 311 l 1,23,24
182 363 m 0,41,42
 123 363 123 363 81 320 c 0,43,44
 39 278 39 278 39 219 c 0,45,46
 39 162 39 162 81 118 c 0,47,48
 123 76 123 76 182 76 c 256,49,50
 241 76 241 76 283 118 c 0,51,52
 325 162 325 162 325 219 c 0,53,54
 325 278 325 278 283 320 c 0,55,56
 240 363 240 363 182 363 c 0,41,42
EndSplineSet
EndChar
StartChar: copyright
Encoding: 169 169 139
Width: 364
Flags: W
Fore
250 260 m 1,0,1
 222 277 222 277 194 277 c 0,2,3
 165 277 165 277 149.5 262 c 128,-1,4
 134 247 134 247 134 219 c 0,5,6
 134 160 134 160 194 160 c 0,7,8
 226 160 226 160 250 178 c 1,9,-1
 250 128 l 1,10,11
 220 118 220 118 188 118 c 0,12,13
 138 118 138 118 108 145 c 0,14,15
 78 175 78 175 78 219 c 0,16,17
 78 264 78 264 108 292 c 0,18,19
 138 319 138 319 188 319 c 0,20,21
 221 319 221 319 250 309 c 1,22,-1
 250 260 l 1,0,1
182 401 m 256,23,24
 257 401 257 401 310 348 c 0,25,26
 364 292 364 292 364 219 c 0,27,28
 364 144 364 144 310 91 c 0,29,30
 256 37 256 37 182 37 c 0,31,32
 107 37 107 37 54 91 c 0,33,34
 0 144 0 144 0 219 c 256,35,36
 0 294 0 294 54 348 c 0,37,38
 107 401 107 401 182 401 c 256,23,24
182 363 m 0,39,40
 123 363 123 363 81 320 c 0,41,42
 39 278 39 278 39 219 c 0,43,44
 39 162 39 162 81 118 c 0,45,46
 123 76 123 76 182 76 c 256,47,48
 241 76 241 76 283 118 c 0,49,50
 325 162 325 162 325 219 c 0,51,52
 325 278 325 278 283 320 c 0,53,54
 240 363 240 363 182 363 c 0,39,40
EndSplineSet
EndChar
StartChar: trademark
Encoding: 8482 8482 140
Width: 364
Flags: W
Fore
245 373 m 1,0,-1
 271 440 l 1,1,-1
 332 440 l 1,2,-1
 332 270 l 1,3,-1
 287 270 l 1,4,-1
 287 399 l 1,5,-1
 255 323 l 1,6,-1
 233 323 l 1,7,-1
 199 399 l 1,8,-1
 199 270 l 1,9,-1
 154 270 l 1,10,-1
 154 440 l 1,11,-1
 215 440 l 1,12,-1
 245 373 l 1,0,-1
129 401 m 1,13,-1
 88 401 l 1,14,-1
 88 270 l 1,15,-1
 42 270 l 1,16,-1
 42 401 l 1,17,-1
 0 401 l 1,18,-1
 0 440 l 1,19,-1
 129 440 l 1,20,-1
 129 401 l 1,13,-1
EndSplineSet
EndChar
StartChar: acute
Encoding: 180 180 141
Width: 364
Flags: W
Fore
356 483 m 1,0,-1
 226 372 l 1,1,-1
 168 372 l 1,2,-1
 262 483 l 1,3,-1
 356 483 l 1,0,-1
EndSplineSet
EndChar
StartChar: dieresis
Encoding: 168 168 142
Width: 364
Flags: W
Fore
323 468 m 1,0,-1
 309 395 l 1,1,-1
 239 395 l 1,2,-1
 253 468 l 1,3,-1
 323 468 l 1,0,-1
207 468 m 1,4,-1
 192 395 l 1,5,-1
 123 395 l 1,6,-1
 137 468 l 1,7,-1
 207 468 l 1,4,-1
EndSplineSet
EndChar
StartChar: notequal
Encoding: 8800 8800 143
Width: 364
Flags: W
Fore
217 291 m 1,0,-1
 292 381 l 1,1,-1
 336 344 l 1,2,-1
 293 291 l 1,3,-1
 341 291 l 1,4,-1
 341 222 l 1,5,-1
 248 222 l 1,6,-1
 196 157 l 1,7,-1
 341 157 l 1,8,-1
 341 87 l 1,9,-1
 146 87 l 1,10,-1
 72 -3 l 1,11,-1
 28 35 l 1,12,-1
 71 87 l 1,13,-1
 23 87 l 1,14,-1
 23 157 l 1,15,-1
 118 157 l 1,16,-1
 170 222 l 1,17,-1
 23 222 l 1,18,-1
 23 291 l 1,19,-1
 217 291 l 1,0,-1
EndSplineSet
EndChar
StartChar: AE
Encoding: 198 198 144
Width: 364
Flags: W
Fore
372 364 m 1,0,-1
 286 364 l 1,1,-1
 268 272 l 1,2,-1
 345 272 l 1,3,-1
 330 195 l 1,4,-1
 253 195 l 1,5,-1
 230 77 l 1,6,-1
 322 77 l 1,7,-1
 306 0 l 1,8,-1
 140 0 l 1,9,-1
 161 107 l 1,10,-1
 78 107 l 1,11,-1
 32 0 l 1,12,-1
 -44 0 l 1,13,-1
 148 440 l 1,14,-1
 387 440 l 1,15,-1
 372 364 l 1,0,-1
108 176 m 1,16,-1
 175 176 l 1,17,-1
 212 364 l 1,18,-1
 188 364 l 1,19,-1
 108 176 l 1,16,-1
EndSplineSet
EndChar
StartChar: Oslash
Encoding: 216 216 145
Width: 364
Flags: W
Fore
111 104 m 1,0,1
 122 69 122 69 155 69 c 0,2,3
 193 69 193 69 215 114 c 0,4,5
 238 160 238 160 253 262 c 1,6,-1
 111 104 l 1,7,-1
 111 104 l 1,0,1
23 87 m 1,8,9
 18 109 18 109 18 130 c 0,10,11
 18 162 18 162 21.5 193 c 128,-1,12
 25 224 25 224 32 255 c 0,13,14
 48 319 48 319 72 362 c 0,15,16
 95 404 95 404 132 426 c 128,-1,17
 169 448 169 448 216 448 c 0,18,19
 278 448 278 448 314 410 c 1,20,-1
 359 460 l 1,21,-1
 400 426 l 1,22,-1
 340 359 l 1,23,24
 342 342 342 342 343.5 328 c 128,-1,25
 345 314 345 314 345 301 c 0,26,27
 345 282 345 282 343.5 261 c 128,-1,28
 342 240 342 240 337 217 c 0,29,30
 329 176 329 176 318.5 141.5 c 128,-1,31
 308 107 308 107 292 78 c 0,32,33
 269 36 269 36 232 13.5 c 128,-1,34
 195 -9 195 -9 149 -9 c 0,35,36
 82 -9 82 -9 47 35 c 1,37,-1
 0 -19 l 1,38,-1
 -42 15 l 1,39,-1
 23 87 l 1,40,-1
 23 87 l 1,8,9
251 340 m 1,41,42
 240 372 240 372 209 372 c 0,43,44
 173 372 173 372 150 328 c 0,45,46
 127 285 127 285 112 186 c 1,47,-1
 251 340 l 1,48,-1
 251 340 l 1,41,42
EndSplineSet
EndChar
StartChar: infinity
Encoding: 8734 8734 146
Width: 364
Flags: W
Fore
214 186 m 1,0,1
 227 153 227 153 240 138 c 0,2,3
 252 124 252 124 266 124 c 0,4,5
 283 124 283 124 295 142 c 0,6,7
 306 159 306 159 306 187 c 256,8,9
 306 215 306 215 296 231.5 c 128,-1,10
 286 248 286 248 269 248 c 0,11,12
 234 248 234 248 214 186 c 1,0,1
149 187 m 1,13,14
 134 224 134 224 122 236 c 0,15,16
 112 248 112 248 97 248 c 0,17,18
 80 248 80 248 68 231 c 0,19,20
 58 214 58 214 58 186 c 256,21,22
 58 158 58 158 67.5 141 c 128,-1,23
 77 124 77 124 94 124 c 0,24,25
 125 124 125 124 149 187 c 1,13,14
182 245 m 1,26,27
 207 307 207 307 266 307 c 0,28,29
 308 307 308 307 335 274 c 0,30,31
 360 242 360 242 360 186 c 0,32,33
 360 134 360 134 334 100 c 0,34,35
 307 66 307 66 266 66 c 0,36,37
 240 66 240 66 220.5 80 c 128,-1,38
 201 94 201 94 182 126 c 1,39,40
 149 66 149 66 98 66 c 0,41,42
 57 66 57 66 30 100 c 0,43,44
 4 132 4 132 4 186 c 0,45,46
 4 242 4 242 29 274 c 0,47,48
 55 307 55 307 97 307 c 0,49,50
 152 307 152 307 182 245 c 1,26,27
EndSplineSet
EndChar
StartChar: plusminus
Encoding: 177 177 147
Width: 364
Flags: W
Fore
217 274 m 1,0,-1
 338 274 l 1,1,-1
 338 205 l 1,2,-1
 217 205 l 1,3,-1
 217 100 l 1,4,-1
 147 100 l 1,5,-1
 147 205 l 1,6,-1
 26 205 l 1,7,-1
 26 274 l 1,8,-1
 147 274 l 1,9,-1
 147 379 l 1,10,-1
 217 379 l 1,11,-1
 217 274 l 1,0,-1
338 70 m 1,12,-1
 338 0 l 1,13,-1
 26 0 l 1,14,-1
 26 70 l 1,15,-1
 338 70 l 1,12,-1
EndSplineSet
EndChar
StartChar: lessequal
Encoding: 8804 8804 148
Width: 364
Flags: W
Fore
120 218 m 1,0,-1
 338 156 l 1,1,-1
 338 85 l 1,2,-1
 26 184 l 1,3,-1
 26 253 l 1,4,-1
 338 352 l 1,5,-1
 338 280 l 1,6,-1
 120 218 l 1,0,-1
338 0 m 1,7,-1
 26 0 l 1,8,-1
 26 70 l 1,9,-1
 338 70 l 1,10,-1
 338 0 l 1,7,-1
EndSplineSet
EndChar
StartChar: greaterequal
Encoding: 8805 8805 149
Width: 364
Flags: W
Fore
26 352 m 1,0,-1
 338 253 l 1,1,-1
 338 184 l 1,2,-1
 26 85 l 1,3,-1
 26 156 l 1,4,-1
 244 218 l 1,5,-1
 26 280 l 1,6,-1
 26 352 l 1,0,-1
338 70 m 1,7,-1
 338 0 l 1,8,-1
 26 0 l 1,9,-1
 26 70 l 1,10,-1
 338 70 l 1,7,-1
EndSplineSet
EndChar
StartChar: yen
Encoding: 165 165 150
Width: 364
Flags: W
Fore
131 440 m 1,0,-1
 182 263 l 1,1,-1
 303 440 l 1,2,-1
 396 440 l 1,3,-1
 286 285 l 1,4,-1
 352 285 l 1,5,-1
 341 230 l 1,6,-1
 246 230 l 1,7,-1
 212 185 l 1,8,-1
 332 185 l 1,9,-1
 322 129 l 1,10,-1
 200 129 l 1,11,-1
 175 0 l 1,12,-1
 88 0 l 1,13,-1
 113 129 l 1,14,-1
 -9 129 l 1,15,-1
 2 185 l 1,16,-1
 123 185 l 1,17,-1
 106 230 l 1,18,-1
 11 230 l 1,19,-1
 22 285 l 1,20,-1
 88 285 l 1,21,-1
 37 440 l 1,22,-1
 131 440 l 1,0,-1
EndSplineSet
EndChar
StartChar: mu
Encoding: 181 181 151
Width: 364
Flags: W
Fore
73 330 m 1,0,-1
 158 330 l 1,1,-1
 119 130 l 2,2,3
 117 122 117 122 116 114.5 c 128,-1,4
 115 107 115 107 115 102 c 0,5,6
 115 83 115 83 125.5 73 c 128,-1,7
 136 63 136 63 153 63 c 0,8,9
 201 63 201 63 214 130 c 2,10,-1
 253 330 l 1,11,-1
 338 330 l 1,12,-1
 294 101 l 2,13,14
 291 82 291 82 291 79 c 0,15,16
 291 63 291 63 303 63 c 0,17,18
 309 63 309 63 322 70 c 1,19,-1
 309 5 l 1,20,21
 281 -9 281 -9 261 -9 c 0,22,23
 221 -9 221 -9 214 38 c 1,24,25
 182 -9 182 -9 141 -9 c 0,26,27
 106 -9 106 -9 97 19 c 1,28,-1
 69 -126 l 1,29,-1
 -16 -126 l 1,30,-1
 73 330 l 1,0,-1
EndSplineSet
EndChar
StartChar: partialdiff
Encoding: 8706 8706 152
Width: 364
Flags: W
Fore
245 195 m 1,0,1
 251 224 251 224 254 250.5 c 128,-1,2
 257 277 257 277 257 297 c 0,3,4
 257 326 257 326 249.5 343 c 128,-1,5
 242 360 242 360 228 360 c 0,6,7
 215 360 215 360 185 339 c 0,8,9
 156 317 156 317 138 317 c 0,10,11
 126 317 126 317 117.5 326 c 128,-1,12
 109 335 109 335 109 348 c 0,13,14
 109 367 109 367 134 382 c 0,15,16
 159 398 159 398 196 398 c 0,17,18
 254 398 254 398 288 350 c 0,19,20
 322 304 322 304 322 223 c 0,21,22
 322 122 322 122 276 58 c 0,23,24
 230 -7 230 -7 159 -7 c 0,25,26
 108 -7 108 -7 76 26 c 0,27,28
 43 61 43 61 43 112 c 0,29,30
 43 172 43 172 77 209 c 0,31,32
 112 248 112 248 162 248 c 0,33,34
 192 248 192 248 211.5 235.5 c 128,-1,35
 231 223 231 223 245 195 c 1,0,1
227 153 m 0,36,37
 227 224 227 224 183 224 c 0,38,39
 154 224 154 224 134 184 c 256,40,41
 114 144 114 144 114 83 c 0,42,43
 114 13 114 13 158 13 c 0,44,45
 188 13 188 13 207 53 c 0,46,47
 227 90 227 90 227 153 c 0,36,37
EndSplineSet
EndChar
StartChar: summation
Encoding: 8721 8721 153
Width: 364
Flags: W
Fore
37 407 m 1,0,-1
 37 448 l 1,1,-1
 321 448 l 1,2,-1
 321 385 l 1,3,-1
 130 385 l 1,4,-1
 262 168 l 1,5,-1
 129 -66 l 1,6,-1
 326 -66 l 1,7,-1
 326 -129 l 1,8,-1
 37 -129 l 1,9,-1
 37 -89 l 1,10,-1
 183 168 l 1,11,-1
 37 407 l 1,0,-1
EndSplineSet
EndChar
StartChar: product
Encoding: 8719 8719 154
Width: 364
Flags: W
Fore
319 -129 m 1,0,-1
 243 -129 l 1,1,-1
 243 387 l 1,2,-1
 120 387 l 1,3,-1
 120 -129 l 1,4,-1
 45 -129 l 1,5,-1
 45 448 l 1,6,-1
 319 448 l 1,7,-1
 319 -129 l 1,0,-1
EndSplineSet
EndChar
StartChar: pi
Encoding: 960 960 155
Width: 364
Flags: W
Fore
349 263 m 1,0,-1
 301 263 l 1,1,-1
 301 107 l 2,2,3
 301 67 301 67 308 59 c 0,4,5
 316 50 316 50 336 50 c 0,6,7
 344 50 344 50 348.5 50 c 128,-1,8
 353 50 353 50 358 51 c 1,9,-1
 358 -4 l 1,10,11
 331 -12 331 -12 300 -12 c 0,12,13
 252 -12 252 -12 234 8 c 0,14,15
 224 18 224 18 221 30 c 0,16,17
 217 42 217 42 217 69 c 2,18,-1
 217 79 l 1,19,-1
 217 263 l 1,20,-1
 136 263 l 1,21,-1
 136 0 l 1,22,-1
 52 0 l 1,23,-1
 52 263 l 1,24,-1
 4 263 l 1,25,-1
 4 325 l 1,26,-1
 349 325 l 1,27,-1
 349 263 l 1,0,-1
EndSplineSet
EndChar
StartChar: integral
Encoding: 8747 8747 156
Width: 364
Flags: W
Fore
108 -74 m 0,0,1
 139 -74 139 -74 143 114 c 0,2,3
 144 134 144 134 144.5 150 c 128,-1,4
 145 166 145 166 145 177 c 0,5,6
 150 326 150 326 181 392 c 0,7,8
 213 458 213 458 278 458 c 0,9,10
 309 458 309 458 324 444 c 0,11,12
 342 429 342 429 342 406 c 0,13,14
 342 388 342 388 330.5 377.5 c 128,-1,15
 319 367 319 367 301 367 c 0,16,17
 274 367 274 367 266 394 c 1,18,19
 266 397 266 397 265.5 401 c 128,-1,20
 265 405 265 405 264 410 c 1,21,22
 264 424 264 424 255 424 c 0,23,24
 226 424 226 424 220 237 c 0,25,26
 220 220 220 220 219.5 207 c 128,-1,27
 219 194 219 194 219 184 c 0,28,29
 217 140 217 140 215 107.5 c 128,-1,30
 213 75 213 75 209 53 c 0,31,32
 205 11 205 11 192 -21 c 0,33,34
 158 -110 158 -110 85 -110 c 0,35,36
 58 -110 58 -110 39 -96 c 0,37,38
 21 -81 21 -81 21 -58 c 0,39,40
 21 -40 21 -40 32 -29 c 128,-1,41
 43 -18 43 -18 63 -18 c 0,42,43
 79 -18 79 -18 89 -27 c 256,44,45
 99 -36 99 -36 99 -48 c 0,46,47
 99 -64 99 -64 101 -70 c 0,48,49
 102 -74 102 -74 108 -74 c 0,0,1
EndSplineSet
EndChar
StartChar: ordfeminine
Encoding: 170 170 157
Width: 364
Flags: W
Fore
278 212 m 1,0,-1
 217 212 l 1,1,-1
 223 237 l 1,2,3
 196 206 196 206 150 206 c 0,4,5
 119 206 119 206 99 224 c 0,6,7
 81 242 81 242 81 273 c 0,8,9
 81 317 81 317 113.5 340.5 c 128,-1,10
 146 364 146 364 208 364 c 2,11,-1
 248 364 l 1,12,-1
 250 374 l 1,13,-1
 250 379 l 2,14,15
 250 404 250 404 208 404 c 0,16,17
 174 404 174 404 123 381 c 1,18,-1
 133 432 l 1,19,20
 180 448 180 448 218 448 c 0,21,22
 262 448 262 448 286 433 c 128,-1,23
 310 418 310 418 310 390 c 0,24,25
 310 380 310 380 309 370 c 128,-1,26
 308 360 308 360 304 344 c 2,27,-1
 278 212 l 1,0,-1
216 321 m 1,28,29
 145 321 145 321 145 277 c 0,30,31
 145 264 145 264 153.5 255.5 c 128,-1,32
 162 247 162 247 175 247 c 0,33,34
 227 247 227 247 239 321 c 1,35,-1
 216 321 l 1,36,-1
 216 321 l 1,28,29
276 176 m 1,37,-1
 265 126 l 1,38,-1
 62 126 l 1,39,-1
 73 176 l 1,40,-1
 276 176 l 1,37,-1
EndSplineSet
EndChar
StartChar: ordmasculine
Encoding: 186 186 158
Width: 364
Flags: W
Fore
91 300 m 0,0,1
 91 368 91 368 126 407 c 0,2,3
 160 448 160 448 218 448 c 0,4,5
 264 448 264 448 289.5 424 c 128,-1,6
 315 400 315 400 315 355 c 0,7,8
 315 288 315 288 280 247 c 256,9,10
 245 206 245 206 188 206 c 0,11,12
 142 206 142 206 116.5 230.5 c 128,-1,13
 91 255 91 255 91 300 c 0,0,1
253 353 m 0,14,15
 253 376 253 376 242.5 388 c 128,-1,16
 232 400 232 400 214 400 c 0,17,18
 189 400 189 400 171 372 c 256,19,20
 153 344 153 344 153 301 c 0,21,22
 153 279 153 279 163.5 266.5 c 128,-1,23
 174 254 174 254 191 254 c 0,24,25
 217 254 217 254 235 283 c 0,26,27
 253 310 253 310 253 353 c 0,14,15
278 176 m 1,28,-1
 268 126 l 1,29,-1
 65 126 l 1,30,-1
 75 176 l 1,31,-1
 278 176 l 1,28,-1
EndSplineSet
EndChar
StartChar: Omega
Encoding: 937 937 159
Width: 364
Flags: W
Fore
97 62 m 1,0,1
 62 94 62 94 45 134 c 0,2,3
 30 175 30 175 30 231 c 0,4,5
 30 324 30 324 71 377 c 0,6,7
 112 431 112 431 181 431 c 0,8,9
 251 431 251 431 293 377 c 0,10,11
 334 322 334 322 334 231 c 0,12,13
 334 173 334 173 318 134 c 0,14,15
 303 95 303 95 267 62 c 1,16,-1
 337 62 l 1,17,-1
 337 0 l 1,18,-1
 198 0 l 1,19,-1
 198 79 l 1,20,21
 222 102 222 102 233.5 136.5 c 128,-1,22
 245 171 245 171 245 221 c 0,23,24
 245 284 245 284 228.5 318 c 128,-1,25
 212 352 212 352 182 352 c 256,26,27
 152 352 152 352 135 318 c 128,-1,28
 118 284 118 284 118 221 c 0,29,30
 118 124 118 124 166 79 c 1,31,-1
 166 0 l 1,32,-1
 27 0 l 1,33,-1
 27 62 l 1,34,-1
 97 62 l 1,0,1
EndSplineSet
EndChar
StartChar: ae
Encoding: 230 230 160
Width: 364
Flags: W
Fore
141 141 m 1,0,-1
 119 141 l 2,1,2
 90 141 90 141 73 126 c 0,3,4
 55 111 55 111 55 86 c 0,5,6
 55 71 55 71 64 62 c 128,-1,7
 73 53 73 53 87 53 c 0,8,9
 107 53 107 53 118.5 68 c 128,-1,10
 130 83 130 83 137 118 c 2,11,-1
 141 141 l 1,0,-1
296 223 m 2,12,13
 297 228 297 228 297.5 233 c 128,-1,14
 298 238 298 238 298 246 c 0,15,16
 298 275 298 275 273 275 c 0,17,18
 240 275 240 275 230 224 c 2,19,-1
 226 203 l 1,20,-1
 292 203 l 1,21,-1
 296 223 l 2,12,13
214 141 m 1,22,23
 212 127 212 127 211 118.5 c 128,-1,24
 210 110 210 110 210 105 c 0,25,26
 210 81 210 81 222.5 67 c 128,-1,27
 235 53 235 53 255 53 c 0,28,29
 272 53 272 53 292 61.5 c 128,-1,30
 312 70 312 70 332 85 c 1,31,-1
 318 15 l 1,32,33
 284 -9 284 -9 237 -9 c 0,34,35
 209 -9 209 -9 189.5 4 c 128,-1,36
 170 17 170 17 160 40 c 1,37,38
 124 -9 124 -9 73 -9 c 0,39,40
 36 -9 36 -9 13 15 c 0,41,42
 -9 37 -9 37 -9 77 c 0,43,44
 -9 135 -9 135 27 169 c 0,45,46
 62 204 62 204 123 204 c 2,47,-1
 155 204 l 1,48,-1
 158 221 l 2,49,50
 159 226 159 226 159.5 229.5 c 128,-1,51
 160 233 160 233 160 238 c 0,52,53
 160 275 160 275 120 275 c 0,54,55
 90 275 90 275 39 245 c 1,56,-1
 53 315 l 1,57,58
 96 338 96 338 139 338 c 0,59,60
 189 338 189 338 205 299 c 1,61,62
 235 338 235 338 286 338 c 0,63,64
 323 338 323 338 343 317.5 c 128,-1,65
 363 297 363 297 363 259 c 0,66,67
 363 228 363 228 353 179 c 2,68,-1
 347 141 l 1,69,-1
 214 141 l 1,22,23
EndSplineSet
EndChar
StartChar: oslash
Encoding: 248 248 161
Width: 364
Flags: W
Fore
128 78 m 1,0,1
 142 61 142 61 165 61 c 0,2,3
 201 61 201 61 223.5 96.5 c 128,-1,4
 246 132 246 132 251 198 c 1,5,-1
 128 78 l 1,6,-1
 128 78 l 1,0,1
38 62 m 1,7,8
 26 89 26 89 26 124 c 0,9,10
 26 222 26 222 75 280 c 0,11,12
 123 339 123 339 203 339 c 0,13,14
 256 339 256 339 295 309 c 1,15,-1
 352 364 l 1,16,-1
 387 329 l 1,17,-1
 326 269 l 1,18,19
 338 241 338 241 338 205 c 0,20,21
 338 108 338 108 289 50 c 0,22,23
 239 -9 239 -9 160 -9 c 0,24,25
 105 -9 105 -9 69 21 c 1,26,-1
 10 -35 l 1,27,-1
 -24 1 l 1,28,-1
 38 62 l 1,29,-1
 38 62 l 1,7,8
236 253 m 1,30,31
 222 269 222 269 199 269 c 0,32,33
 163 269 163 269 140.5 234.5 c 128,-1,34
 118 200 118 200 113 134 c 1,35,-1
 236 253 l 1,36,-1
 236 253 l 1,30,31
EndSplineSet
EndChar
StartChar: questiondown
Encoding: 191 191 162
Width: 364
Flags: W
Fore
254 322 m 1,0,-1
 245 277 l 2,1,2
 241 249 241 249 227 228 c 0,3,4
 220 217 220 217 210 206 c 128,-1,5
 200 195 200 195 186 183 c 2,6,-1
 155 156 l 1,7,-1
 151 152 l 2,8,9
 109 116 109 116 109 97 c 0,10,11
 109 62 109 62 152 62 c 0,12,13
 204 62 204 62 273 104 c 1,14,-1
 257 25 l 1,15,16
 227 9 227 9 196 0.5 c 128,-1,17
 165 -8 165 -8 134 -8 c 0,18,19
 85 -8 85 -8 56 16 c 0,20,21
 27 39 27 39 27 80 c 0,22,23
 27 111 27 111 41 133 c 0,24,25
 57 159 57 159 90 186 c 2,26,-1
 121 212 l 1,27,-1
 123 214 l 2,28,29
 161 244 161 244 168 286 c 2,30,-1
 175 322 l 1,31,-1
 254 322 l 1,0,-1
182 357 m 1,32,-1
 198 440 l 1,33,-1
 277 440 l 1,34,-1
 261 357 l 1,35,-1
 182 357 l 1,32,-1
EndSplineSet
EndChar
StartChar: exclamdown
Encoding: 161 161 163
Width: 364
Flags: W
Fore
169 357 m 1,0,-1
 186 440 l 1,1,-1
 264 440 l 1,2,-1
 248 357 l 1,3,-1
 169 357 l 1,0,-1
100 0 m 1,4,-1
 137 193 l 1,5,-1
 167 299 l 1,6,-1
 226 299 l 1,7,-1
 216 193 l 1,8,-1
 178 0 l 1,9,-1
 100 0 l 1,4,-1
EndSplineSet
EndChar
StartChar: logicalnot
Encoding: 172 172 164
Width: 364
Flags: W
Fore
338 265 m 1,0,-1
 338 107 l 1,1,-1
 268 107 l 1,2,-1
 268 195 l 1,3,-1
 26 195 l 1,4,-1
 26 265 l 1,5,-1
 338 265 l 1,0,-1
EndSplineSet
EndChar
StartChar: radical
Encoding: 8730 8730 165
Width: 364
Flags: W
Fore
14 256 m 1,0,-1
 118 292 l 1,1,-1
 168 121 l 1,2,-1
 283 509 l 1,3,-1
 346 509 l 1,4,-1
 346 448 l 1,5,-1
 331 448 l 1,6,-1
 195 -12 l 1,7,-1
 140 -12 l 1,8,-1
 76 213 l 1,9,-1
 33 198 l 1,10,-1
 14 256 l 1,0,-1
EndSplineSet
EndChar
StartChar: florin
Encoding: 402 402 166
Width: 364
Flags: W
Fore
340 376 m 1,0,1
 316 391 316 391 293 391 c 0,2,3
 240 391 240 391 230 317 c 2,4,-1
 222 261 l 1,5,-1
 299 261 l 1,6,-1
 299 196 l 1,7,-1
 214 196 l 1,8,-1
 186 -14 l 2,9,10
 178 -68 178 -68 149 -97 c 128,-1,11
 120 -126 120 -126 72 -126 c 0,12,13
 36 -126 36 -126 4 -111 c 1,14,-1
 4 -42 l 1,15,16
 30 -58 30 -58 51 -58 c 0,17,18
 106 -58 106 -58 115 16 c 2,19,-1
 139 196 l 1,20,-1
 65 196 l 1,21,-1
 65 261 l 1,22,-1
 148 261 l 1,23,-1
 159 348 l 2,24,25
 166 401 166 401 195.5 430 c 128,-1,26
 225 459 225 459 273 459 c 0,27,28
 309 459 309 459 340 444 c 1,29,-1
 340 376 l 1,0,1
EndSplineSet
EndChar
StartChar: approxequal
Encoding: 8776 8776 167
Width: 364
Flags: W
Fore
338 109 m 1,0,1
 315 91 315 91 294 83 c 128,-1,2
 273 75 273 75 250 75 c 0,3,4
 223 75 223 75 190 90 c 0,5,6
 187 92 187 92 185 92.5 c 128,-1,7
 183 93 183 93 181 94 c 0,8,9
 169 99 169 99 159.5 102.5 c 128,-1,10
 150 106 150 106 142 108 c 0,11,12
 127 111 127 111 112 111 c 0,13,14
 68 111 68 111 26 76 c 1,15,-1
 26 143 l 1,16,17
 49 161 49 161 70.5 169 c 128,-1,18
 92 177 92 177 117 177 c 0,19,20
 131 177 131 177 147.5 173 c 128,-1,21
 164 169 164 169 183 161 c 0,22,23
 185 160 185 160 187.5 159 c 128,-1,24
 190 158 190 158 193 157 c 0,25,26
 225 141 225 141 255 141 c 0,27,28
 295 141 295 141 338 178 c 1,29,-1
 338 109 l 1,0,1
338 232 m 1,30,31
 294 198 294 198 250 198 c 0,32,33
 223 198 223 198 190 213 c 0,34,35
 182 217 182 217 181 217 c 1,36,37
 169 222 169 222 159.5 225.5 c 128,-1,38
 150 229 150 229 142 231 c 256,39,40
 134 233 134 233 127 234 c 128,-1,41
 120 235 120 235 112 235 c 0,42,43
 68 235 68 235 26 199 c 1,44,-1
 26 266 l 1,45,46
 49 284 49 284 70.5 292 c 128,-1,47
 92 300 92 300 117 300 c 0,48,49
 131 300 131 300 147.5 296 c 128,-1,50
 164 292 164 292 183 284 c 0,51,52
 189 282 189 282 192 280 c 0,53,54
 225 264 225 264 255 264 c 0,55,56
 276 264 276 264 296 272.5 c 128,-1,57
 316 281 316 281 338 301 c 1,58,-1
 338 232 l 1,30,31
EndSplineSet
EndChar
StartChar: Delta
Encoding: 8710 8710 168
Width: 364
Flags: W
Fore
182 307 m 1,0,-1
 101 65 l 1,1,-1
 263 65 l 1,2,-1
 182 307 l 1,0,-1
220 420 m 1,3,-1
 366 0 l 1,4,-1
 -2 0 l 1,5,-1
 144 420 l 1,6,-1
 220 420 l 1,3,-1
EndSplineSet
EndChar
StartChar: guillemotleft
Encoding: 171 171 169
Width: 364
Flags: W
Fore
312 242 m 1,0,-1
 217 177 l 1,1,-1
 286 112 l 1,2,-1
 273 42 l 1,3,-1
 157 158 l 1,4,-1
 164 196 l 1,5,-1
 325 312 l 1,6,-1
 312 242 l 1,0,-1
178 242 m 1,7,-1
 83 177 l 1,8,-1
 152 112 l 1,9,-1
 139 42 l 1,10,-1
 23 158 l 1,11,-1
 30 196 l 1,12,-1
 191 312 l 1,13,-1
 178 242 l 1,7,-1
EndSplineSet
EndChar
StartChar: guillemotright
Encoding: 187 187 170
Width: 364
Flags: W
Fore
193 196 m 1,0,-1
 185 158 l 1,1,-1
 24 42 l 1,2,-1
 37 112 l 1,3,-1
 132 177 l 1,4,-1
 63 242 l 1,5,-1
 77 312 l 1,6,-1
 193 196 l 1,0,-1
327 196 m 1,7,-1
 319 158 l 1,8,-1
 158 42 l 1,9,-1
 172 112 l 1,10,-1
 266 177 l 1,11,-1
 198 242 l 1,12,-1
 211 312 l 1,13,-1
 327 196 l 1,7,-1
EndSplineSet
EndChar
StartChar: ellipsis
Encoding: 8230 8230 171
Width: 364
Flags: W
Fore
325 108 m 1,0,-1
 304 0 l 1,1,-1
 211 0 l 1,2,-1
 232 108 l 1,3,-1
 325 108 l 1,0,-1
204 108 m 1,4,-1
 183 0 l 1,5,-1
 96 0 l 1,6,-1
 117 108 l 1,7,-1
 204 108 l 1,4,-1
88 108 m 1,8,-1
 67 0 l 1,9,-1
 -25 0 l 1,10,-1
 -5 108 l 1,11,-1
 88 108 l 1,8,-1
EndSplineSet
EndChar
StartChar: Agrave
Encoding: 192 192 173
Width: 364
Flags: W
Fore
134 181 m 1,0,-1
 217 181 l 1,1,-1
 212 360 l 1,2,-1
 134 181 l 1,0,-1
278 440 m 1,3,-1
 311 0 l 1,4,-1
 225 0 l 1,5,-1
 221 109 l 1,6,-1
 103 109 l 1,7,-1
 55 0 l 1,8,-1
 -33 0 l 1,9,-1
 172 440 l 1,10,-1
 278 440 l 1,3,-1
268 482 m 1,11,-1
 215 482 l 1,12,-1
 148 560 l 1,13,-1
 225 560 l 1,14,-1
 268 482 l 1,11,-1
EndSplineSet
EndChar
StartChar: Atilde
Encoding: 195 195 174
Width: 364
Flags: W
Fore
134 181 m 1,0,-1
 217 181 l 1,1,-1
 212 360 l 1,2,-1
 134 181 l 1,0,-1
278 440 m 1,3,-1
 311 0 l 1,4,-1
 225 0 l 1,5,-1
 221 109 l 1,6,-1
 103 109 l 1,7,-1
 55 0 l 1,8,-1
 -33 0 l 1,9,-1
 172 440 l 1,10,-1
 278 440 l 1,3,-1
216 508 m 2,11,12
 209 514 209 514 204 516 c 128,-1,13
 199 518 199 518 194 518 c 0,14,15
 183 518 183 518 175.5 508.5 c 128,-1,16
 168 499 168 499 165 482 c 1,17,-1
 124 482 l 1,18,19
 132 520 132 520 151 540.5 c 128,-1,20
 170 561 170 561 199 561 c 0,21,22
 218 561 218 561 239 546 c 2,23,-1
 255 534 l 2,24,25
 265 526 265 526 275 526 c 0,26,27
 299 526 299 526 305 561 c 1,28,-1
 345 561 l 1,29,30
 330 482 330 482 272 482 c 0,31,32
 261 482 261 482 251.5 485.5 c 128,-1,33
 242 489 242 489 231 497 c 2,34,-1
 216 508 l 2,11,12
EndSplineSet
EndChar
StartChar: Otilde
Encoding: 213 213 175
Width: 364
Flags: W
Fore
256 301 m 0,0,1
 256 372 256 372 209 372 c 0,2,3
 172 372 172 372 151 330 c 0,4,5
 144 319 144 319 138 300 c 128,-1,6
 132 281 132 281 125 254 c 0,7,8
 108 184 108 184 108 139 c 0,9,10
 108 69 108 69 155 69 c 0,11,12
 190 69 190 69 213 110 c 0,13,14
 227 136 227 136 239 186 c 0,15,16
 256 256 256 256 256 301 c 0,0,1
18 137 m 0,17,18
 18 196 18 196 33 257 c 0,19,20
 40 287 40 287 50 313.5 c 128,-1,21
 60 340 60 340 73 363 c 0,22,23
 96 405 96 405 132.5 426.5 c 128,-1,24
 169 448 169 448 215 448 c 0,25,26
 279 448 279 448 312 411 c 128,-1,27
 345 374 345 374 345 304 c 0,28,29
 345 274 345 274 342 244 c 128,-1,30
 339 214 339 214 331 183 c 0,31,32
 316 123 316 123 292 78 c 0,33,34
 269 36 269 36 232 13.5 c 128,-1,35
 195 -9 195 -9 149 -9 c 0,36,37
 84 -9 84 -9 51 28 c 128,-1,38
 18 65 18 65 18 137 c 0,17,18
216 508 m 2,39,40
 209 514 209 514 204 516 c 128,-1,41
 199 518 199 518 194 518 c 0,42,43
 183 518 183 518 175.5 508.5 c 128,-1,44
 168 499 168 499 165 482 c 1,45,-1
 124 482 l 1,46,47
 132 520 132 520 151 540.5 c 128,-1,48
 170 561 170 561 199 561 c 0,49,50
 218 561 218 561 239 546 c 2,51,-1
 255 534 l 2,52,53
 265 526 265 526 275 526 c 0,54,55
 299 526 299 526 305 561 c 1,56,-1
 345 561 l 1,57,58
 330 482 330 482 272 482 c 0,59,60
 261 482 261 482 251.5 485.5 c 128,-1,61
 242 489 242 489 231 497 c 2,62,-1
 216 508 l 2,39,40
EndSplineSet
EndChar
StartChar: OE
Encoding: 338 338 176
Width: 364
Flags: W
Fore
316 0 m 1,0,-1
 146 0 l 2,1,2
 72 0 72 0 40 27 c 0,3,4
 9 54 9 54 9 115 c 0,5,6
 9 138 9 138 11.5 162.5 c 128,-1,7
 14 187 14 187 19 214 c 256,8,9
 24 241 24 241 31 267 c 128,-1,10
 38 293 38 293 47 319 c 0,11,12
 68 382 68 382 104 411 c 128,-1,13
 140 440 140 440 196 440 c 2,14,-1
 399 440 l 1,15,-1
 384 364 l 1,16,-1
 286 364 l 1,17,-1
 268 272 l 1,18,-1
 357 272 l 1,19,-1
 342 195 l 1,20,-1
 253 195 l 1,21,-1
 230 77 l 1,22,-1
 331 77 l 1,23,-1
 316 0 l 1,0,-1
196 364 m 1,24,25
 146 364 146 364 127 306 c 0,26,27
 119 283 119 283 113 260 c 128,-1,28
 107 237 107 237 102 211 c 0,29,30
 93 162 93 162 93 128 c 0,31,32
 93 77 93 77 140 77 c 2,33,-1
 155 77 l 1,34,-1
 211 364 l 1,35,-1
 196 364 l 1,36,-1
 196 364 l 1,24,25
EndSplineSet
EndChar
StartChar: oe
Encoding: 339 339 177
Width: 364
Flags: W
Fore
304 223 m 2,0,1
 307 235 307 235 307 246 c 0,2,3
 307 276 307 276 282 276 c 0,4,5
 251 276 251 276 239 224 c 2,6,-1
 235 204 l 1,7,-1
 301 204 l 1,8,-1
 304 223 l 2,0,1
223 141 m 1,9,10
 220 125 220 125 219.5 117.5 c 128,-1,11
 219 110 219 110 219 105 c 0,12,13
 219 82 219 82 231.5 68 c 128,-1,14
 244 54 244 54 265 54 c 0,15,16
 302 54 302 54 341 85 c 1,17,-1
 327 15 l 1,18,19
 293 -9 293 -9 245 -9 c 0,20,21
 217 -9 217 -9 197.5 3.5 c 128,-1,22
 178 16 178 16 172 36 c 1,23,24
 144 -9 144 -9 88 -9 c 0,25,26
 -6 -9 -6 -9 -6 88 c 0,27,28
 -6 108 -6 108 -3.5 130.5 c 128,-1,29
 -1 153 -1 153 4 176 c 0,30,31
 13 225 13 225 29 260 c 0,32,33
 63 338 63 338 143 338 c 0,34,35
 191 338 191 338 214 303 c 1,36,37
 243 338 243 338 293 338 c 0,38,39
 372 338 372 338 372 259 c 0,40,41
 372 230 372 230 363 179 c 2,42,-1
 356 141 l 1,43,-1
 223 141 l 1,9,10
94 54 m 0,44,45
 123 54 123 54 137 95 c 0,46,47
 142 107 142 107 153 165 c 0,48,49
 164 220 164 220 164 235 c 0,50,51
 164 276 164 276 132 276 c 0,52,53
 117 276 117 276 107 266.5 c 128,-1,54
 97 257 97 257 89 235 c 0,55,56
 85 223 85 223 81 204.5 c 128,-1,57
 77 186 77 186 72 165 c 0,58,59
 67 141 67 141 64.5 123 c 128,-1,60
 62 105 62 105 62 95 c 0,61,62
 62 54 62 54 94 54 c 0,44,45
EndSplineSet
EndChar
StartChar: endash
Encoding: 8211 8211 178
Width: 364
Flags: W
Fore
361 204 m 1,0,-1
 346 131 l 1,1,-1
 -17 131 l 1,2,-1
 -3 204 l 1,3,-1
 361 204 l 1,0,-1
EndSplineSet
EndChar
StartChar: emdash
Encoding: 8212 8212 179
Width: 364
Flags: W
Fore
361 204 m 1,0,-1
 346 131 l 1,1,-1
 -17 131 l 1,2,-1
 -3 204 l 1,3,-1
 361 204 l 1,0,-1
EndSplineSet
EndChar
StartChar: quotedblleft
Encoding: 8220 8220 180
Width: 364
Flags: W
Fore
58 266 m 1,0,-1
 73 346 l 1,1,-1
 153 459 l 1,2,-1
 216 459 l 1,3,-1
 165 346 l 1,4,-1
 150 266 l 1,5,-1
 58 266 l 1,0,-1
211 266 m 1,6,-1
 227 346 l 1,7,-1
 306 459 l 1,8,-1
 370 459 l 1,9,-1
 319 346 l 1,10,-1
 303 266 l 1,11,-1
 211 266 l 1,6,-1
EndSplineSet
EndChar
StartChar: quotedblright
Encoding: 8221 8221 181
Width: 364
Flags: W
Fore
356 459 m 1,0,-1
 340 379 l 1,1,-1
 260 266 l 1,2,-1
 197 266 l 1,3,-1
 248 379 l 1,4,-1
 263 459 l 1,5,-1
 356 459 l 1,0,-1
202 459 m 1,6,-1
 187 379 l 1,7,-1
 107 266 l 1,8,-1
 43 266 l 1,9,-1
 94 379 l 1,10,-1
 110 459 l 1,11,-1
 202 459 l 1,6,-1
EndSplineSet
EndChar
StartChar: quoteleft
Encoding: 8216 8216 182
Width: 364
Flags: W
Fore
124 266 m 1,0,-1
 140 346 l 1,1,-1
 219 459 l 1,2,-1
 283 459 l 1,3,-1
 232 346 l 1,4,-1
 216 266 l 1,5,-1
 124 266 l 1,0,-1
EndSplineSet
EndChar
StartChar: quoteright
Encoding: 8217 8217 183
Width: 364
Flags: W
Fore
283 459 m 1,0,-1
 267 379 l 1,1,-1
 187 266 l 1,2,-1
 124 266 l 1,3,-1
 175 379 l 1,4,-1
 190 459 l 1,5,-1
 283 459 l 1,0,-1
EndSplineSet
EndChar
StartChar: divide
Encoding: 247 247 184
Width: 364
Flags: W
Fore
227 353 m 1,0,-1
 227 262 l 1,1,-1
 136 262 l 1,2,-1
 136 353 l 1,3,-1
 227 353 l 1,0,-1
227 117 m 1,4,-1
 227 25 l 1,5,-1
 136 25 l 1,6,-1
 136 117 l 1,7,-1
 227 117 l 1,4,-1
344 225 m 1,8,-1
 344 155 l 1,9,-1
 19 155 l 1,10,-1
 19 225 l 1,11,-1
 344 225 l 1,8,-1
EndSplineSet
EndChar
StartChar: lozenge
Encoding: 9674 9674 185
Width: 364
Flags: W
Fore
68 175 m 1,0,-1
 182 -69 l 1,1,-1
 295 175 l 1,2,-1
 182 416 l 1,3,-1
 68 175 l 1,0,-1
329 175 m 1,4,-1
 182 -141 l 1,5,-1
 35 175 l 1,6,-1
 182 488 l 1,7,-1
 329 175 l 1,4,-1
EndSplineSet
EndChar
StartChar: ydieresis
Encoding: 255 255 186
Width: 364
Flags: W
Fore
163 -36 m 1,0,1
 146 -65 146 -65 132 -83 c 128,-1,2
 118 -101 118 -101 105 -109 c 0,3,4
 82 -125 82 -125 44 -125 c 2,5,-1
 -27 -125 l 1,6,-1
 -13 -59 l 1,7,-1
 21 -59 l 2,8,9
 47 -59 47 -59 62 -50 c 0,10,11
 76 -42 76 -42 94 -9 c 2,12,-1
 106 13 l 1,13,-1
 42 330 l 1,14,-1
 129 330 l 1,15,-1
 167 124 l 1,16,-1
 280 330 l 1,17,-1
 371 330 l 1,18,-1
 163 -36 l 1,19,-1
 163 -36 l 1,0,1
323 468 m 1,20,-1
 309 395 l 1,21,-1
 239 395 l 1,22,-1
 253 468 l 1,23,-1
 323 468 l 1,20,-1
207 468 m 1,24,-1
 192 395 l 1,25,-1
 123 395 l 1,26,-1
 137 468 l 1,27,-1
 207 468 l 1,24,-1
EndSplineSet
EndChar
StartChar: Ydieresis
Encoding: 376 376 187
Width: 364
Flags: W
Fore
129 440 m 1,0,-1
 184 249 l 1,1,-1
 306 440 l 1,2,-1
 401 440 l 1,3,-1
 214 173 l 1,4,-1
 180 0 l 1,5,-1
 94 0 l 1,6,-1
 127 173 l 1,7,-1
 43 440 l 1,8,-1
 129 440 l 1,0,-1
333 560 m 1,9,-1
 319 488 l 1,10,-1
 250 488 l 1,11,-1
 264 560 l 1,12,-1
 333 560 l 1,9,-1
217 560 m 1,13,-1
 202 488 l 1,14,-1
 133 488 l 1,15,-1
 148 560 l 1,16,-1
 217 560 l 1,13,-1
EndSplineSet
EndChar
StartChar: fraction
Encoding: 8725 8725 188
Width: 364
Flags: W
Fore
371 440 m 1,0,-1
 43 -55 l 1,1,-1
 -27 -55 l 1,2,-1
 301 440 l 1,3,-1
 371 440 l 1,0,-1
EndSplineSet
EndChar
StartChar: currency
Encoding: 164 164 189
Width: 364
Flags: W
Fore
244 190 m 0,0,1
 244 211 244 211 229 226 c 0,2,3
 213 240 213 240 193 240 c 0,4,5
 172 240 172 240 156 226 c 0,6,7
 141 211 141 211 141 190 c 0,8,9
 141 168 141 168 156 153 c 256,10,11
 171 138 171 138 193 138 c 0,12,13
 214 138 214 138 229 153 c 256,14,15
 244 168 244 168 244 190 c 0,0,1
292 327 m 1,16,-1
 330 289 l 1,17,-1
 280 239 l 1,18,19
 293 214 293 214 293 189 c 0,20,21
 293 161 293 161 279 141 c 1,22,-1
 330 91 l 1,23,-1
 291 52 l 1,24,-1
 241 103 l 1,25,26
 221 89 221 89 193 89 c 0,27,28
 170 89 170 89 143 101 c 1,29,-1
 93 52 l 1,30,-1
 55 90 l 1,31,-1
 105 140 l 1,32,33
 92 165 92 165 92 189 c 0,34,35
 92 217 92 217 106 238 c 1,36,-1
 55 288 l 1,37,-1
 94 327 l 1,38,-1
 142 276 l 1,39,40
 166 290 166 290 193 290 c 0,41,42
 216 290 216 290 242 277 c 1,43,-1
 292 327 l 1,16,-1
EndSplineSet
EndChar
StartChar: guilsinglleft
Encoding: 8249 8249 190
Width: 364
Flags: W
Fore
244 238 m 1,0,-1
 150 171 l 1,1,-1
 218 104 l 1,2,-1
 206 42 l 1,3,-1
 90 158 l 1,4,-1
 97 196 l 1,5,-1
 259 312 l 1,6,-1
 244 238 l 1,0,-1
EndSplineSet
EndChar
StartChar: guilsinglright
Encoding: 8250 8250 191
Width: 364
Flags: W
Fore
262 196 m 1,0,-1
 254 158 l 1,1,-1
 94 42 l 1,2,-1
 107 112 l 1,3,-1
 202 177 l 1,4,-1
 132 242 l 1,5,-1
 146 312 l 1,6,-1
 262 196 l 1,0,-1
EndSplineSet
EndChar
StartChar: fi
Encoding: 64257 64257 192
Width: 364
Flags: W
Fore
378 459 m 1,0,-1
 361 373 l 1,1,-1
 275 373 l 1,2,-1
 291 459 l 1,3,-1
 378 459 l 1,0,-1
175 330 m 1,4,-1
 353 330 l 1,5,-1
 289 0 l 1,6,-1
 202 0 l 1,7,-1
 254 264 l 1,8,-1
 162 264 l 1,9,-1
 111 0 l 1,10,-1
 24 0 l 1,11,-1
 76 264 l 1,12,-1
 19 264 l 1,13,-1
 33 330 l 1,14,-1
 89 330 l 1,15,-1
 93 353 l 2,16,17
 105 413 105 413 134 436 c 256,18,19
 163 459 163 459 230 459 c 2,20,-1
 254 459 l 1,21,-1
 241 393 l 1,22,-1
 221 393 l 2,23,24
 201 393 201 393 193 385.5 c 128,-1,25
 185 378 185 378 181 360 c 2,26,-1
 175 330 l 1,4,-1
EndSplineSet
Ligature: 0 0 'liga' f i
EndChar
StartChar: fl
Encoding: 64258 64258 193
Width: 364
Flags: W
Fore
175 330 m 1,0,-1
 230 330 l 1,1,-1
 217 264 l 1,2,-1
 162 264 l 1,3,-1
 111 0 l 1,4,-1
 24 0 l 1,5,-1
 76 264 l 1,6,-1
 19 264 l 1,7,-1
 33 330 l 1,8,-1
 89 330 l 1,9,-1
 93 353 l 2,10,11
 105 413 105 413 134 436 c 256,12,13
 163 459 163 459 230 459 c 2,14,-1
 378 459 l 1,15,-1
 289 0 l 1,16,-1
 202 0 l 1,17,-1
 278 393 l 1,18,-1
 221 393 l 2,19,20
 201 393 201 393 193 385.5 c 128,-1,21
 185 378 185 378 181 360 c 2,22,-1
 175 330 l 1,0,-1
EndSplineSet
Ligature: 0 0 'liga' f l
EndChar
StartChar: daggerdbl
Encoding: 8225 8225 194
Width: 364
Flags: W
Fore
262 440 m 1,0,-1
 240 326 l 1,1,-1
 338 326 l 1,2,-1
 325 260 l 1,3,-1
 227 260 l 1,4,-1
 201 122 l 1,5,-1
 299 122 l 1,6,-1
 286 56 l 1,7,-1
 187 56 l 1,8,-1
 165 -58 l 1,9,-1
 90 -58 l 1,10,-1
 112 56 l 1,11,-1
 14 56 l 1,12,-1
 27 122 l 1,13,-1
 125 122 l 1,14,-1
 152 260 l 1,15,-1
 54 260 l 1,16,-1
 67 326 l 1,17,-1
 164 326 l 1,18,-1
 187 440 l 1,19,-1
 262 440 l 1,0,-1
EndSplineSet
EndChar
StartChar: periodcentered
Encoding: 183 183 195
Width: 364
Flags: W
Fore
240 264 m 1,0,-1
 219 156 l 1,1,-1
 120 156 l 1,2,-1
 141 264 l 1,3,-1
 240 264 l 1,0,-1
EndSplineSet
EndChar
StartChar: quotesinglbase
Encoding: 8218 8218 196
Width: 364
Flags: W
Fore
210 108 m 1,0,-1
 194 28 l 1,1,-1
 114 -85 l 1,2,-1
 51 -85 l 1,3,-1
 101 28 l 1,4,-1
 117 108 l 1,5,-1
 210 108 l 1,0,-1
EndSplineSet
EndChar
StartChar: quotedblbase
Encoding: 8222 8222 197
Width: 364
Flags: W
Fore
289 108 m 1,0,-1
 274 28 l 1,1,-1
 193 -85 l 1,2,-1
 130 -85 l 1,3,-1
 181 28 l 1,4,-1
 196 108 l 1,5,-1
 289 108 l 1,0,-1
135 108 m 1,6,-1
 120 28 l 1,7,-1
 40 -85 l 1,8,-1
 -23 -85 l 1,9,-1
 28 28 l 1,10,-1
 43 108 l 1,11,-1
 135 108 l 1,6,-1
EndSplineSet
EndChar
StartChar: perthousand
Encoding: 8240 8240 198
Width: 364
Flags: W
Fore
195 85 m 1,0,1
 195 121 195 121 219 145 c 0,2,3
 246 170 246 170 279 170 c 256,4,5
 312 170 312 170 339 145 c 0,6,7
 364 120 364 120 364 85 c 0,8,9
 364 52 364 52 339 25 c 0,10,11
 314 0 314 0 279 0 c 256,12,13
 244 0 244 0 220 24 c 0,14,15
 195 51 195 51 195 84 c 2,16,-1
 195 85 l 1,17,-1
 195 85 l 1,0,1
279 122 m 0,18,19
 266 122 266 122 253 111 c 0,20,21
 243 101 243 101 243 85 c 256,22,23
 243 69 243 69 253 59 c 0,24,25
 263 48 263 48 279 48 c 256,26,27
 295 48 295 48 305 59 c 0,28,29
 316 70 316 70 316 85 c 256,30,31
 316 100 316 100 305 111 c 256,32,33
 294 122 294 122 279 122 c 0,18,19
0 338 m 0,34,35
 0 373 0 373 24 398 c 0,36,37
 50 422 50 422 85 422 c 256,38,39
 120 422 120 422 144 398 c 0,40,41
 168 373 168 373 168 338 c 256,42,43
 168 303 168 303 144 277 c 0,44,45
 120 253 120 253 85 253 c 0,46,47
 49 253 49 253 25 277 c 0,48,49
 0 302 0 302 0 338 c 0,34,35
84 375 m 0,50,51
 69 375 69 375 58.5 364.5 c 128,-1,52
 48 354 48 354 48 338 c 256,53,54
 48 322 48 322 58 312 c 0,55,56
 69 300 69 300 84 300 c 0,57,58
 100 300 100 300 110 312 c 0,59,60
 121 323 121 323 121 338 c 0,61,62
 121 351 121 351 110 364 c 1,63,64
 97 375 97 375 84 375 c 0,50,51
13 85 m 0,65,66
 13 121 13 121 37 145 c 0,67,68
 64 170 64 170 97 170 c 0,69,70
 132 170 132 170 157 145 c 256,71,72
 182 120 182 120 182 85 c 0,73,74
 182 52 182 52 157 25 c 0,75,76
 132 0 132 0 97 0 c 256,77,78
 62 0 62 0 38 25 c 0,79,80
 13 50 13 50 13 85 c 0,65,66
97 122 m 0,81,82
 82 122 82 122 72 112 c 0,83,84
 61 99 61 99 61 86 c 0,85,86
 61 70 61 70 72 59 c 256,87,88
 83 48 83 48 97 48 c 0,89,90
 112 48 112 48 123 59 c 256,91,92
 134 70 134 70 134 86 c 0,93,94
 134 100 134 100 123 111 c 0,95,96
 113 122 113 122 97 122 c 0,81,82
318 318 m 1,97,-1
 330 291 l 1,98,-1
 21 167 l 1,99,-1
 10 196 l 1,100,-1
 318 318 l 1,97,-1
EndSplineSet
EndChar
StartChar: Acircumflex
Encoding: 194 194 199
Width: 364
Flags: W
Fore
134 181 m 1,0,-1
 217 181 l 1,1,-1
 212 360 l 1,2,-1
 134 181 l 1,0,-1
278 440 m 1,3,-1
 311 0 l 1,4,-1
 225 0 l 1,5,-1
 221 109 l 1,6,-1
 103 109 l 1,7,-1
 55 0 l 1,8,-1
 -33 0 l 1,9,-1
 172 440 l 1,10,-1
 278 440 l 1,3,-1
291 560 m 1,11,-1
 336 482 l 1,12,-1
 286 482 l 1,13,-1
 237 530 l 1,14,-1
 170 482 l 1,15,-1
 117 482 l 1,16,-1
 189 560 l 1,17,-1
 291 560 l 1,11,-1
EndSplineSet
EndChar
StartChar: Ecircumflex
Encoding: 202 202 200
Width: 364
Flags: W
Fore
9 0 m 1,0,-1
 94 440 l 1,1,-1
 368 440 l 1,2,-1
 353 364 l 1,3,-1
 166 364 l 1,4,-1
 148 269 l 1,5,-1
 317 269 l 1,6,-1
 303 192 l 1,7,-1
 133 192 l 1,8,-1
 111 77 l 1,9,-1
 298 77 l 1,10,-1
 283 0 l 1,11,-1
 9 0 l 1,0,-1
302 560 m 1,12,-1
 347 482 l 1,13,-1
 297 482 l 1,14,-1
 248 530 l 1,15,-1
 181 482 l 1,16,-1
 127 482 l 1,17,-1
 199 560 l 1,18,-1
 302 560 l 1,12,-1
EndSplineSet
EndChar
StartChar: Aacute
Encoding: 193 193 201
Width: 364
Flags: W
Fore
134 181 m 1,0,-1
 217 181 l 1,1,-1
 212 360 l 1,2,-1
 134 181 l 1,0,-1
278 440 m 1,3,-1
 311 0 l 1,4,-1
 225 0 l 1,5,-1
 221 109 l 1,6,-1
 103 109 l 1,7,-1
 55 0 l 1,8,-1
 -33 0 l 1,9,-1
 172 440 l 1,10,-1
 278 440 l 1,3,-1
337 560 m 1,11,-1
 243 482 l 1,12,-1
 182 482 l 1,13,-1
 254 560 l 1,14,-1
 337 560 l 1,11,-1
EndSplineSet
EndChar
StartChar: Edieresis
Encoding: 203 203 202
Width: 364
Flags: W
Fore
9 0 m 1,0,-1
 94 440 l 1,1,-1
 368 440 l 1,2,-1
 353 364 l 1,3,-1
 166 364 l 1,4,-1
 148 269 l 1,5,-1
 317 269 l 1,6,-1
 303 192 l 1,7,-1
 133 192 l 1,8,-1
 111 77 l 1,9,-1
 298 77 l 1,10,-1
 283 0 l 1,11,-1
 9 0 l 1,0,-1
345 560 m 1,12,-1
 332 488 l 1,13,-1
 262 488 l 1,14,-1
 276 560 l 1,15,-1
 345 560 l 1,12,-1
229 560 m 1,16,-1
 214 488 l 1,17,-1
 145 488 l 1,18,-1
 160 560 l 1,19,-1
 229 560 l 1,16,-1
EndSplineSet
EndChar
StartChar: Egrave
Encoding: 200 200 203
Width: 364
Flags: W
Fore
9 0 m 1,0,-1
 94 440 l 1,1,-1
 368 440 l 1,2,-1
 353 364 l 1,3,-1
 166 364 l 1,4,-1
 148 269 l 1,5,-1
 317 269 l 1,6,-1
 303 192 l 1,7,-1
 133 192 l 1,8,-1
 111 77 l 1,9,-1
 298 77 l 1,10,-1
 283 0 l 1,11,-1
 9 0 l 1,0,-1
278 482 m 1,12,-1
 226 482 l 1,13,-1
 158 560 l 1,14,-1
 236 560 l 1,15,-1
 278 482 l 1,12,-1
EndSplineSet
EndChar
StartChar: Iacute
Encoding: 205 205 204
Width: 364
Flags: W
Fore
94 440 m 1,0,-1
 356 440 l 1,1,-1
 341 364 l 1,2,-1
 253 364 l 1,3,-1
 198 77 l 1,4,-1
 285 77 l 1,5,-1
 270 0 l 1,6,-1
 8 0 l 1,7,-1
 23 77 l 1,8,-1
 111 77 l 1,9,-1
 166 364 l 1,10,-1
 78 364 l 1,11,-1
 94 440 l 1,0,-1
336 560 m 1,12,-1
 242 482 l 1,13,-1
 181 482 l 1,14,-1
 253 560 l 1,15,-1
 336 560 l 1,12,-1
EndSplineSet
EndChar
StartChar: Icircumflex
Encoding: 206 206 205
Width: 364
Flags: W
Fore
94 440 m 1,0,-1
 356 440 l 1,1,-1
 341 364 l 1,2,-1
 253 364 l 1,3,-1
 198 77 l 1,4,-1
 285 77 l 1,5,-1
 270 0 l 1,6,-1
 8 0 l 1,7,-1
 23 77 l 1,8,-1
 111 77 l 1,9,-1
 166 364 l 1,10,-1
 78 364 l 1,11,-1
 94 440 l 1,0,-1
290 560 m 1,12,-1
 335 482 l 1,13,-1
 285 482 l 1,14,-1
 236 530 l 1,15,-1
 168 482 l 1,16,-1
 115 482 l 1,17,-1
 187 560 l 1,18,-1
 290 560 l 1,12,-1
EndSplineSet
EndChar
StartChar: Idieresis
Encoding: 207 207 206
Width: 364
Flags: W
Fore
94 440 m 1,0,-1
 356 440 l 1,1,-1
 341 364 l 1,2,-1
 253 364 l 1,3,-1
 198 77 l 1,4,-1
 285 77 l 1,5,-1
 270 0 l 1,6,-1
 8 0 l 1,7,-1
 23 77 l 1,8,-1
 111 77 l 1,9,-1
 166 364 l 1,10,-1
 78 364 l 1,11,-1
 94 440 l 1,0,-1
333 560 m 1,12,-1
 319 488 l 1,13,-1
 250 488 l 1,14,-1
 264 560 l 1,15,-1
 333 560 l 1,12,-1
217 560 m 1,16,-1
 202 488 l 1,17,-1
 133 488 l 1,18,-1
 148 560 l 1,19,-1
 217 560 l 1,16,-1
EndSplineSet
EndChar
StartChar: Igrave
Encoding: 204 204 207
Width: 364
Flags: W
Fore
94 440 m 1,0,-1
 356 440 l 1,1,-1
 341 364 l 1,2,-1
 253 364 l 1,3,-1
 198 77 l 1,4,-1
 285 77 l 1,5,-1
 270 0 l 1,6,-1
 8 0 l 1,7,-1
 23 77 l 1,8,-1
 111 77 l 1,9,-1
 166 364 l 1,10,-1
 78 364 l 1,11,-1
 94 440 l 1,0,-1
266 482 m 1,12,-1
 214 482 l 1,13,-1
 146 560 l 1,14,-1
 224 560 l 1,15,-1
 266 482 l 1,12,-1
EndSplineSet
EndChar
StartChar: Oacute
Encoding: 211 211 208
Width: 364
Flags: W
Fore
256 301 m 0,0,1
 256 372 256 372 209 372 c 0,2,3
 172 372 172 372 151 330 c 0,4,5
 144 319 144 319 138 300 c 128,-1,6
 132 281 132 281 125 254 c 0,7,8
 108 184 108 184 108 139 c 0,9,10
 108 69 108 69 155 69 c 0,11,12
 190 69 190 69 213 110 c 0,13,14
 227 136 227 136 239 186 c 0,15,16
 256 256 256 256 256 301 c 0,0,1
18 137 m 0,17,18
 18 196 18 196 33 257 c 0,19,20
 40 287 40 287 50 313.5 c 128,-1,21
 60 340 60 340 73 363 c 0,22,23
 96 405 96 405 132.5 426.5 c 128,-1,24
 169 448 169 448 215 448 c 0,25,26
 279 448 279 448 312 411 c 128,-1,27
 345 374 345 374 345 304 c 0,28,29
 345 274 345 274 342 244 c 128,-1,30
 339 214 339 214 331 183 c 0,31,32
 316 123 316 123 292 78 c 0,33,34
 269 36 269 36 232 13.5 c 128,-1,35
 195 -9 195 -9 149 -9 c 0,36,37
 84 -9 84 -9 51 28 c 128,-1,38
 18 65 18 65 18 137 c 0,17,18
337 560 m 1,39,-1
 243 482 l 1,40,-1
 182 482 l 1,41,-1
 254 560 l 1,42,-1
 337 560 l 1,39,-1
EndSplineSet
EndChar
StartChar: Ocircumflex
Encoding: 212 212 209
Width: 364
Flags: W
Fore
256 301 m 0,0,1
 256 372 256 372 209 372 c 0,2,3
 172 372 172 372 151 330 c 0,4,5
 144 319 144 319 138 300 c 128,-1,6
 132 281 132 281 125 254 c 0,7,8
 108 184 108 184 108 139 c 0,9,10
 108 69 108 69 155 69 c 0,11,12
 190 69 190 69 213 110 c 0,13,14
 227 136 227 136 239 186 c 0,15,16
 256 256 256 256 256 301 c 0,0,1
18 137 m 0,17,18
 18 196 18 196 33 257 c 0,19,20
 40 287 40 287 50 313.5 c 128,-1,21
 60 340 60 340 73 363 c 0,22,23
 96 405 96 405 132.5 426.5 c 128,-1,24
 169 448 169 448 215 448 c 0,25,26
 279 448 279 448 312 411 c 128,-1,27
 345 374 345 374 345 304 c 0,28,29
 345 274 345 274 342 244 c 128,-1,30
 339 214 339 214 331 183 c 0,31,32
 316 123 316 123 292 78 c 0,33,34
 269 36 269 36 232 13.5 c 128,-1,35
 195 -9 195 -9 149 -9 c 0,36,37
 84 -9 84 -9 51 28 c 128,-1,38
 18 65 18 65 18 137 c 0,17,18
291 560 m 1,39,-1
 336 482 l 1,40,-1
 286 482 l 1,41,-1
 237 530 l 1,42,-1
 170 482 l 1,43,-1
 117 482 l 1,44,-1
 189 560 l 1,45,-1
 291 560 l 1,39,-1
EndSplineSet
EndChar
StartChar: Lslash
Encoding: 321 321 210
Width: 364
Flags: W
Fore
52 148 m 1,0,-1
 13 119 l 1,1,-1
 -21 164 l 1,2,-1
 68 227 l 1,3,-1
 109 440 l 1,4,-1
 196 440 l 1,5,-1
 168 299 l 1,6,-1
 242 350 l 1,7,-1
 276 304 l 1,8,-1
 153 217 l 1,9,-1
 126 77 l 1,10,-1
 312 77 l 1,11,-1
 297 0 l 1,12,-1
 24 0 l 1,13,-1
 52 148 l 1,0,-1
EndSplineSet
EndChar
StartChar: lslash
Encoding: 322 322 211
Width: 364
Flags: W
Fore
189 107 m 1,0,1
 187 102 187 102 186.5 97.5 c 128,-1,2
 186 93 186 93 186 91 c 0,3,4
 186 77 186 77 195 71.5 c 128,-1,5
 204 66 204 66 227 66 c 2,6,-1
 309 66 l 1,7,-1
 296 0 l 1,8,-1
 209 0 l 2,9,10
 149 0 149 0 123 17 c 0,11,12
 98 32 98 32 98 71 c 0,13,14
 98 79 98 79 99.5 88.5 c 128,-1,15
 101 98 101 98 103 112 c 2,16,-1
 119 189 l 1,17,-1
 37 131 l 1,18,-1
 11 174 l 1,19,-1
 134 258 l 1,20,-1
 163 393 l 1,21,-1
 73 393 l 1,22,-1
 86 459 l 1,23,-1
 262 459 l 1,24,-1
 235 325 l 1,25,-1
 320 385 l 1,26,-1
 350 344 l 1,27,-1
 220 255 l 1,28,-1
 189 107 l 1,29,-1
 189 107 l 1,0,1
EndSplineSet
EndChar
StartChar: Scaron
Encoding: 352 352 212
Width: 364
Flags: W
Fore
149 196 m 1,0,1
 91 221 91 221 74 242 c 0,2,3
 56 263 56 263 56 301 c 0,4,5
 56 367 56 367 104 407 c 0,6,7
 127 428 127 428 158 438 c 128,-1,8
 189 448 189 448 227 448 c 0,9,10
 288 448 288 448 342 424 c 1,11,-1
 325 340 l 1,12,13
 285 377 285 377 219 377 c 0,14,15
 184 377 184 377 162 360 c 256,16,17
 140 343 140 343 140 318 c 0,18,19
 140 294 140 294 194 268 c 1,20,-1
 196 268 l 1,21,-1
 231 253 l 2,22,23
 274 233 274 233 294 206 c 128,-1,24
 314 179 314 179 314 140 c 0,25,26
 314 73 314 73 266 32 c 0,27,28
 219 -9 219 -9 138 -9 c 0,29,30
 73 -9 73 -9 1 22 c 1,31,-1
 19 112 l 1,32,33
 48 89 48 89 78.5 76 c 128,-1,34
 109 63 109 63 141 63 c 0,35,36
 181 63 181 63 203 80.5 c 128,-1,37
 225 98 225 98 225 127 c 0,38,39
 225 165 225 165 184 181 c 2,40,-1
 149 196 l 1,41,-1
 149 196 l 1,0,1
175 482 m 1,42,-1
 135 560 l 1,43,-1
 185 560 l 1,44,-1
 229 512 l 1,45,-1
 296 560 l 1,46,-1
 350 560 l 1,47,-1
 278 482 l 1,48,-1
 175 482 l 1,42,-1
EndSplineSet
EndChar
StartChar: scaron
Encoding: 353 353 213
Width: 364
Flags: W
Fore
176 372 m 1,0,-1
 122 483 l 1,1,-1
 173 483 l 1,2,-1
 219 416 l 1,3,-1
 289 483 l 1,4,-1
 345 483 l 1,5,-1
 247 372 l 1,6,-1
 176 372 l 1,0,-1
308 245 m 1,7,8
 262 277 262 277 207 277 c 0,9,10
 179 277 179 277 163 266.5 c 128,-1,11
 147 256 147 256 147 239 c 0,12,13
 147 225 147 225 158 217 c 0,14,15
 168 210 168 210 207 198 c 2,16,-1
 228 192 l 2,17,18
 266 181 266 181 283.5 160.5 c 128,-1,19
 301 140 301 140 301 106 c 0,20,21
 301 52 301 52 260 22 c 0,22,23
 220 -9 220 -9 148 -9 c 0,24,25
 84 -9 84 -9 27 12 c 1,26,-1
 42 88 l 1,27,28
 68 71 68 71 95.5 62.5 c 128,-1,29
 123 54 123 54 150 54 c 0,30,31
 183 54 183 54 201 65 c 128,-1,32
 219 76 219 76 219 96 c 0,33,34
 219 110 219 110 210 117 c 0,35,36
 202 124 202 124 162 136 c 2,37,-1
 136 143 l 2,38,39
 66 163 66 163 66 228 c 0,40,41
 66 276 66 276 106 308 c 0,42,43
 147 338 147 338 213 338 c 0,44,45
 268 338 268 338 323 320 c 1,46,-1
 308 245 l 1,7,8
EndSplineSet
EndChar
StartChar: Zcaron
Encoding: 381 381 214
Width: 364
Flags: W
Fore
381 440 m 1,0,-1
 366 368 l 1,1,-1
 108 77 l 1,2,-1
 314 77 l 1,3,-1
 299 0 l 1,4,-1
 -10 0 l 1,5,-1
 4 72 l 1,6,-1
 257 364 l 1,7,-1
 68 364 l 1,8,-1
 83 440 l 1,9,-1
 381 440 l 1,0,-1
175 482 m 1,10,-1
 135 560 l 1,11,-1
 185 560 l 1,12,-1
 229 512 l 1,13,-1
 296 560 l 1,14,-1
 350 560 l 1,15,-1
 278 482 l 1,16,-1
 175 482 l 1,10,-1
EndSplineSet
EndChar
StartChar: zcaron
Encoding: 382 382 215
Width: 364
Flags: W
Fore
176 372 m 1,0,-1
 122 483 l 1,1,-1
 173 483 l 1,2,-1
 219 416 l 1,3,-1
 289 483 l 1,4,-1
 345 483 l 1,5,-1
 247 372 l 1,6,-1
 176 372 l 1,0,-1
350 330 m 1,7,-1
 337 263 l 1,8,-1
 129 65 l 1,9,-1
 299 65 l 1,10,-1
 286 0 l 1,11,-1
 14 0 l 1,12,-1
 28 68 l 1,13,-1
 236 266 l 1,14,-1
 74 266 l 1,15,-1
 86 330 l 1,16,-1
 350 330 l 1,7,-1
EndSplineSet
EndChar
StartChar: brokenbar
Encoding: 166 166 216
Width: 364
Flags: W
Fore
215 -103 m 1,0,-1
 148 -103 l 1,1,-1
 148 120 l 1,2,-1
 215 120 l 1,3,-1
 215 -103 l 1,0,-1
215 199 m 1,4,-1
 148 199 l 1,5,-1
 148 422 l 1,6,-1
 215 422 l 1,7,-1
 215 199 l 1,4,-1
EndSplineSet
EndChar
StartChar: Eth
Encoding: 208 208 217
Width: 364
Flags: W
Fore
176 440 m 2,0,1
 344 440 344 440 344 295 c 0,2,3
 344 269 344 269 339.5 240 c 128,-1,4
 335 211 335 211 327 178 c 0,5,6
 316 133 316 133 301 102 c 128,-1,7
 286 71 286 71 265 51 c 0,8,9
 236 24 236 24 198 12 c 0,10,11
 161 0 161 0 95 0 c 2,12,-1
 -2 0 l 1,13,-1
 36 196 l 1,14,-1
 -5 196 l 1,15,-1
 9 266 l 1,16,-1
 49 266 l 1,17,-1
 83 440 l 1,18,-1
 176 440 l 2,0,1
136 266 m 1,19,-1
 198 266 l 1,20,-1
 185 196 l 1,21,-1
 123 196 l 1,22,-1
 100 78 l 1,23,-1
 128 78 l 2,24,25
 193 78 193 78 219 130 c 0,26,27
 235 160 235 160 244 205 c 0,28,29
 249 227 249 227 251.5 246.5 c 128,-1,30
 254 266 254 266 254 285 c 0,31,32
 254 362 254 362 179 362 c 2,33,-1
 155 362 l 1,34,-1
 136 266 l 1,19,-1
EndSplineSet
EndChar
StartChar: eth
Encoding: 240 240 218
Width: 364
Flags: W
Fore
247 230 m 1,0,1
 225 242 225 242 199 242 c 0,2,3
 162 242 162 242 136 209 c 0,4,5
 111 177 111 177 111 126 c 0,6,7
 111 96 111 96 125.5 78.5 c 128,-1,8
 140 61 140 61 165 61 c 0,9,10
 202 61 202 61 226 98 c 0,11,12
 250 136 250 136 250 193 c 0,13,14
 250 212 250 212 247 230 c 1,0,1
266 392 m 1,15,16
 337 286 337 286 337 193 c 0,17,18
 337 102 337 102 288 47 c 0,19,20
 238 -9 238 -9 159 -9 c 0,21,22
 96 -9 96 -9 59 25 c 0,23,24
 24 60 24 60 24 122 c 0,25,26
 24 203 24 203 71 258 c 0,27,28
 119 311 119 311 192 311 c 0,29,30
 205 311 205 311 214.5 309 c 128,-1,31
 224 307 224 307 232 303 c 1,32,33
 224 322 224 322 216 337.5 c 128,-1,34
 208 353 208 353 200 367 c 1,35,-1
 103 330 l 1,36,-1
 91 364 l 1,37,-1
 181 398 l 1,38,-1
 144 459 l 1,39,-1
 227 459 l 1,40,-1
 248 424 l 1,41,-1
 344 458 l 1,42,-1
 356 425 l 1,43,-1
 266 392 l 1,44,-1
 266 392 l 1,15,16
EndSplineSet
EndChar
StartChar: Thorn
Encoding: 222 222 221
Width: 364
Flags: W
Fore
92 0 m 1,0,-1
 5 0 l 1,1,-1
 91 440 l 1,2,-1
 178 440 l 1,3,-1
 164 373 l 1,4,-1
 201 373 l 2,5,6
 271 373 271 373 307.5 346 c 128,-1,7
 344 319 344 319 344 268 c 0,8,9
 344 236 344 236 333 201 c 0,10,11
 322 167 322 167 305 149 c 0,12,13
 283 122 283 122 248 110 c 0,14,15
 214 98 214 98 159 98 c 2,16,-1
 111 98 l 1,17,-1
 92 0 l 1,0,-1
125 171 m 1,18,-1
 168 171 l 2,19,20
 253 171 253 171 253 251 c 0,21,22
 253 277 253 277 238 288.5 c 128,-1,23
 223 300 223 300 186 300 c 2,24,-1
 150 300 l 1,25,-1
 125 171 l 1,18,-1
EndSplineSet
EndChar
StartChar: thorn
Encoding: 254 254 222
Width: 364
Flags: W
Fore
178 62 m 0,0,1
 210 62 210 62 234 104 c 256,2,3
 258 146 258 146 258 205 c 0,4,5
 258 235 258 235 246 251.5 c 128,-1,6
 234 268 234 268 212 268 c 0,7,8
 179 268 179 268 153 227 c 0,9,10
 129 185 129 185 129 127 c 0,11,12
 129 96 129 96 142 79 c 128,-1,13
 155 62 155 62 178 62 c 0,0,1
76 -126 m 1,14,-1
 -11 -126 l 1,15,-1
 103 459 l 1,16,-1
 189 459 l 1,17,-1
 155 281 l 1,18,19
 197 338 197 338 251 338 c 0,20,21
 294 338 294 338 320 306 c 0,22,23
 345 274 345 274 345 218 c 0,24,25
 345 180 345 180 336 142 c 128,-1,26
 327 104 327 104 310 72 c 0,27,28
 289 34 289 34 259 13 c 0,29,30
 226 -9 226 -9 193 -9 c 256,31,32
 160 -9 160 -9 139 9.5 c 128,-1,33
 118 28 118 28 112 61 c 1,34,-1
 76 -126 l 1,14,-1
EndSplineSet
EndChar
StartChar: minus
Encoding: 8722 8722 223
Width: 364
Flags: W
Fore
344 225 m 1,0,-1
 344 155 l 1,1,-1
 19 155 l 1,2,-1
 19 225 l 1,3,-1
 344 225 l 1,0,-1
EndSplineSet
EndChar
StartChar: multiply
Encoding: 215 215 224
Width: 364
Flags: W
Fore
231 190 m 1,0,-1
 328 92 l 1,1,-1
 278 43 l 1,2,-1
 181 140 l 1,3,-1
 85 43 l 1,4,-1
 35 92 l 1,5,-1
 132 190 l 1,6,-1
 35 286 l 1,7,-1
 85 336 l 1,8,-1
 181 239 l 1,9,-1
 278 336 l 1,10,-1
 328 286 l 1,11,-1
 231 190 l 1,0,-1
EndSplineSet
EndChar
StartChar: onesuperior
Encoding: 185 185 225
Width: 364
Flags: W
Fore
163 240 m 1,0,-1
 194 400 l 1,1,-1
 126 387 l 1,2,-1
 135 431 l 1,3,-1
 202 443 l 1,4,-1
 260 443 l 1,5,-1
 221 240 l 1,6,-1
 288 240 l 1,7,-1
 279 197 l 1,8,-1
 85 197 l 1,9,-1
 93 240 l 1,10,-1
 163 240 l 1,0,-1
EndSplineSet
EndChar
StartChar: twosuperior
Encoding: 178 178 226
Width: 364
Flags: W
Fore
281 240 m 1,0,-1
 273 197 l 1,1,-1
 77 197 l 1,2,-1
 85 239 l 1,3,4
 100 250 100 250 127 269 c 0,5,6
 245 353 245 353 245 380 c 0,7,8
 245 408 245 408 204 408 c 0,9,10
 164 408 164 408 119 387 c 1,11,-1
 128 435 l 1,12,13
 171 448 171 448 215 448 c 0,14,15
 303 448 303 448 303 387 c 0,16,17
 303 346 303 346 182 261 c 0,18,19
 163 248 163 248 152 240 c 1,20,-1
 281 240 l 1,0,-1
EndSplineSet
EndChar
StartChar: threesuperior
Encoding: 179 179 227
Width: 364
Flags: W
Fore
156 307 m 1,0,-1
 164 350 l 1,1,-1
 196 350 l 2,2,3
 250 350 250 350 250 382 c 0,4,5
 250 393 250 393 238 400 c 128,-1,6
 226 407 226 407 206 407 c 0,7,8
 177 407 177 407 127 393 c 1,9,-1
 136 438 l 1,10,11
 158 443 158 443 178.5 445.5 c 128,-1,12
 199 448 199 448 219 448 c 0,13,14
 261 448 261 448 284 433 c 128,-1,15
 307 418 307 418 307 392 c 256,16,17
 307 366 307 366 289 349.5 c 128,-1,18
 271 333 271 333 238 329 c 1,19,20
 263 327 263 327 277.5 312.5 c 128,-1,21
 292 298 292 298 292 276 c 0,22,23
 292 236 292 236 259.5 214.5 c 128,-1,24
 227 193 227 193 167 193 c 0,25,26
 123 193 123 193 81 205 c 1,27,-1
 91 250 l 1,28,29
 129 234 129 234 175 234 c 0,30,31
 204 234 204 234 220 246 c 128,-1,32
 236 258 236 258 236 278 c 0,33,34
 236 292 236 292 223.5 299.5 c 128,-1,35
 211 307 211 307 189 307 c 2,36,-1
 156 307 l 1,0,-1
EndSplineSet
EndChar
StartChar: onequarter
Encoding: 188 188 228
Width: 364
Flags: W
Fore
86 286 m 1,0,-1
 118 446 l 1,1,-1
 50 433 l 1,2,-1
 59 477 l 1,3,-1
 126 489 l 1,4,-1
 184 489 l 1,5,-1
 145 286 l 1,6,-1
 212 286 l 1,7,-1
 203 243 l 1,8,-1
 9 243 l 1,9,-1
 17 286 l 1,10,-1
 86 286 l 1,0,-1
14 182 m 1,11,-1
 326 259 l 1,12,-1
 337 225 l 1,13,-1
 25 148 l 1,14,-1
 14 182 l 1,11,-1
169 16 m 1,15,-1
 243 16 l 1,16,-1
 262 113 l 1,17,-1
 169 16 l 1,15,-1
327 167 m 1,18,-1
 298 16 l 1,19,-1
 330 16 l 1,20,-1
 322 -27 l 1,21,-1
 290 -27 l 1,22,-1
 280 -80 l 1,23,-1
 224 -80 l 1,24,-1
 235 -27 l 1,25,-1
 120 -27 l 1,26,-1
 129 21 l 1,27,-1
 267 167 l 1,28,-1
 327 167 l 1,18,-1
EndSplineSet
Ligature: 0 0 'frac' one fraction four
Ligature: 0 0 'frac' one slash four
EndChar
StartChar: threequarters
Encoding: 190 190 230
Width: 364
Flags: W
Fore
89 353 m 1,0,-1
 97 396 l 1,1,-1
 130 396 l 2,2,3
 183 396 183 396 183 428 c 0,4,5
 183 439 183 439 171 446 c 128,-1,6
 159 453 159 453 139 453 c 0,7,8
 110 453 110 453 60 439 c 1,9,-1
 69 484 l 1,10,11
 91 489 91 489 111.5 491.5 c 128,-1,12
 132 494 132 494 152 494 c 0,13,14
 194 494 194 494 217 479 c 128,-1,15
 240 464 240 464 240 438 c 256,16,17
 240 412 240 412 222 395.5 c 128,-1,18
 204 379 204 379 171 375 c 1,19,20
 196 373 196 373 210.5 358.5 c 128,-1,21
 225 344 225 344 225 322 c 0,22,23
 225 282 225 282 192.5 260.5 c 128,-1,24
 160 239 160 239 100 239 c 0,25,26
 56 239 56 239 14 251 c 1,27,-1
 24 296 l 1,28,29
 62 280 62 280 108 280 c 0,30,31
 137 280 137 280 153 292 c 128,-1,32
 169 304 169 304 169 325 c 0,33,34
 169 338 169 338 156.5 345.5 c 128,-1,35
 144 353 144 353 122 353 c 2,36,-1
 89 353 l 1,0,-1
14 182 m 1,37,-1
 326 259 l 1,38,-1
 337 225 l 1,39,-1
 25 148 l 1,40,-1
 14 182 l 1,37,-1
169 16 m 1,41,-1
 243 16 l 1,42,-1
 262 113 l 1,43,-1
 169 16 l 1,41,-1
327 167 m 1,44,-1
 298 16 l 1,45,-1
 330 16 l 1,46,-1
 322 -27 l 1,47,-1
 290 -27 l 1,48,-1
 280 -80 l 1,49,-1
 224 -80 l 1,50,-1
 235 -27 l 1,51,-1
 120 -27 l 1,52,-1
 129 21 l 1,53,-1
 267 167 l 1,54,-1
 327 167 l 1,44,-1
EndSplineSet
Ligature: 0 0 'frac' three fraction four
Ligature: 0 0 'frac' three slash four
EndChar
StartChar: Gbreve
Encoding: 286 286 231
Width: 364
Flags: W
Fore
292 28 m 1,0,1
 250 -9 250 -9 180 -9 c 256,2,3
 110 -9 110 -9 69 34 c 0,4,5
 30 78 30 78 30 155 c 0,6,7
 30 219 30 219 51 280 c 0,8,9
 74 342 74 342 108 382 c 0,10,11
 168 448 168 448 259 448 c 0,12,13
 306 448 306 448 352 427 c 1,14,-1
 332 330 l 1,15,16
 302 371 302 371 253 371 c 0,17,18
 210 371 210 371 178 337 c 0,19,20
 153 307 153 307 138 263 c 0,21,22
 129 234 129 234 124 207 c 128,-1,23
 119 180 119 180 119 157 c 0,24,25
 119 114 119 114 137.5 91 c 128,-1,26
 156 68 156 68 191 68 c 0,27,28
 212 68 212 68 227 78 c 1,29,-1
 244 164 l 1,30,-1
 183 164 l 1,31,-1
 198 237 l 1,32,-1
 333 237 l 1,33,-1
 292 28 l 1,34,-1
 292 28 l 1,0,1
184 560 m 1,35,36
 190 526 190 526 235 526 c 0,37,38
 278 526 278 526 294 560 c 1,39,-1
 339 560 l 1,40,41
 327 522 327 522 298 502 c 128,-1,42
 269 482 269 482 225 482 c 0,43,44
 185 482 185 482 163.5 502 c 128,-1,45
 142 522 142 522 142 559 c 2,46,-1
 142 560 l 1,47,-1
 184 560 l 1,35,36
EndSplineSet
EndChar
StartChar: gbreve
Encoding: 287 287 232
Width: 364
Flags: W
Fore
153 73 m 0,0,1
 188 73 188 73 212 112 c 0,2,3
 237 150 237 150 237 206 c 0,4,5
 237 235 237 235 225 251.5 c 128,-1,6
 213 268 213 268 191 268 c 0,7,8
 159 268 159 268 133 229 c 0,9,10
 108 188 108 188 108 135 c 0,11,12
 108 105 108 105 120 89 c 128,-1,13
 132 73 132 73 153 73 c 0,0,1
291 25 m 1,14,15
 276 -56 276 -56 235 -91 c 0,16,17
 195 -125 195 -125 114 -125 c 0,18,19
 85 -125 85 -125 58 -120.5 c 128,-1,20
 31 -116 31 -116 5 -108 c 1,21,-1
 21 -30 l 1,22,23
 67 -56 67 -56 118 -56 c 0,24,25
 190 -56 190 -56 203 15 c 2,26,-1
 211 54 l 1,27,28
 179 5 179 5 121 5 c 0,29,30
 74 5 74 5 47 35 c 0,31,32
 20 67 20 67 20 119 c 0,33,34
 20 161 20 161 32 201 c 0,35,36
 46 245 46 245 66 275 c 0,37,38
 88 306 88 306 117 322 c 0,39,40
 146 340 146 340 178 340 c 0,41,42
 209 340 209 340 228.5 323.5 c 128,-1,43
 248 307 248 307 254 277 c 1,44,-1
 265 330 l 1,45,-1
 351 330 l 1,46,-1
 291 25 l 1,47,-1
 291 25 l 1,14,15
174 474 m 1,48,-1
 174 470 l 2,49,50
 174 452 174 452 187 441.5 c 128,-1,51
 200 431 200 431 222 431 c 0,52,53
 272 431 272 431 288 474 c 1,54,-1
 330 474 l 1,55,56
 322 432 322 432 293 409 c 128,-1,57
 264 386 264 386 219 386 c 0,58,59
 132 386 132 386 132 464 c 2,60,-1
 132 474 l 1,61,-1
 174 474 l 1,48,-1
EndSplineSet
EndChar
StartChar: Idotaccent
Encoding: 304 304 233
Width: 364
Flags: W
Fore
94 440 m 1,0,-1
 356 440 l 1,1,-1
 341 364 l 1,2,-1
 253 364 l 1,3,-1
 198 77 l 1,4,-1
 285 77 l 1,5,-1
 270 0 l 1,6,-1
 8 0 l 1,7,-1
 23 77 l 1,8,-1
 111 77 l 1,9,-1
 166 364 l 1,10,-1
 78 364 l 1,11,-1
 94 440 l 1,0,-1
281 560 m 1,12,-1
 267 488 l 1,13,-1
 186 488 l 1,14,-1
 200 560 l 1,15,-1
 281 560 l 1,12,-1
EndSplineSet
EndChar
StartChar: Scedilla
Encoding: 350 350 234
Width: 364
Flags: W
Fore
149 196 m 1,0,1
 91 221 91 221 74 242 c 0,2,3
 56 263 56 263 56 301 c 0,4,5
 56 367 56 367 104 407 c 0,6,7
 127 428 127 428 158 438 c 128,-1,8
 189 448 189 448 227 448 c 0,9,10
 288 448 288 448 342 424 c 1,11,-1
 325 340 l 1,12,13
 285 377 285 377 219 377 c 0,14,15
 184 377 184 377 162 360 c 256,16,17
 140 343 140 343 140 318 c 0,18,19
 140 294 140 294 194 268 c 1,20,-1
 196 268 l 1,21,-1
 231 253 l 2,22,23
 274 233 274 233 294 206 c 128,-1,24
 314 179 314 179 314 140 c 0,25,26
 314 73 314 73 266 32 c 0,27,28
 219 -9 219 -9 138 -9 c 0,29,30
 73 -9 73 -9 1 22 c 1,31,-1
 19 112 l 1,32,33
 48 89 48 89 78.5 76 c 128,-1,34
 109 63 109 63 141 63 c 0,35,36
 181 63 181 63 203 80.5 c 128,-1,37
 225 98 225 98 225 127 c 0,38,39
 225 165 225 165 184 181 c 2,40,-1
 149 196 l 1,41,-1
 149 196 l 1,0,1
166 0 m 1,42,43
 187 -29 187 -29 187 -54 c 0,44,45
 187 -83 187 -83 165 -101 c 0,46,47
 142 -118 142 -118 104 -118 c 0,48,49
 71 -118 71 -118 44 -111 c 1,50,-1
 53 -65 l 1,51,52
 65 -70 65 -70 77 -72.5 c 128,-1,53
 89 -75 89 -75 100 -75 c 0,54,55
 141 -75 141 -75 141 -44 c 0,56,57
 141 -36 141 -36 137.5 -26.5 c 128,-1,58
 134 -17 134 -17 124 0 c 1,59,-1
 166 0 l 1,60,-1
 166 0 l 1,42,43
EndSplineSet
EndChar
StartChar: scedilla
Encoding: 351 351 235
Width: 364
Flags: W
Fore
308 245 m 1,0,1
 262 277 262 277 207 277 c 0,2,3
 179 277 179 277 163 266.5 c 128,-1,4
 147 256 147 256 147 239 c 0,5,6
 147 225 147 225 158 217 c 0,7,8
 168 210 168 210 207 198 c 2,9,-1
 228 192 l 2,10,11
 266 181 266 181 283.5 160.5 c 128,-1,12
 301 140 301 140 301 106 c 0,13,14
 301 52 301 52 260 22 c 0,15,16
 220 -9 220 -9 148 -9 c 0,17,18
 84 -9 84 -9 27 12 c 1,19,-1
 42 88 l 1,20,21
 68 71 68 71 95.5 62.5 c 128,-1,22
 123 54 123 54 150 54 c 0,23,24
 183 54 183 54 201 65 c 128,-1,25
 219 76 219 76 219 96 c 0,26,27
 219 110 219 110 210 117 c 0,28,29
 202 124 202 124 162 136 c 2,30,-1
 136 143 l 2,31,32
 66 163 66 163 66 228 c 0,33,34
 66 276 66 276 106 308 c 0,35,36
 147 338 147 338 213 338 c 0,37,38
 268 338 268 338 323 320 c 1,39,-1
 308 245 l 1,0,1
166 0 m 1,40,41
 187 -29 187 -29 187 -54 c 0,42,43
 187 -83 187 -83 165 -101 c 0,44,45
 142 -118 142 -118 104 -118 c 0,46,47
 71 -118 71 -118 44 -111 c 1,48,-1
 53 -65 l 1,49,50
 65 -70 65 -70 77 -72.5 c 128,-1,51
 89 -75 89 -75 100 -75 c 0,52,53
 141 -75 141 -75 141 -44 c 0,54,55
 141 -36 141 -36 137.5 -26.5 c 128,-1,56
 134 -17 134 -17 124 0 c 1,57,-1
 166 0 l 1,58,-1
 166 0 l 1,40,41
EndSplineSet
EndChar
StartChar: Cacute
Encoding: 262 262 236
Width: 364
Flags: W
Fore
279 13 m 1,0,1
 232 -9 232 -9 184 -9 c 0,2,3
 113 -9 113 -9 76 31.5 c 128,-1,4
 39 72 39 72 39 149 c 0,5,6
 39 183 39 183 43.5 215.5 c 128,-1,7
 48 248 48 248 59 279 c 0,8,9
 80 341 80 341 116 382 c 0,10,11
 145 415 145 415 183 431.5 c 128,-1,12
 221 448 221 448 266 448 c 0,13,14
 314 448 314 448 360 427 c 1,15,-1
 341 330 l 1,16,17
 311 371 311 371 257 371 c 0,18,19
 234 371 234 371 211.5 356.5 c 128,-1,20
 189 342 189 342 172 317 c 0,21,22
 152 285 152 285 139 241 c 0,23,24
 127 198 127 198 127 157 c 0,25,26
 127 113 127 113 145.5 90.5 c 128,-1,27
 164 68 164 68 199 68 c 0,28,29
 223 68 223 68 246.5 78 c 128,-1,30
 270 88 270 88 298 109 c 1,31,-1
 279 13 l 1,32,-1
 279 13 l 1,0,1
379 560 m 1,33,-1
 285 482 l 1,34,-1
 224 482 l 1,35,-1
 296 560 l 1,36,-1
 379 560 l 1,33,-1
EndSplineSet
EndChar
StartChar: cacute
Encoding: 263 263 237
Width: 364
Flags: W
Fore
282 11 m 1,0,1
 236 -9 236 -9 187 -9 c 0,2,3
 121 -9 121 -9 82 28 c 0,4,5
 44 66 44 66 44 128 c 0,6,7
 44 222 44 222 98 280 c 0,8,9
 153 338 153 338 240 338 c 0,10,11
 298 338 298 338 341 314 c 1,12,-1
 326 235 l 1,13,14
 290 268 290 268 245 268 c 0,15,16
 195 268 195 268 163 232 c 0,17,18
 132 195 132 195 132 137 c 0,19,20
 132 62 132 62 204 62 c 0,21,22
 245 62 245 62 299 92 c 1,23,-1
 282 11 l 1,24,-1
 282 11 l 1,0,1
382 483 m 1,25,-1
 251 372 l 1,26,-1
 193 372 l 1,27,-1
 287 483 l 1,28,-1
 382 483 l 1,25,-1
EndSplineSet
EndChar
StartChar: Ccaron
Encoding: 268 268 238
Width: 364
Flags: W
Fore
279 13 m 1,0,1
 232 -9 232 -9 184 -9 c 0,2,3
 113 -9 113 -9 76 31.5 c 128,-1,4
 39 72 39 72 39 149 c 0,5,6
 39 183 39 183 43.5 215.5 c 128,-1,7
 48 248 48 248 59 279 c 0,8,9
 80 341 80 341 116 382 c 0,10,11
 145 415 145 415 183 431.5 c 128,-1,12
 221 448 221 448 266 448 c 0,13,14
 314 448 314 448 360 427 c 1,15,-1
 341 330 l 1,16,17
 311 371 311 371 257 371 c 0,18,19
 234 371 234 371 211.5 356.5 c 128,-1,20
 189 342 189 342 172 317 c 0,21,22
 152 285 152 285 139 241 c 0,23,24
 127 198 127 198 127 157 c 0,25,26
 127 113 127 113 145.5 90.5 c 128,-1,27
 164 68 164 68 199 68 c 0,28,29
 223 68 223 68 246.5 78 c 128,-1,30
 270 88 270 88 298 109 c 1,31,-1
 279 13 l 1,32,-1
 279 13 l 1,0,1
218 482 m 1,33,-1
 178 560 l 1,34,-1
 228 560 l 1,35,-1
 272 512 l 1,36,-1
 340 560 l 1,37,-1
 393 560 l 1,38,-1
 321 482 l 1,39,-1
 218 482 l 1,33,-1
EndSplineSet
EndChar
StartChar: ccaron
Encoding: 269 269 239
Width: 364
Flags: W
Fore
282 11 m 1,0,1
 236 -9 236 -9 187 -9 c 0,2,3
 121 -9 121 -9 82 28 c 0,4,5
 44 66 44 66 44 128 c 0,6,7
 44 222 44 222 98 280 c 0,8,9
 153 338 153 338 240 338 c 0,10,11
 298 338 298 338 341 314 c 1,12,-1
 326 235 l 1,13,14
 290 268 290 268 245 268 c 0,15,16
 195 268 195 268 163 232 c 0,17,18
 132 195 132 195 132 137 c 0,19,20
 132 62 132 62 204 62 c 0,21,22
 245 62 245 62 299 92 c 1,23,-1
 282 11 l 1,24,-1
 282 11 l 1,0,1
201 372 m 1,25,-1
 148 483 l 1,26,-1
 199 483 l 1,27,-1
 244 416 l 1,28,-1
 314 483 l 1,29,-1
 370 483 l 1,30,-1
 273 372 l 1,31,-1
 201 372 l 1,25,-1
EndSplineSet
EndChar
StartChar: dcroat
Encoding: 273 273 240
Width: 364
Flags: W
Fore
271 369 m 1,0,-1
 182 369 l 1,1,-1
 193 425 l 1,2,-1
 282 425 l 1,3,-1
 289 459 l 1,4,-1
 375 459 l 1,5,-1
 368 425 l 1,6,-1
 412 425 l 1,7,-1
 401 369 l 1,8,-1
 358 369 l 1,9,-1
 286 0 l 1,10,-1
 200 0 l 1,11,-1
 209 49 l 1,12,13
 169 -9 169 -9 113 -9 c 0,14,15
 69 -9 69 -9 45 24 c 0,16,17
 19 56 19 56 19 112 c 0,18,19
 19 150 19 150 28 188 c 128,-1,20
 37 226 37 226 54 258 c 0,21,22
 76 297 76 297 106 317 c 0,23,24
 135 339 135 339 171 339 c 0,25,26
 204 339 204 339 225.5 320 c 128,-1,27
 247 301 247 301 252 269 c 1,28,-1
 271 369 l 1,0,-1
187 268 m 0,29,30
 154 268 154 268 130 226 c 0,31,32
 107 185 107 185 107 125 c 0,33,34
 107 95 107 95 119 78.5 c 128,-1,35
 131 62 131 62 153 62 c 0,36,37
 187 62 187 62 211 103 c 0,38,39
 236 145 236 145 236 202 c 0,40,41
 236 233 236 233 223 250.5 c 128,-1,42
 210 268 210 268 187 268 c 0,29,30
EndSplineSet
EndChar
StartChar: sfthyphen
Encoding: 173 173 241
Width: 364
Flags: W
Fore
274 217 m 1,0,-1
 257 131 l 1,1,-1
 72 131 l 1,2,-1
 88 217 l 1,3,-1
 274 217 l 1,0,-1
EndSplineSet
EndChar
StartChar: periodcentered
Encoding: 8729 8729 242
Width: 364
Flags: W
Fore
237 266 m 1,0,-1
 216 154 l 1,1,-1
 113 154 l 1,2,-1
 135 266 l 1,3,-1
 237 266 l 1,0,-1
EndSplineSet
EndChar
StartChar: Euro
Encoding: 8364 8364 243
Width: 364
Flags: W
Fore
77 298 m 1,0,1
 104 372 104 372 154 410 c 128,-1,2
 204 448 204 448 273 448 c 0,3,4
 322 448 322 448 364 427 c 1,5,-1
 345 330 l 1,6,7
 312 375 312 375 265 375 c 0,8,9
 201 375 201 375 166 298 c 1,10,-1
 285 298 l 1,11,-1
 260 242 l 1,12,-1
 147 242 l 1,13,14
 146 238 146 238 145 232.5 c 128,-1,15
 144 227 144 227 142 219 c 256,16,17
 140 211 140 211 139.5 206 c 128,-1,18
 139 201 139 201 138 198 c 1,19,-1
 240 198 l 1,20,-1
 216 142 l 1,21,-1
 134 142 l 1,22,23
 136 106 136 106 154.5 85.5 c 128,-1,24
 173 65 173 65 204 65 c 0,25,26
 227 65 227 65 248 74 c 0,27,28
 259 79 259 79 273 87.5 c 128,-1,29
 287 96 287 96 304 109 c 1,30,-1
 285 13 l 1,31,32
 262 2 262 2 239.5 -3.5 c 128,-1,33
 217 -9 217 -9 191 -9 c 0,34,35
 125 -9 125 -9 87 31 c 0,36,37
 50 69 50 69 50 141 c 2,38,-1
 50 142 l 1,39,-1
 -10 142 l 1,40,-1
 15 198 l 1,41,-1
 53 198 l 1,42,43
 55 210 55 210 56.5 221 c 128,-1,44
 58 232 58 232 60 242 c 1,45,-1
 9 242 l 1,46,-1
 33 298 l 1,47,-1
 77 298 l 1,48,-1
 77 298 l 1,0,1
EndSplineSet
EndChar
StartChar: c6459
Encoding: 65539 -1 244
Width: 364
Flags: W
Fore
319 450 m 1,0,-1
 306 378 l 1,1,-1
 236 378 l 1,2,-1
 250 450 l 1,3,-1
 319 450 l 1,0,-1
203 450 m 1,4,-1
 189 378 l 1,5,-1
 119 378 l 1,6,-1
 134 450 l 1,7,-1
 203 450 l 1,4,-1
EndSplineSet
EndChar
StartChar: c6460
Encoding: 65540 -1 245
Width: 364
Flags: W
Fore
322 450 m 1,0,-1
 228 372 l 1,1,-1
 167 372 l 1,2,-1
 239 450 l 1,3,-1
 322 450 l 1,0,-1
EndSplineSet
EndChar
StartChar: c6461
Encoding: 65541 -1 246
Width: 364
Flags: W
Fore
201 398 m 2,0,1
 193 404 193 404 188.5 406 c 128,-1,2
 184 408 184 408 179 408 c 0,3,4
 168 408 168 408 160.5 398.5 c 128,-1,5
 153 389 153 389 150 372 c 1,6,-1
 109 372 l 1,7,8
 117 410 117 410 136 430.5 c 128,-1,9
 155 451 155 451 184 451 c 0,10,11
 203 451 203 451 224 436 c 2,12,-1
 240 424 l 2,13,14
 250 416 250 416 260 416 c 0,15,16
 284 416 284 416 290 451 c 1,17,-1
 330 451 l 1,18,19
 315 372 315 372 257 372 c 0,20,21
 246 372 246 372 236.5 375.5 c 128,-1,22
 227 379 227 379 216 387 c 2,23,-1
 201 398 l 2,0,1
EndSplineSet
EndChar
StartChar: c6468
Encoding: 65542 -1 247
Width: 364
Flags: W
Fore
251 202 m 0,0,1
 251 269 251 269 198 269 c 0,2,3
 163 269 163 269 137 229 c 0,4,5
 113 189 113 189 113 128 c 0,6,7
 113 96 113 96 127 78.5 c 128,-1,8
 141 61 141 61 166 61 c 0,9,10
 202 61 202 61 226 101 c 0,11,12
 251 143 251 143 251 202 c 0,0,1
26 126 m 0,13,14
 26 221 26 221 75 280 c 0,15,16
 125 339 125 339 203 339 c 0,17,18
 266 339 266 339 302 303 c 0,19,20
 338 269 338 269 338 205 c 0,21,22
 338 111 338 111 289 50 c 0,23,24
 239 -9 239 -9 161 -9 c 0,25,26
 98 -9 98 -9 62 27 c 256,27,28
 26 63 26 63 26 126 c 0,13,14
EndSplineSet
EndChar
StartChar: c6470
Encoding: 65543 -1 248
Width: 364
Flags: W
Fore
253 372 m 1,0,-1
 200 372 l 1,1,-1
 132 450 l 1,2,-1
 210 450 l 1,3,-1
 253 372 l 1,0,-1
EndSplineSet
EndChar
StartChar: c6472
Encoding: 65544 -1 249
Width: 364
Flags: W
Fore
276 450 m 1,0,-1
 321 372 l 1,1,-1
 271 372 l 1,2,-1
 222 420 l 1,3,-1
 155 372 l 1,4,-1
 101 372 l 1,5,-1
 173 450 l 1,6,-1
 276 450 l 1,0,-1
EndSplineSet
EndChar
StartChar: c6477
Encoding: 65545 -1 250
Width: 364
Flags: W
Fore
161 372 m 1,0,-1
 121 450 l 1,1,-1
 171 450 l 1,2,-1
 215 402 l 1,3,-1
 283 450 l 1,4,-1
 336 450 l 1,5,-1
 264 372 l 1,6,-1
 161 372 l 1,0,-1
EndSplineSet
EndChar
StartChar: c6478
Encoding: 65546 -1 251
Width: 364
Flags: W
Fore
14 182 m 1,0,-1
 326 259 l 1,1,-1
 337 225 l 1,2,-1
 25 148 l 1,3,-1
 14 182 l 1,0,-1
EndSplineSet
EndChar
StartChar: c6475
Encoding: 65547 -1 252
Width: 364
Flags: W
Fore
129 292 m 1,0,-1
 202 292 l 1,1,-1
 221 390 l 1,2,-1
 129 292 l 1,0,-1
287 443 m 1,3,-1
 257 292 l 1,4,-1
 289 292 l 1,5,-1
 281 250 l 1,6,-1
 250 250 l 1,7,-1
 239 197 l 1,8,-1
 184 197 l 1,9,-1
 194 250 l 1,10,-1
 80 250 l 1,11,-1
 89 298 l 1,12,-1
 227 443 l 1,13,-1
 287 443 l 1,3,-1
EndSplineSet
EndChar
StartChar: c6476
Encoding: 65548 -1 253
Width: 364
Flags: W
Fore
170 450 m 1,0,1
 176 416 176 416 221 416 c 0,2,3
 242 416 242 416 257.5 425 c 128,-1,4
 273 434 273 434 280 450 c 1,5,-1
 325 450 l 1,6,7
 313 412 313 412 284 392 c 128,-1,8
 255 372 255 372 212 372 c 0,9,10
 171 372 171 372 149.5 392 c 128,-1,11
 128 412 128 412 128 449 c 2,12,-1
 128 450 l 1,13,-1
 170 450 l 1,0,1
EndSplineSet
EndChar
StartChar: uni0E01
Encoding: 3585 3585 255
Width: 364
Flags: W
Fore
198 334 m 0,0,1
 173 334 173 334 147.5 321 c 128,-1,2
 122 308 122 308 101 290 c 1,3,-1
 163 290 l 1,4,-1
 154 246 l 1,5,6
 135 240 135 240 125 225 c 128,-1,7
 115 210 115 210 112 195 c 2,8,-1
 74 0 l 1,9,-1
 12 0 l 1,10,-1
 48 187 l 2,11,12
 50 195 50 195 55 203 c 128,-1,13
 60 211 60 211 67 218.5 c 128,-1,14
 74 226 74 226 81.5 233 c 128,-1,15
 89 240 89 240 94 244 c 1,16,-1
 31 244 l 1,17,-1
 44 308 l 1,18,19
 86 343 86 343 124 364.5 c 128,-1,20
 162 386 162 386 212 386 c 0,21,22
 237 386 237 386 260 380.5 c 128,-1,23
 283 375 283 375 301 363 c 128,-1,24
 319 351 319 351 330 333 c 128,-1,25
 341 315 341 315 341 290 c 0,26,27
 341 288 341 288 340.5 285 c 128,-1,28
 340 282 340 282 338.5 272.5 c 128,-1,29
 337 263 337 263 334 245.5 c 128,-1,30
 331 228 331 228 325 196.5 c 128,-1,31
 319 165 319 165 309.5 117 c 128,-1,32
 300 69 300 69 287 0 c 1,33,-1
 225 0 l 1,34,35
 244 98 244 98 254.5 153 c 128,-1,36
 265 208 265 208 270 235 c 128,-1,37
 275 262 275 262 276 269.5 c 128,-1,38
 277 277 277 277 277 280 c 0,39,40
 277 312 277 312 256.5 323 c 128,-1,41
 236 334 236 334 198 334 c 0,0,1
EndSplineSet
EndChar
StartChar: uni0E02
Encoding: 3586 3586 256
Width: 364
Flags: W
Fore
105 124 m 2,0,1
 110 148 110 148 126.5 169 c 128,-1,2
 143 190 143 190 161 211 c 128,-1,3
 179 232 179 232 193 253.5 c 128,-1,4
 207 275 207 275 207 299 c 0,5,6
 207 315 207 315 196 326 c 128,-1,7
 185 337 185 337 168 337 c 0,8,9
 162 337 162 337 156 336 c 128,-1,10
 150 335 150 335 145 332 c 1,11,12
 166 331 166 331 175 319.5 c 128,-1,13
 184 308 184 308 184 291 c 0,14,15
 184 256 184 256 161.5 235 c 128,-1,16
 139 214 139 214 105 214 c 0,17,18
 82 214 82 214 65.5 224.5 c 128,-1,19
 49 235 49 235 49 258 c 0,20,21
 49 283 49 283 59.5 306 c 128,-1,22
 70 329 70 329 87.5 347 c 128,-1,23
 105 365 105 365 128 376 c 128,-1,24
 151 387 151 387 176 387 c 0,25,26
 216 387 216 387 238 366.5 c 128,-1,27
 260 346 260 346 260 310 c 0,28,29
 260 283 260 283 247 259 c 128,-1,30
 234 235 234 235 218 212.5 c 128,-1,31
 202 190 202 190 187 167 c 128,-1,32
 172 144 172 144 167 119 c 2,33,-1
 155 53 l 1,34,-1
 223 53 l 1,35,-1
 288 383 l 1,36,-1
 350 383 l 1,37,-1
 275 0 l 1,38,-1
 81 0 l 1,39,-1
 105 124 l 2,0,1
98 274 m 2,40,41
 97 273 97 273 97 270 c 0,42,43
 97 262 97 262 102 257 c 128,-1,44
 107 252 107 252 115 252 c 0,45,46
 125 252 125 252 133 260 c 128,-1,47
 141 268 141 268 141 279 c 0,48,49
 141 287 141 287 136 292 c 128,-1,50
 131 297 131 297 123 297 c 256,51,52
 115 297 115 297 107.5 290.5 c 128,-1,53
 100 284 100 284 98 274 c 2,40,41
EndSplineSet
EndChar
StartChar: uni0E03
Encoding: 3587 3587 257
Width: 364
Flags: W
Fore
98 115 m 2,0,1
 100 124 100 124 107.5 139.5 c 128,-1,2
 115 155 115 155 125 171 c 128,-1,3
 135 187 135 187 145.5 201.5 c 128,-1,4
 156 216 156 216 163 223 c 1,5,6
 150 213 150 213 135 208.5 c 128,-1,7
 120 204 120 204 106 204 c 0,8,9
 74 204 74 204 62 225 c 128,-1,10
 50 246 50 246 50 272 c 0,11,12
 50 287 50 287 54.5 306.5 c 128,-1,13
 59 326 59 326 69 344 c 128,-1,14
 79 362 79 362 94 374.5 c 128,-1,15
 109 387 109 387 130 387 c 0,16,17
 137 387 137 387 143 383.5 c 128,-1,18
 149 380 149 380 154 375.5 c 128,-1,19
 159 371 159 371 164 367 c 128,-1,20
 169 363 169 363 175 363 c 0,21,22
 179 363 179 363 183.5 367 c 128,-1,23
 188 371 188 371 193.5 376 c 128,-1,24
 199 381 199 381 205.5 385 c 128,-1,25
 212 389 212 389 220 389 c 0,26,27
 246 389 246 389 258 373 c 128,-1,28
 270 357 270 357 270 335 c 0,29,30
 270 307 270 307 255 278 c 128,-1,31
 240 249 240 249 220.5 221.5 c 128,-1,32
 201 194 201 194 183.5 168 c 128,-1,33
 166 142 166 142 160 120 c 2,34,-1
 148 53 l 1,35,-1
 225 53 l 1,36,-1
 291 387 l 1,37,-1
 353 387 l 1,38,-1
 277 0 l 1,39,-1
 76 0 l 1,40,-1
 98 115 l 2,0,1
176 250 m 2,41,42
 176 249 176 249 172.5 240.5 c 128,-1,43
 169 232 169 232 169 231 c 1,44,45
 174 240 174 240 181.5 249.5 c 128,-1,46
 189 259 189 259 196.5 269.5 c 128,-1,47
 204 280 204 280 209 292.5 c 128,-1,48
 214 305 214 305 214 321 c 0,49,50
 214 326 214 326 213 331 c 128,-1,51
 212 336 212 336 209 336 c 0,52,53
 202 336 202 336 197 331.5 c 128,-1,54
 192 327 192 327 187 322 c 128,-1,55
 182 317 182 317 176.5 312 c 128,-1,56
 171 307 171 307 163 307 c 1,57,58
 170 300 170 300 175 292.5 c 128,-1,59
 180 285 180 285 180 274 c 0,60,61
 180 269 180 269 179 266 c 2,62,-1
 176 250 l 2,41,42
149 312 m 1,63,64
 146 313 146 313 144 316.5 c 128,-1,65
 142 320 142 320 139.5 324 c 128,-1,66
 137 328 137 328 134 331.5 c 128,-1,67
 131 335 131 335 126 335 c 256,68,69
 121 335 121 335 114 325.5 c 128,-1,70
 107 316 107 316 105 311 c 1,71,72
 108 312 108 312 114 313.5 c 128,-1,73
 120 315 120 315 125 315 c 0,74,75
 131 315 131 315 138.5 314 c 128,-1,76
 146 313 146 313 149 312 c 1,63,64
99 260 m 1,77,78
 99 258 99 258 98.5 257 c 128,-1,79
 98 256 98 256 98 255 c 0,80,81
 98 239 98 239 115 239 c 0,82,83
 125 239 125 239 132.5 246.5 c 128,-1,84
 140 254 140 254 140 265 c 0,85,86
 140 281 140 281 123 281 c 0,87,88
 114 281 114 281 107.5 275 c 128,-1,89
 101 269 101 269 99 260 c 1,77,78
EndSplineSet
EndChar
StartChar: uni0E04
Encoding: 3588 3588 258
Width: 364
Flags: W
Fore
269 260 m 1,0,1
 271 265 271 265 271 269.5 c 128,-1,2
 271 274 271 274 271 278 c 0,3,4
 271 335 271 335 198 335 c 0,5,6
 156 335 156 335 124.5 310.5 c 128,-1,7
 93 286 93 286 84 240 c 0,8,9
 80 221 80 221 79 203 c 128,-1,10
 78 185 78 185 78 168 c 2,11,-1
 78 143 l 1,12,13
 89 165 89 165 97.5 189.5 c 128,-1,14
 106 214 106 214 117 234 c 128,-1,15
 128 254 128 254 144.5 267.5 c 128,-1,16
 161 281 161 281 187 281 c 0,17,18
 215 281 215 281 231 267.5 c 128,-1,19
 247 254 247 254 247 229 c 0,20,21
 247 213 247 213 240.5 197 c 128,-1,22
 234 181 234 181 223 168 c 128,-1,23
 212 155 212 155 197 147.5 c 128,-1,24
 182 140 182 140 165 140 c 0,25,26
 145 140 145 140 132 148 c 1,27,28
 125 133 125 133 118 116 c 128,-1,29
 111 99 111 99 105 81 c 128,-1,30
 99 63 99 63 94 46.5 c 128,-1,31
 89 30 89 30 86 16 c 2,32,-1
 84 0 l 1,33,-1
 22 0 l 1,34,-1
 22 48 l 2,35,36
 22 57 22 57 21.5 73.5 c 128,-1,37
 21 90 21 90 21 110 c 128,-1,38
 21 130 21 130 20.5 151 c 128,-1,39
 20 172 20 172 20 191 c 256,40,41
 20 210 20 210 20.5 221 c 128,-1,42
 21 232 21 232 22 237 c 2,43,44
 24 273 24 273 40.5 301 c 128,-1,45
 57 329 57 329 82.5 348 c 128,-1,46
 108 367 108 367 140.5 376.5 c 128,-1,47
 173 386 173 386 207 386 c 0,48,49
 232 386 232 386 255 381 c 128,-1,50
 278 376 278 376 296 365 c 128,-1,51
 314 354 314 354 324.5 336.5 c 128,-1,52
 335 319 335 319 335 293 c 0,53,54
 335 281 335 281 332 267 c 2,55,-1
 281 0 l 1,56,-1
 219 0 l 1,57,-1
 269 260 l 1,58,-1
 269 260 l 1,0,1
158 208 m 2,59,60
 158 200 158 200 163 195 c 128,-1,61
 168 190 168 190 176 190 c 0,62,63
 186 190 186 190 194 198 c 128,-1,64
 202 206 202 206 202 217 c 0,65,66
 202 225 202 225 197 230 c 128,-1,67
 192 235 192 235 184 235 c 0,68,69
 175 235 175 235 167.5 228.5 c 128,-1,70
 160 222 160 222 158 212 c 1,71,-1
 158 208 l 2,59,60
EndSplineSet
EndChar
StartChar: uni0E05
Encoding: 3589 3589 259
Width: 364
Flags: W
Fore
208 307 m 1,0,1
 197 307 197 307 190 310.5 c 128,-1,2
 183 314 183 314 178 318.5 c 128,-1,3
 173 323 173 323 167 326.5 c 128,-1,4
 161 330 161 330 151 330 c 0,5,6
 139 330 139 330 128.5 321.5 c 128,-1,7
 118 313 118 313 109.5 300.5 c 128,-1,8
 101 288 101 288 95.5 274 c 128,-1,9
 90 260 90 260 88 250 c 0,10,11
 85 236 85 236 84 222.5 c 128,-1,12
 83 209 83 209 83 195 c 0,13,14
 83 169 83 169 86 142 c 1,15,16
 93 162 93 162 100.5 185.5 c 128,-1,17
 108 209 108 209 119.5 229.5 c 128,-1,18
 131 250 131 250 149 264 c 128,-1,19
 167 278 167 278 195 278 c 0,20,21
 221 278 221 278 239.5 265 c 128,-1,22
 258 252 258 252 258 226 c 0,23,24
 258 222 258 222 256 212 c 0,25,26
 250 183 250 183 226 160.5 c 128,-1,27
 202 138 202 138 171 138 c 0,28,29
 157 138 157 138 145 145 c 1,30,31
 128 110 128 110 112.5 73.5 c 128,-1,32
 97 37 97 37 83 0 c 1,33,-1
 27 0 l 1,34,35
 29 14 29 14 30 26.5 c 128,-1,36
 31 39 31 39 31 51 c 0,37,38
 31 86 31 86 27 118.5 c 128,-1,39
 23 151 23 151 23 186 c 0,40,41
 23 201 23 201 24 216.5 c 128,-1,42
 25 232 25 232 29 249 c 0,43,44
 34 273 34 273 45.5 297.5 c 128,-1,45
 57 322 57 322 74.5 342.5 c 128,-1,46
 92 363 92 363 115 376 c 128,-1,47
 138 389 138 389 165 389 c 0,48,49
 175 389 175 389 181 384 c 128,-1,50
 187 379 187 379 192.5 373.5 c 128,-1,51
 198 368 198 368 203.5 363 c 128,-1,52
 209 358 209 358 218 358 c 256,53,54
 227 358 227 358 235 363 c 128,-1,55
 243 368 243 368 251.5 374 c 128,-1,56
 260 380 260 380 268 385 c 128,-1,57
 276 390 276 390 283 390 c 0,58,59
 317 390 317 390 334 364.5 c 128,-1,60
 351 339 351 339 351 309 c 0,61,62
 351 307 351 307 350 300 c 128,-1,63
 349 293 349 293 343.5 263.5 c 128,-1,64
 338 234 338 234 326.5 172.5 c 128,-1,65
 315 111 315 111 293 0 c 1,66,-1
 231 0 l 1,67,68
 251 102 251 102 262 159.5 c 128,-1,69
 273 217 273 217 278.5 246.5 c 128,-1,70
 284 276 284 276 285 285 c 128,-1,71
 286 294 286 294 286 299 c 0,72,73
 286 311 286 311 282.5 320.5 c 128,-1,74
 279 330 279 330 268 330 c 1,75,-1
 208 307 l 1,0,1
168 206 m 2,76,77
 168 188 168 188 185 188 c 0,78,79
 195 188 195 188 203 195.5 c 128,-1,80
 211 203 211 203 211 214 c 0,81,82
 211 232 211 232 194 232 c 0,83,84
 185 232 185 232 177.5 225.5 c 128,-1,85
 170 219 170 219 168 210 c 1,86,-1
 168 206 l 2,76,77
EndSplineSet
EndChar
StartChar: uni0E06
Encoding: 3590 3590 260
Width: 364
Flags: W
Fore
156 104 m 1,0,-1
 144 39 l 2,1,2
 141 25 141 25 133 16 c 128,-1,3
 125 7 125 7 114 1.5 c 128,-1,4
 103 -4 103 -4 91 -6.5 c 128,-1,5
 79 -9 79 -9 68 -9 c 0,6,7
 37 -9 37 -9 23.5 13 c 128,-1,8
 10 35 10 35 10 62 c 0,9,10
 10 82 10 82 18 101.5 c 128,-1,11
 26 121 26 121 40 137.5 c 128,-1,12
 54 154 54 154 72.5 165 c 128,-1,13
 91 176 91 176 112 177 c 1,14,15
 114 188 114 188 121.5 201.5 c 128,-1,16
 129 215 129 215 137 224 c 1,17,18
 124 216 124 216 110.5 211.5 c 128,-1,19
 97 207 97 207 83 207 c 0,20,21
 55 207 55 207 44 226.5 c 128,-1,22
 33 246 33 246 33 270 c 0,23,24
 33 281 33 281 37.5 301.5 c 128,-1,25
 42 322 42 322 51 341.5 c 128,-1,26
 60 361 60 361 73.5 375.5 c 128,-1,27
 87 390 87 390 104 390 c 0,28,29
 115 390 115 390 122.5 385 c 128,-1,30
 130 380 130 380 136.5 374.5 c 128,-1,31
 143 369 143 369 149 364 c 128,-1,32
 155 359 155 359 163 359 c 0,33,34
 169 359 169 359 175 364 c 128,-1,35
 181 369 181 369 187 375 c 128,-1,36
 193 381 193 381 199.5 386 c 128,-1,37
 206 391 206 391 215 391 c 0,38,39
 243 391 243 391 253.5 374 c 128,-1,40
 264 357 264 357 264 334 c 0,41,42
 264 309 264 309 250.5 286.5 c 128,-1,43
 237 264 237 264 220.5 243.5 c 128,-1,44
 204 223 204 223 189 206 c 128,-1,45
 174 189 174 189 171 175 c 0,46,47
 170 171 170 171 170 168 c 0,48,49
 170 166 170 166 175.5 160 c 128,-1,50
 181 154 181 154 182 154 c 1,51,52
 193 143 193 143 200 135 c 128,-1,53
 207 127 207 127 214 119.5 c 128,-1,54
 221 112 221 112 228.5 103.5 c 128,-1,55
 236 95 236 95 246 83 c 1,56,-1
 306 389 l 1,57,-1
 368 389 l 1,58,-1
 292 0 l 1,59,-1
 236 0 l 1,60,-1
 156 104 l 1,0,-1
162 272 m 0,61,62
 160 264 160 264 157 253.5 c 128,-1,63
 154 243 154 243 150 237 c 1,64,65
 152 239 152 239 156.5 242 c 128,-1,66
 161 245 161 245 165 248 c 0,67,68
 178 259 178 259 192 275.5 c 128,-1,69
 206 292 206 292 206 319 c 0,70,71
 206 324 206 324 204 329 c 128,-1,72
 202 334 202 334 197 334 c 0,73,74
 189 334 189 334 179.5 323 c 128,-1,75
 170 312 170 312 159 311 c 2,76,-1
 155 311 l 2,77,78
 153 311 153 311 151 310 c 1,79,80
 156 304 156 304 159.5 296.5 c 128,-1,81
 163 289 163 289 163 280 c 0,82,83
 163 275 163 275 162 272 c 0,61,62
83 42 m 0,84,85
 86 42 86 42 88 49.5 c 128,-1,86
 90 57 90 57 91 60 c 2,87,-1
 104 123 l 1,88,89
 84 114 84 114 75.5 100 c 128,-1,90
 67 86 67 86 67 69 c 0,91,92
 67 59 67 59 70.5 50.5 c 128,-1,93
 74 42 74 42 83 42 c 0,84,85
89 317 m 1,94,95
 93 319 93 319 101 320 c 128,-1,96
 109 321 109 321 116 321 c 0,97,98
 124 321 l 128,-1,99
 128 321 128 321 132 320 c 1,100,101
 129 323 129 323 119 330 c 128,-1,102
 109 337 109 337 107 337 c 256,103,104
 105 337 105 337 98 329 c 128,-1,105
 91 321 91 321 89 317 c 1,94,95
80 265 m 1,106,107
 80 263 80 263 79.5 262 c 128,-1,108
 79 261 79 261 79 260 c 0,109,110
 79 243 79 243 96 243 c 0,111,112
 106 243 106 243 113 251 c 128,-1,113
 120 259 120 259 120 270 c 0,114,115
 120 286 120 286 104 286 c 0,116,117
 95 286 95 286 88.5 280 c 128,-1,118
 82 274 82 274 80 265 c 1,106,107
EndSplineSet
EndChar
StartChar: uni0E07
Encoding: 3591 3591 261
Width: 364
Flags: W
Fore
213 50 m 1,0,-1
 251 248 l 1,1,2
 246 247 246 247 236 247 c 0,3,4
 208 247 208 247 188.5 262.5 c 128,-1,5
 169 278 169 278 169 305 c 0,6,7
 169 325 169 325 177.5 341 c 128,-1,8
 186 357 186 357 199.5 369 c 128,-1,9
 213 381 213 381 230 387.5 c 128,-1,10
 247 394 247 394 265 394 c 0,11,12
 294 394 294 394 311.5 378.5 c 128,-1,13
 329 363 329 363 329 336 c 0,14,15
 329 335 329 335 328.5 332 c 128,-1,16
 328 329 328 329 326.5 319 c 128,-1,17
 325 309 325 309 321 288.5 c 128,-1,18
 317 268 317 268 309.5 231 c 128,-1,19
 302 194 302 194 291.5 138 c 128,-1,20
 281 82 281 82 265 0 c 1,21,-1
 176 0 l 1,22,-1
 54 195 l 1,23,-1
 116 195 l 1,24,-1
 213 50 l 1,0,-1
229 319 m 2,25,26
 228 318 228 318 228 315 c 0,27,28
 228 297 228 297 245 297 c 0,29,30
 256 297 256 297 264 305 c 128,-1,31
 272 313 272 313 272 324 c 0,32,33
 272 332 272 332 267 337 c 128,-1,34
 262 342 262 342 254 342 c 0,35,36
 245 342 245 342 238 335.5 c 128,-1,37
 231 329 231 329 229 319 c 2,25,26
EndSplineSet
EndChar
StartChar: uni0E08
Encoding: 3592 3592 262
Width: 364
Flags: W
Fore
328 247 m 0,0,1
 312 187 312 187 296.5 123.5 c 128,-1,2
 281 60 281 60 267 0 c 1,3,-1
 148 0 l 1,4,-1
 153 132 l 1,5,6
 145 128 145 128 138.5 127 c 128,-1,7
 132 126 132 126 124 126 c 0,8,9
 95 126 95 126 78.5 143.5 c 128,-1,10
 62 161 62 161 62 187 c 0,11,12
 62 207 62 207 70 222 c 128,-1,13
 78 237 78 237 91 248 c 128,-1,14
 104 259 104 259 121 264.5 c 128,-1,15
 138 270 138 270 155 270 c 0,16,17
 175 270 175 270 186.5 264 c 128,-1,18
 198 258 198 258 205 247.5 c 128,-1,19
 212 237 212 237 214 223.5 c 128,-1,20
 216 210 216 210 216 195 c 0,21,22
 216 193 216 193 216 189 c 128,-1,23
 216 185 216 185 215 171 c 128,-1,24
 214 157 214 157 213 129.5 c 128,-1,25
 212 102 212 102 209 53 c 1,26,-1
 222 53 l 1,27,28
 233 101 233 101 244 149.5 c 128,-1,29
 255 198 255 198 264 246 c 0,30,31
 266 255 266 255 267 263 c 128,-1,32
 268 271 268 271 268 279 c 0,33,34
 268 305 268 305 253.5 319 c 128,-1,35
 239 333 239 333 204 333 c 0,36,37
 165 333 165 333 121.5 311.5 c 128,-1,38
 78 290 78 290 39 252 c 1,39,-1
 54 329 l 1,40,41
 70 347 70 347 90 359 c 128,-1,42
 110 371 110 371 132 378 c 128,-1,43
 154 385 154 385 176 388 c 128,-1,44
 198 391 198 391 217 391 c 0,45,46
 277 391 277 391 305 366 c 128,-1,47
 333 341 333 341 333 293 c 0,48,49
 333 282 333 282 331.5 271 c 128,-1,50
 330 260 330 260 328 247 c 0,0,1
116 194 m 2,51,52
 116 176 116 176 133 176 c 0,53,54
 143 176 143 176 151 183.5 c 128,-1,55
 159 191 159 191 159 202 c 0,56,57
 159 220 159 220 142 220 c 0,58,59
 133 220 133 220 125.5 213.5 c 128,-1,60
 118 207 118 207 116 198 c 1,61,-1
 116 194 l 2,51,52
EndSplineSet
EndChar
StartChar: uni0E09
Encoding: 3593 3593 263
Width: 364
Flags: W
Fore
203 126 m 2,0,1
 218 136 218 136 232 147.5 c 128,-1,2
 246 159 246 159 249 172 c 0,3,4
 255 205 255 205 258.5 224 c 128,-1,5
 262 243 262 243 263.5 253 c 128,-1,6
 265 263 265 263 265.5 267 c 128,-1,7
 266 271 266 271 266 273 c 0,8,9
 266 303 266 303 247 320.5 c 128,-1,10
 228 338 228 338 191 338 c 0,11,12
 172 338 172 338 149 330.5 c 128,-1,13
 126 323 126 323 102 310.5 c 128,-1,14
 78 298 78 298 54 283 c 128,-1,15
 30 268 30 268 10 253 c 1,16,-1
 25 332 l 1,17,18
 43 346 43 346 65.5 357 c 128,-1,19
 88 368 88 368 112 376 c 128,-1,20
 136 384 136 384 159 388.5 c 128,-1,21
 182 393 182 393 201 393 c 0,22,23
 226 393 226 393 249.5 387.5 c 128,-1,24
 273 382 273 382 291.5 370 c 128,-1,25
 310 358 310 358 321 339.5 c 128,-1,26
 332 321 332 321 332 295 c 0,27,28
 332 292 332 292 331.5 287 c 128,-1,29
 331 282 331 282 328.5 268.5 c 128,-1,30
 326 255 326 255 321.5 229 c 128,-1,31
 317 203 317 203 308 158 c 0,32,33
 306 149 306 149 302.5 141 c 128,-1,34
 299 133 299 133 292 126 c 1,35,36
 321 112 321 112 321 78 c 0,37,38
 321 61 321 61 314 45.5 c 128,-1,39
 307 30 307 30 295.5 18 c 128,-1,40
 284 6 284 6 269 -1.5 c 128,-1,41
 254 -9 254 -9 237 -9 c 0,42,43
 212 -9 212 -9 197.5 5.5 c 128,-1,44
 183 20 183 20 183 43 c 0,45,46
 183 55 183 55 186 67 c 1,47,48
 168 54 168 54 152 37 c 128,-1,49
 136 20 136 20 122 0 c 1,50,-1
 64 0 l 1,51,-1
 87 115 l 1,52,53
 82 114 82 114 77.5 113.5 c 128,-1,54
 73 113 73 113 68 113 c 0,55,56
 43 113 43 113 27 126 c 128,-1,57
 11 139 11 139 11 162 c 0,58,59
 11 181 11 181 18.5 197 c 128,-1,60
 26 213 26 213 39 225 c 128,-1,61
 52 237 52 237 68 243.5 c 128,-1,62
 84 250 84 250 102 250 c 0,63,64
 134 250 134 250 147 234.5 c 128,-1,65
 160 219 160 219 160 194 c 0,66,67
 160 191 160 191 159.5 186 c 128,-1,68
 159 181 159 181 157 170 c 128,-1,69
 155 159 155 159 151.5 139.5 c 128,-1,70
 148 120 148 120 141 86 c 1,71,-1
 203 126 l 2,0,1
267 61 m 2,72,73
 268 63 268 63 268 68 c 0,74,75
 268 74 268 74 265.5 79.5 c 128,-1,76
 263 85 263 85 258 85 c 0,77,78
 247 85 247 85 241.5 74.5 c 128,-1,79
 236 64 236 64 236 53 c 0,80,81
 236 47 236 47 238.5 41 c 128,-1,82
 241 35 241 35 247 35 c 0,83,84
 255 35 255 35 260 44 c 128,-1,85
 265 53 265 53 267 61 c 2,72,73
65 176 m 2,86,87
 65 168 65 168 69.5 163 c 128,-1,88
 74 158 74 158 82 158 c 0,89,90
 92 158 92 158 100 166 c 128,-1,91
 108 174 108 174 108 185 c 0,92,93
 108 193 108 193 103.5 198 c 128,-1,94
 99 203 99 203 91 203 c 0,95,96
 82 203 82 203 74.5 196.5 c 128,-1,97
 67 190 67 190 65 181 c 1,98,-1
 65 176 l 2,86,87
EndSplineSet
EndChar
StartChar: uni0E0A
Encoding: 3594 3594 264
Width: 364
Flags: W
Fore
76 112 m 2,0,1
 79 139 79 139 97.5 163 c 128,-1,2
 116 187 116 187 136 210 c 128,-1,3
 156 233 156 233 172.5 257.5 c 128,-1,4
 189 282 189 282 189 310 c 0,5,6
 189 326 189 326 180 335.5 c 128,-1,7
 171 345 171 345 154 345 c 256,8,9
 137 345 137 345 128 339 c 128,-1,10
 119 333 119 333 112 329 c 1,11,-1
 130 330 l 2,12,13
 147 330 147 330 154.5 318.5 c 128,-1,14
 162 307 162 307 162 290 c 0,15,16
 162 258 162 258 141.5 235.5 c 128,-1,17
 121 213 121 213 89 213 c 0,18,19
 60 213 60 213 46.5 228 c 128,-1,20
 33 243 33 243 33 267 c 0,21,22
 33 294 33 294 43.5 317 c 128,-1,23
 54 340 54 340 72 356.5 c 128,-1,24
 90 373 90 373 113 382 c 128,-1,25
 136 391 136 391 161 391 c 0,26,27
 200 391 200 391 221.5 375.5 c 128,-1,28
 243 360 243 360 243 328 c 2,29,-1
 243 316 l 1,30,31
 271 330 271 330 289 351 c 128,-1,32
 307 372 307 372 314 405 c 1,33,-1
 376 405 l 1,34,35
 373 390 373 390 365 374 c 128,-1,36
 357 358 357 358 346 343 c 128,-1,37
 335 328 335 328 321.5 314.5 c 128,-1,38
 308 301 308 301 293 292 c 1,39,40
 303 281 303 281 309.5 267.5 c 128,-1,41
 316 254 316 254 316 239 c 0,42,43
 316 238 316 238 315 232.5 c 128,-1,44
 314 227 314 227 310 204.5 c 128,-1,45
 306 182 306 182 297 134.5 c 128,-1,46
 288 87 288 87 271 0 c 1,47,-1
 54 0 l 1,48,-1
 76 112 l 2,0,1
254 244 m 2,49,50
 254 255 254 255 250 263 c 128,-1,51
 246 271 246 271 235 274 c 1,52,53
 230 258 230 258 215.5 237 c 128,-1,54
 201 216 201 216 185 194.5 c 128,-1,55
 169 173 169 173 155 152 c 128,-1,56
 141 131 141 131 138 114 c 0,57,58
 135 98 135 98 133 89.5 c 128,-1,59
 131 81 131 81 130 76 c 128,-1,60
 129 71 129 71 128.5 66.5 c 128,-1,61
 128 62 128 62 126 53 c 1,62,-1
 219 53 l 1,63,-1
 251 218 l 1,64,-1
 254 244 l 2,49,50
80 273 m 2,65,66
 79 271 79 271 79 268 c 0,67,68
 79 260 79 260 83.5 255 c 128,-1,69
 88 250 88 250 96 250 c 0,70,71
 107 250 107 250 115 258 c 128,-1,72
 123 266 123 266 123 277 c 0,73,74
 123 285 123 285 118 290 c 128,-1,75
 113 295 113 295 105 295 c 256,76,77
 97 295 97 295 89.5 288.5 c 128,-1,78
 82 282 82 282 80 273 c 2,65,66
EndSplineSet
EndChar
StartChar: uni0E0B
Encoding: 3595 3595 265
Width: 364
Flags: W
Fore
84 317 m 1,0,1
 90 320 90 320 95.5 321 c 128,-1,2
 101 322 101 322 106 322 c 0,3,4
 118 322 118 322 126 320 c 1,5,6
 124 322.5 l 130,-1,7
 122 325 122 325 119 328.5 c 128,-1,8
 116 332 116 332 112.5 335 c 128,-1,9
 109 338 109 338 107 338 c 0,10,11
 102 338 102 338 94 330 c 128,-1,12
 86 322 86 322 84 317 c 1,0,1
160 269 m 1,13,14
 159 265 159 265 156.5 254.5 c 128,-1,15
 154 244 154 244 152 241 c 1,16,17
 153 242 153 242 156 246 c 128,-1,18
 159 250 159 250 160 251 c 0,19,20
 171 266 171 266 179 281.5 c 128,-1,21
 187 297 187 297 187 320 c 0,22,23
 187 327 187 327 185 332 c 128,-1,24
 183 337 183 337 177 337 c 0,25,26
 175 337 175 337 172 332 c 128,-1,27
 169 327 169 327 168 325 c 1,28,29
 160 315 160 315 149 312 c 1,30,31
 161 297 161 297 161 280 c 0,32,33
 161 278 161 278 161 274.5 c 128,-1,34
 161 271 161 271 160 269 c 1,13,14
250 212 m 2,35,36
 251 217 251 217 251.5 223 c 128,-1,37
 252 229 252 229 252 236 c 0,38,39
 252 250 252 250 247.5 262 c 128,-1,40
 243 274 243 274 230 276 c 1,41,42
 222 257 222 257 208 236 c 128,-1,43
 194 215 194 215 179.5 194 c 128,-1,44
 165 173 165 173 153 152 c 128,-1,45
 141 131 141 131 137 111 c 2,46,-1
 126 53 l 1,47,-1
 219 53 l 1,48,-1
 250 212 l 2,35,36
194 390 m 0,49,50
 221 390 221 390 230.5 372.5 c 128,-1,51
 240 355 240 355 240 332 c 2,52,-1
 240 317 l 1,53,54
 268 330 268 330 285.5 350.5 c 128,-1,55
 303 371 303 371 310 404 c 1,56,-1
 372 404 l 1,57,58
 367 376 367 376 346 344 c 128,-1,59
 325 312 325 312 295 294 c 1,60,61
 305 283 305 283 309.5 267.5 c 128,-1,62
 314 252 314 252 314 236 c 0,63,64
 314 234 314 234 313.5 228 c 128,-1,65
 313 222 313 222 309 199.5 c 128,-1,66
 305 177 305 177 296 130.5 c 128,-1,67
 287 84 287 84 271 0 c 1,68,-1
 54 0 l 1,69,-1
 78 124 l 2,70,71
 80 135 80 135 88 150.5 c 128,-1,72
 96 166 96 166 106.5 181 c 128,-1,73
 117 196 117 196 127 209.5 c 128,-1,74
 137 223 137 223 142 229 c 1,75,76
 130 218 130 218 113.5 213 c 128,-1,77
 97 208 97 208 86 208 c 0,78,79
 56 208 56 208 44 229 c 128,-1,80
 32 250 32 250 32 276 c 0,81,82
 32 291 32 291 37 310.5 c 128,-1,83
 42 330 42 330 52 348 c 128,-1,84
 62 366 62 366 77.5 378 c 128,-1,85
 93 390 93 390 113 390 c 0,86,87
 122 390 122 390 127 386 c 128,-1,88
 132 382 132 382 135 376.5 c 128,-1,89
 138 371 138 371 141.5 367 c 128,-1,90
 145 363 145 363 151 363 c 0,91,92
 156 363 156 363 159 367 c 128,-1,93
 162 371 162 371 166 376.5 c 128,-1,94
 170 382 170 382 176.5 386 c 128,-1,95
 183 390 183 390 194 390 c 0,49,50
79 266 m 1,96,-1
 79 261 l 2,97,98
 79 245 79 245 96 245 c 0,99,100
 106 245 106 245 112.5 252.5 c 128,-1,101
 119 260 119 260 119 271 c 0,102,103
 119 286 119 286 104 286 c 0,104,105
 84 286 84 286 79 266 c 1,96,-1
EndSplineSet
EndChar
StartChar: uni0E0C
Encoding: 3596 3596 266
Width: 364
Flags: W
Fore
253 28 m 1,0,-1
 253 33 l 2,1,2
 253 40 253 40 247.5 49 c 128,-1,3
 242 58 242 58 225 80 c 1,4,-1
 219 49 l 2,5,6
 215 27 215 27 202 9 c 128,-1,7
 189 -9 189 -9 166 -9 c 0,8,9
 138 -9 138 -9 125 5 c 128,-1,10
 112 19 112 19 112 40 c 1,11,12
 101 20 101 20 84.5 5.5 c 128,-1,13
 68 -9 68 -9 45 -9 c 0,14,15
 14 -9 14 -9 -1 11 c 128,-1,16
 -16 31 -16 31 -16 57 c 0,17,18
 -16 59 -16 59 -15.5 63 c 128,-1,19
 -15 67 -15 67 -12.5 80.5 c 128,-1,20
 -10 94 -10 94 -5 120.5 c 128,-1,21
 0 147 0 147 9 194 c 0,22,23
 13 215 13 215 29 233 c 128,-1,24
 45 251 45 251 58 263 c 1,25,-1
 14 263 l 1,26,-1
 23 311 l 1,27,28
 38 326 38 326 53 340 c 128,-1,29
 68 354 68 354 84 365 c 128,-1,30
 100 376 100 376 119.5 383 c 128,-1,31
 139 390 139 390 163 390 c 0,32,33
 183 390 183 390 202 385 c 128,-1,34
 221 380 221 380 235.5 370 c 128,-1,35
 250 360 250 360 259 344.5 c 128,-1,36
 268 329 268 329 268 308 c 0,37,38
 268 305 268 305 267.5 300.5 c 128,-1,39
 267 296 267 296 264 279 c 128,-1,40
 261 262 261 262 254.5 228 c 128,-1,41
 248 194 248 194 236 132 c 1,42,43
 244 124 244 124 252 119.5 c 128,-1,44
 260 115 260 115 266 109 c 1,45,-1
 320 388 l 1,46,-1
 382 388 l 1,47,-1
 307 0 l 1,48,-1
 248 0 l 1,49,-1
 253 28 l 1,0,-1
78 130 m 0,50,51
 101 130 101 130 110.5 120 c 128,-1,52
 120 110 120 110 122 92 c 1,53,54
 131 110 131 110 145 120 c 128,-1,55
 159 130 159 130 180 137 c 1,56,57
 191 193 191 193 197 224.5 c 128,-1,58
 203 256 203 256 205.5 272 c 128,-1,59
 208 288 208 288 208.5 293 c 128,-1,60
 209 298 209 298 209 300 c 0,61,62
 209 344 209 344 162 344 c 0,63,64
 133 344 133 344 113.5 330.5 c 128,-1,65
 94 317 94 317 74 300 c 1,66,-1
 116 300 l 1,67,-1
 110 266 l 1,68,69
 94 262 94 262 86.5 248 c 128,-1,70
 79 234 79 234 76 220 c 2,71,-1
 58 127 l 1,72,73
 70 130 70 130 78 130 c 0,50,51
79 74 m 2,74,75
 79 90 79 90 63 90 c 0,76,77
 52 90 52 90 46.5 79 c 128,-1,78
 41 68 41 68 41 57 c 0,79,80
 41 49 41 49 43.5 43.5 c 128,-1,81
 46 38 46 38 54 38 c 0,82,83
 65 38 65 38 71 48 c 128,-1,84
 77 58 77 58 79 67 c 1,85,-1
 79 74 l 2,74,75
175 95 m 1,86,87
 164 91 164 91 157 84.5 c 128,-1,88
 150 78 150 78 147 62 c 1,89,-1
 147 56 l 2,90,91
 147 47 147 47 150.5 38.5 c 128,-1,92
 154 30 154 30 163 28 c 1,93,94
 164 30 164 30 165 38.5 c 128,-1,95
 166 47 166 47 167 48 c 1,96,-1
 175 95 l 1,86,87
EndSplineSet
EndChar
StartChar: uni0E0D
Encoding: 3597 3597 267
Width: 364
Flags: W
Fore
163 349 m 0,0,1
 134 349 134 349 115.5 339.5 c 128,-1,2
 97 330 97 330 80 307 c 1,3,-1
 128 307 l 1,4,-1
 121 268 l 1,5,6
 105 265 105 265 96 251.5 c 128,-1,7
 87 238 87 238 85 225 c 2,8,-1
 66 129 l 1,9,10
 77 133 77 133 88 133 c 0,11,12
 137 133 137 133 137 91 c 0,13,14
 137 73 137 73 131 55.5 c 128,-1,15
 125 38 125 38 114.5 23.5 c 128,-1,16
 104 9 104 9 88.5 0 c 128,-1,17
 73 -9 73 -9 53 -9 c 0,18,19
 21 -9 21 -9 7 12 c 128,-1,20
 -7 33 -7 33 -7 61 c 0,21,22
 -7 64 -7 64 -6.5 69 c 128,-1,23
 -6 74 -6 74 -3.5 88 c 128,-1,24
 -1 102 -1 102 4 129 c 128,-1,25
 9 156 9 156 18 203 c 0,26,27
 23 223 23 223 37.5 238.5 c 128,-1,28
 52 254 52 254 63 265 c 1,29,-1
 19 265 l 1,30,-1
 29 316 l 1,31,32
 47 336 47 336 60 351 c 128,-1,33
 73 366 73 366 87 375.5 c 128,-1,34
 101 385 101 385 120 389.5 c 128,-1,35
 139 394 139 394 169 394 c 0,36,37
 216 394 216 394 234.5 370.5 c 128,-1,38
 253 347 253 347 253 312 c 0,39,40
 253 307 253 307 252 300 c 128,-1,41
 251 293 251 293 246 268.5 c 128,-1,42
 241 244 241 244 231.5 194.5 c 128,-1,43
 222 145 222 145 204 53 c 1,44,-1
 250 53 l 1,45,-1
 315 386 l 1,46,-1
 377 386 l 1,47,-1
 302 0 l 1,48,-1
 135 0 l 1,49,50
 156 107 156 107 167 166.5 c 128,-1,51
 178 226 178 226 183.5 256 c 128,-1,52
 189 286 189 286 190 294.5 c 128,-1,53
 191 303 191 303 191 308 c 0,54,55
 191 323 191 323 185.5 336 c 128,-1,56
 180 349 180 349 163 349 c 0,0,1
293 -45 m 2,57,58
 290 -69 290 -69 276.5 -87 c 128,-1,59
 263 -105 263 -105 243.5 -117 c 128,-1,60
 224 -129 224 -129 201.5 -134.5 c 128,-1,61
 179 -140 179 -140 158 -140 c 0,62,63
 146 -140 146 -140 134 -137 c 128,-1,64
 122 -134 122 -134 112.5 -128 c 128,-1,65
 103 -122 103 -122 96.5 -112.5 c 128,-1,66
 90 -103 90 -103 90 -90 c 0,67,68
 90 -61 90 -61 109.5 -40.5 c 128,-1,69
 129 -20 129 -20 158 -20 c 0,70,71
 178 -20 178 -20 193 -29 c 128,-1,72
 208 -38 208 -38 208 -58 c 0,73,74
 208 -77 208 -77 197 -91 c 1,75,76
 218 -81 218 -81 224.5 -68 c 128,-1,77
 231 -55 231 -55 237 -30 c 1,78,-1
 296 -30 l 1,79,-1
 293 -45 l 2,57,58
88 65 m 0,80,81
 89 68 89 68 89 73 c 0,82,83
 89 81 89 81 85.5 86.5 c 128,-1,84
 82 92 82 92 74 92 c 0,85,86
 62 92 62 92 54.5 80.5 c 128,-1,87
 47 69 47 69 47 58 c 0,88,89
 47 49 47 49 51 41 c 128,-1,90
 55 33 55 33 63 33 c 256,91,92
 71 33 71 33 78.5 45 c 128,-1,93
 86 57 86 57 88 65 c 0,80,81
131 -77 m 2,94,95
 131 -92 131 -92 147 -92 c 0,96,97
 157 -92 157 -92 164 -85.5 c 128,-1,98
 171 -79 171 -79 171 -68 c 0,99,100
 171 -53 171 -53 155 -53 c 0,101,102
 147 -53 147 -53 140 -58.5 c 128,-1,103
 133 -64 133 -64 131 -73 c 1,104,-1
 131 -77 l 2,94,95
EndSplineSet
Substitution: 0 65534 'L019' uni0E0D.alt1
Substitution: 0 65534 'L019' uni0E0D.alt1
EndChar
StartChar: uni0E0E
Encoding: 3598 3598 268
Width: 364
Flags: W
Fore
266 -159 m 1,0,-1
 212 -159 l 1,1,2
 204 -151 204 -151 190 -136.5 c 128,-1,3
 176 -122 176 -122 164 -112 c 1,4,5
 149 -137 149 -137 126 -149 c 128,-1,6
 103 -161 103 -161 74 -161 c 0,7,8
 48 -161 48 -161 28 -148.5 c 128,-1,9
 8 -136 8 -136 8 -109 c 0,10,11
 8 -90 8 -90 16 -74.5 c 128,-1,12
 24 -59 24 -59 37 -48 c 128,-1,13
 50 -37 50 -37 67 -31 c 128,-1,14
 84 -25 84 -25 101 -25 c 0,15,16
 109 -25 109 -25 116 -27 c 128,-1,17
 130 -31 l 1,18,-1
 137 7 l 1,19,-1
 199 7 l 1,20,-1
 184 -52 l 1,21,22
 193 -60 193 -60 202.5 -68 c 128,-1,23
 212 -76 212 -76 220 -84 c 1,24,25
 237 3 237 3 249 63.5 c 128,-1,26
 261 124 261 124 268.5 165 c 128,-1,27
 276 206 276 206 280.5 229 c 128,-1,28
 285 252 285 252 287 265 c 128,-1,29
 289 278 289 278 289.5 282.5 c 128,-1,30
 290 287 290 287 290 290 c 0,31,32
 290 313 290 313 278.5 326.5 c 128,-1,33
 267 340 267 340 236 340 c 0,34,35
 210 340 210 340 187 330.5 c 128,-1,36
 164 321 164 321 143 304 c 1,37,-1
 208 304 l 1,38,-1
 201 267 l 1,39,40
 183 259 183 259 173.5 246 c 128,-1,41
 164 233 164 233 161 218 c 2,42,-1
 140 106 l 2,43,44
 136 87 136 87 130.5 66.5 c 128,-1,45
 125 46 125 46 114 29.5 c 128,-1,46
 103 13 103 13 86 2 c 128,-1,47
 69 -9 69 -9 42 -9 c 256,48,49
 15 -9 15 -9 0 9 c 128,-1,50
 -15 27 -15 27 -15 53 c 0,51,52
 -15 88 -15 88 8.5 110.5 c 128,-1,53
 32 133 32 133 66 133 c 0,54,55
 75 133 75 133 82 130 c 1,56,-1
 97 205 l 2,57,58
 100 222 100 222 114 237.5 c 128,-1,59
 128 253 128 253 139 264 c 1,60,-1
 73 264 l 1,61,-1
 83 315 l 1,62,63
 116 353 116 353 157.5 372 c 128,-1,64
 199 391 199 391 242 391 c 0,65,66
 300 391 300 391 326 369.5 c 128,-1,67
 352 348 352 348 352 300 c 0,68,69
 352 289 352 289 351 278 c 128,-1,70
 350 267 350 267 347 253 c 2,71,-1
 266 -159 l 1,0,-1
83 -114 m 0,72,73
 97 -114 97 -114 106 -108 c 128,-1,74
 115 -102 115 -102 119 -83 c 1,75,76
 111 -78 111 -78 103 -75 c 128,-1,77
 95 -72 95 -72 86 -72 c 0,78,79
 79 -72 79 -72 72 -80 c 128,-1,80
 65 -88 65 -88 63 -96 c 1,81,82
 63 -103 63 -103 70 -108.5 c 128,-1,83
 77 -114 77 -114 83 -114 c 0,72,73
75 67 m 1,84,85
 76 68 76 68 76 70 c 0,86,87
 76 77 76 77 71 81.5 c 128,-1,88
 66 86 66 86 59 86 c 0,89,90
 48 86 48 86 43 76 c 128,-1,91
 38 66 38 66 38 58 c 256,92,93
 38 50 38 50 41.5 43.5 c 128,-1,94
 45 37 45 37 53 37 c 0,95,96
 64 37 64 37 68.5 46.5 c 128,-1,97
 73 56 73 56 75 67 c 1,84,85
EndSplineSet
Substitution: 0 65534 'L019' uni0E0E.alt1
Substitution: 0 65534 'L019' uni0E0E.alt1
EndChar
StartChar: uni0E0F
Encoding: 3599 3599 269
Width: 364
Flags: W
Fore
266 -159 m 1,0,-1
 208 -159 l 1,1,-1
 185 -115 l 1,2,3
 172 -129 172 -129 163.5 -139 c 128,-1,4
 155 -149 155 -149 149 -157 c 1,5,-1
 126 -157 l 1,6,-1
 108 -126 l 1,7,8
 88 -143 88 -143 69.5 -152 c 128,-1,9
 51 -161 51 -161 23 -161 c 0,10,11
 -2 -161 -2 -161 -21.5 -146.5 c 128,-1,12
 -41 -132 -41 -132 -41 -106 c 0,13,14
 -41 -89 -41 -89 -33 -75.5 c 128,-1,15
 -25 -62 -25 -62 -12.5 -52 c 128,-1,16
 0 -42 0 -42 15.5 -37 c 128,-1,17
 31 -32 31 -32 46 -32 c 0,18,19
 60 -32 60 -32 74 -36 c 128,-1,20
 88 -40 88 -40 99 -48 c 1,21,-1
 108 -2 l 1,22,-1
 170 -2 l 1,23,24
 166 -20 166 -20 162.5 -32 c 128,-1,25
 159 -44 159 -44 156 -51.5 c 128,-1,26
 153 -59 153 -59 150.5 -64 c 128,-1,27
 148 -69 148 -69 145 -74 c 1,28,29
 146 -76 146 -76 151 -81.5 c 128,-1,30
 156 -87 156 -87 159 -90 c 1,31,32
 167 -79 167 -79 177.5 -67 c 128,-1,33
 188 -55 188 -55 196 -43 c 1,34,-1
 219 -81 l 1,35,36
 236 8 236 8 248 69.5 c 128,-1,37
 260 131 260 131 268 171.5 c 128,-1,38
 276 212 276 212 280 235 c 128,-1,39
 284 258 284 258 286 270 c 128,-1,40
 288 282 288 282 288.5 285.5 c 128,-1,41
 289 289 289 289 289 291 c 0,42,43
 289 344 289 344 228 344 c 0,44,45
 203 344 203 344 182 333 c 128,-1,46
 161 322 161 322 142 306 c 1,47,-1
 205 306 l 1,48,-1
 198 266 l 1,49,50
 182 258 182 258 172 242 c 128,-1,51
 162 226 162 226 160 212 c 2,52,-1
 138 98 l 2,53,54
 134 79 134 79 128 59.5 c 128,-1,55
 122 40 122 40 111 25 c 128,-1,56
 100 10 100 10 83.5 0.5 c 128,-1,57
 67 -9 67 -9 42 -9 c 0,58,59
 13 -9 13 -9 0 7 c 128,-1,60
 -13 23 -13 23 -13 46 c 0,61,62
 -13 80 -13 80 8 105.5 c 128,-1,63
 29 131 29 131 64 131 c 0,64,65
 69 131 69 131 73 131 c 128,-1,66
 77 131 77 131 82 130 c 1,67,-1
 96 203 l 2,68,69
 99 218 99 218 111.5 234 c 128,-1,70
 124 250 124 250 138 263 c 1,71,-1
 74 263 l 1,72,-1
 85 320 l 1,73,74
 117 355 117 355 157.5 374.5 c 128,-1,75
 198 394 198 394 239 394 c 0,76,77
 260 394 260 394 280 389 c 128,-1,78
 300 384 300 384 315.5 373.5 c 128,-1,79
 331 363 331 363 340.5 346.5 c 128,-1,80
 350 330 350 330 350 307 c 0,81,82
 350 286 350 286 346 260.5 c 128,-1,83
 342 235 342 235 340 220 c 2,84,-1
 266 -159 l 1,0,-1
39 -115 m 0,85,86
 48 -115 48 -115 60.5 -110 c 128,-1,87
 73 -105 73 -105 79 -94 c 1,88,89
 63 -76 63 -76 39 -76 c 0,90,91
 28 -76 28 -76 21.5 -82.5 c 128,-1,92
 15 -89 15 -89 15 -98 c 0,93,94
 15 -108 15 -108 24 -111.5 c 128,-1,95
 33 -115 33 -115 39 -115 c 0,85,86
73 62 m 0,96,97
 74 65 74 65 74 70 c 0,98,99
 74 77 74 77 71 82 c 128,-1,100
 68 87 68 87 60 87 c 256,101,102
 52 87 52 87 46 76 c 128,-1,103
 40 65 40 65 40 56 c 0,104,105
 40 49 40 49 42.5 42.5 c 128,-1,106
 45 36 45 36 51 36 c 0,107,108
 62 36 62 36 66.5 44.5 c 128,-1,109
 71 53 71 53 73 62 c 0,96,97
EndSplineSet
Substitution: 0 65534 'L019' uni0E0F.alt1
Substitution: 0 65534 'L019' uni0E0F.alt1
EndChar
StartChar: uni0E10
Encoding: 3600 3600 270
Width: 364
Flags: W
Fore
342 306 m 2,0,1
 329 302 329 302 310 302 c 256,2,3
 291 302 291 302 274 307.5 c 128,-1,4
 257 313 257 313 240.5 319.5 c 128,-1,5
 224 326 224 326 208 331.5 c 128,-1,6
 192 337 192 337 174 337 c 0,7,8
 157 337 157 337 144 329 c 128,-1,9
 131 321 131 321 119 307 c 1,10,-1
 157 307 l 2,11,12
 180 307 180 307 208 305.5 c 128,-1,13
 236 304 236 304 260.5 296 c 128,-1,14
 285 288 285 288 302 272.5 c 128,-1,15
 319 257 319 257 319 228 c 0,16,17
 319 222 319 222 318.5 216 c 128,-1,18
 318 210 318 210 317 203 c 0,19,20
 312 178 312 178 303 152.5 c 128,-1,21
 294 127 294 127 283.5 101.5 c 128,-1,22
 273 76 273 76 263 50.5 c 128,-1,23
 253 25 253 25 246 0 c 1,24,-1
 161 0 l 1,25,-1
 146 101 l 1,26,27
 131 90 131 90 108 90 c 0,28,29
 82 90 82 90 65.5 104.5 c 128,-1,30
 49 119 49 119 49 143 c 0,31,32
 49 163 49 163 57 178 c 128,-1,33
 65 193 65 193 77.5 203.5 c 128,-1,34
 90 214 90 214 106.5 219 c 128,-1,35
 123 224 123 224 141 224 c 0,36,37
 170 224 170 224 183.5 185.5 c 128,-1,38
 197 147 197 147 212 63 c 1,39,40
 221 94 221 94 233.5 126 c 128,-1,41
 246 158 246 158 252 189 c 0,42,43
 254 195 254 195 254 200 c 128,-1,44
 254 210 l 0,45,46
 254 230 254 230 243.5 239 c 128,-1,47
 233 248 233 248 214.5 251 c 128,-1,48
 196 254 196 254 171 253.5 c 128,-1,49
 146 253 146 253 117 255 c 0,50,51
 108 255 108 255 99 254.5 c 128,-1,52
 90 254 90 254 80 250 c 1,53,-1
 25 250 l 1,54,55
 37 280 37 280 53.5 305.5 c 128,-1,56
 70 331 70 331 91.5 350 c 128,-1,57
 113 369 113 369 138.5 380 c 128,-1,58
 164 391 164 391 194 391 c 0,59,60
 220 391 220 391 248.5 383.5 c 128,-1,61
 277 376 277 376 300 376 c 0,62,63
 314 376 314 376 328.5 378 c 128,-1,64
 343 380 343 380 368 389 c 1,65,-1
 353 309 l 1,66,-1
 342 306 l 2,0,1
236 -111 m 0,67,68
 231 -137 231 -137 215 -148 c 128,-1,69
 199 -159 199 -159 173 -159 c 2,70,-1
 118 -159 l 1,71,-1
 100 -135 l 1,72,73
 92 -141 92 -141 84.5 -149 c 128,-1,74
 77 -157 77 -157 68 -162 c 1,75,76
 58 -146 58 -146 55.5 -141 c 128,-1,77
 53 -136 53 -136 51 -133 c 1,78,79
 38 -143 38 -143 24 -151.5 c 128,-1,80
 10 -160 10 -160 -7 -160 c 0,81,82
 -63 -160 -63 -160 -63 -115 c 0,83,84
 -63 -100 -63 -100 -57.5 -86.5 c 128,-1,85
 -52 -73 -52 -73 -42 -62 c 128,-1,86
 -32 -51 -32 -51 -18.5 -44.5 c 128,-1,87
 -5 -38 -5 -38 10 -38 c 0,88,89
 20 -38 20 -38 28.5 -41.5 c 128,-1,90
 37 -45 37 -45 44 -50 c 1,91,92
 46 -43 46 -43 47 -35.5 c 128,-1,93
 48 -28 48 -28 50 -14 c 1,94,-1
 111 -14 l 1,95,-1
 111 -22 l 2,96,97
 111 -38 111 -38 103.5 -54 c 128,-1,98
 96 -70 96 -70 91 -85 c 1,99,100
 93 -87 93 -87 95 -90 c 0,101,102
 97 -92 97 -92 98.5 -94 c 128,-1,103
 100 -96 100 -96 100 -97 c 1,104,-1
 120 -77 l 1,105,-1
 145 -116 l 1,106,107
 147 -118 147 -118 153.5 -118 c 128,-1,108
 160 -118 160 -118 163 -118 c 2,109,-1
 174 -118 l 2,110,111
 178 -118 178 -118 180 -105 c 1,112,113
 163 -102 163 -102 152 -93.5 c 128,-1,114
 141 -85 141 -85 141 -68 c 0,115,116
 141 -41 141 -41 158.5 -27 c 128,-1,117
 176 -13 176 -13 201 -13 c 0,118,119
 248 -13 248 -13 248 -48 c 0,120,121
 248 -50 248 -50 247.5 -52 c 128,-1,122
 247 -54 247 -54 246 -60.5 c 128,-1,123
 245 -67 245 -67 242.5 -78.5 c 128,-1,124
 240 -90 240 -90 236 -111 c 0,67,68
1 -115 m 256,125,126
 9 -115 9 -115 17.5 -109.5 c 128,-1,127
 26 -104 26 -104 31 -99 c 1,128,129
 28 -93 28 -93 22 -87 c 128,-1,130
 16 -81 16 -81 5 -81 c 0,131,132
 -4 -81 -4 -81 -9.5 -87 c 128,-1,133
 -15 -93 -15 -93 -17 -101 c 1,134,135
 -17 -106 -17 -106 -12 -110.5 c 128,-1,136
 -7 -115 -7 -115 1 -115 c 256,125,126
181 -61 m 2,137,138
 181 -71 181 -71 192 -71 c 0,139,140
 198 -71 198 -71 202.5 -66.5 c 128,-1,141
 207 -62 207 -62 207 -56 c 0,142,143
 207 -46 207 -46 196 -46 c 0,144,145
 184 -46 184 -46 181 -58 c 1,146,-1
 181 -61 l 2,137,138
96 153 m 2,147,148
 96 145 96 145 100.5 140 c 128,-1,149
 105 135 105 135 113 135 c 0,150,151
 124 135 124 135 132 143.5 c 128,-1,152
 140 152 140 152 140 163 c 0,153,154
 140 171 140 171 135 175.5 c 128,-1,155
 130 180 130 180 122 180 c 0,156,157
 113 180 113 180 105.5 173.5 c 128,-1,158
 98 167 98 167 96 158 c 1,159,-1
 96 153 l 2,147,148
EndSplineSet
Substitution: 0 65534 'L019' uni0E10.alt1
Substitution: 0 65534 'L019' uni0E10.alt1
EndChar
StartChar: uni0E11
Encoding: 3601 3601 271
Width: 364
Flags: W
Fore
58 0 m 1,0,-1
 89 156 l 2,1,2
 90 161 90 161 95 171 c 128,-1,3
 100 181 100 181 106.5 192.5 c 128,-1,4
 113 204 113 204 120 215.5 c 128,-1,5
 127 227 127 227 132 235 c 1,6,7
 120 221 120 221 103.5 214.5 c 128,-1,8
 87 208 87 208 79 208 c 0,9,10
 48 208 48 208 37.5 226 c 128,-1,11
 27 244 27 244 27 268 c 0,12,13
 27 284 27 284 30.5 303.5 c 128,-1,14
 34 323 34 323 42 340.5 c 128,-1,15
 50 358 50 358 62.5 370.5 c 128,-1,16
 75 383 75 383 93 385 c 0,17,18
 102 385 102 385 108 380.5 c 128,-1,19
 114 376 114 376 117.5 370.5 c 128,-1,20
 121 365 121 365 124 360 c 128,-1,21
 127 355 127 355 131 353 c 1,22,23
 142 361 142 361 150.5 373 c 128,-1,24
 159 385 159 385 175 385 c 0,25,26
 196 385 196 385 208 374.5 c 128,-1,27
 220 364 220 364 220 342 c 0,28,29
 220 317 220 317 207.5 292 c 128,-1,30
 195 267 195 267 181 247 c 0,31,32
 173 233 173 233 162 207.5 c 128,-1,33
 151 182 151 182 146 159 c 1,34,35
 158 177 158 177 172 199 c 128,-1,36
 186 221 186 221 199.5 242.5 c 128,-1,37
 213 264 213 264 225.5 284 c 128,-1,38
 238 304 238 304 246 317 c 0,39,40
 264 346 264 346 282.5 367 c 128,-1,41
 301 388 301 388 322 388 c 0,42,43
 347 388 347 388 355 381 c 128,-1,44
 363 374 363 374 363 360 c 0,45,46
 363 358 363 358 362.5 354.5 c 128,-1,47
 362 351 362 351 360 339.5 c 128,-1,48
 358 328 358 328 353.5 306 c 128,-1,49
 349 284 349 284 341.5 244.5 c 128,-1,50
 334 205 334 205 322.5 145.5 c 128,-1,51
 311 86 311 86 294 0 c 1,52,-1
 232 0 l 1,53,54
 247 74 247 74 257 125.5 c 128,-1,55
 267 177 267 177 274 211.5 c 128,-1,56
 281 246 281 246 285 266 c 128,-1,57
 289 286 289 286 291 297 c 128,-1,58
 293 308 293 308 294 313 c 128,-1,59
 295 318 295 318 295 321 c 1,60,61
 282 302 282 302 259 265.5 c 128,-1,62
 236 229 236 229 211.5 191 c 128,-1,63
 187 153 187 153 166 120.5 c 128,-1,64
 145 88 145 88 135 75 c 1,65,-1
 121 0 l 1,66,-1
 58 0 l 1,0,-1
145 262 m 1,67,68
 156 277 156 277 162.5 288.5 c 128,-1,69
 169 300 169 300 169 317 c 0,70,71
 169 323 169 323 168 328 c 128,-1,72
 167 333 167 333 163 333 c 0,73,74
 158 333 158 333 154.5 329 c 128,-1,75
 151 325 151 325 148 320 c 128,-1,76
 145 315 145 315 141 311 c 128,-1,77
 137 307 137 307 132 307 c 1,78,79
 144 297 144 297 144 275 c 0,80,81
 144 267 l 128,-1,82
 144 263 144 263 142 259 c 1,83,-1
 145 262 l 1,67,68
79 309 m 2,84,85
 83 311 83 311 88.5 312.5 c 128,-1,86
 94 314 94 314 102 314 c 2,87,-1
 112 313 l 1,88,89
 111 315 111 315 102.5 324.5 c 128,-1,90
 94 334 94 334 91 334 c 0,91,92
 89 334 89 334 85 328 c 128,-1,93
 81 322 81 322 76 308 c 1,94,-1
 79 309 l 2,84,85
70 255 m 2,95,96
 70 241 70 241 86 241 c 0,97,98
 96 241 96 241 102.5 248 c 128,-1,99
 109 255 109 255 109 266 c 0,100,101
 109 280 109 280 93 280 c 0,102,103
 75 280 75 280 70 260 c 1,104,-1
 70 255 l 2,95,96
EndSplineSet
EndChar
StartChar: uni0E12
Encoding: 3602 3602 272
Width: 364
Flags: W
Fore
269 99 m 1,0,-1
 323 387 l 1,1,-1
 385 387 l 1,2,-1
 310 0 l 1,3,-1
 272 0 l 1,4,-1
 237 71 l 1,5,6
 229 26 229 26 216 8.5 c 128,-1,7
 203 -9 203 -9 171 -9 c 0,8,9
 145 -9 145 -9 133 7.5 c 128,-1,10
 121 24 121 24 121 46 c 0,11,12
 121 56 121 56 123 65 c 128,-1,13
 125 74 125 74 127 84 c 1,14,-1
 74 0 l 1,15,-1
 14 0 l 1,16,17
 17 21 17 21 17 41 c 0,18,19
 17 79 17 79 11.5 115.5 c 128,-1,20
 6 152 6 152 6 190 c 0,21,22
 6 214 6 214 12 248.5 c 128,-1,23
 18 283 18 283 32 314 c 128,-1,24
 46 345 46 345 69 367 c 128,-1,25
 92 389 92 389 125 389 c 0,26,27
 134 389 134 389 140 383.5 c 128,-1,28
 146 378 146 378 150.5 372 c 128,-1,29
 155 366 155 366 159 360.5 c 128,-1,30
 163 355 163 355 170 355 c 0,31,32
 182 355 182 355 194.5 369 c 128,-1,33
 207 383 207 383 219 390 c 1,34,35
 254 390 254 390 270 368.5 c 128,-1,36
 286 347 286 347 286 317 c 0,37,38
 286 314 286 314 285.5 308 c 128,-1,39
 285 302 285 302 281.5 283 c 128,-1,40
 278 264 278 264 271 227 c 128,-1,41
 264 190 264 190 251 125 c 1,42,-1
 269 99 l 1,0,-1
142 107 m 1,43,44
 153 118 153 118 167 127 c 128,-1,45
 181 136 181 136 198 139 c 1,46,47
 210 201 210 201 216.5 235.5 c 128,-1,48
 223 270 223 270 226.5 286.5 c 128,-1,49
 230 303 230 303 230.5 307.5 c 128,-1,50
 231 312 231 312 231 313 c 0,51,52
 231 320 231 320 228.5 326.5 c 128,-1,53
 226 333 226 333 219 335 c 1,54,-1
 218 335 l 2,55,56
 212 335 212 335 205.5 330.5 c 128,-1,57
 199 326 199 326 192 321 c 128,-1,58
 185 316 185 316 177.5 311.5 c 128,-1,59
 170 307 170 307 161 307 c 0,60,61
 153 307 153 307 147 311.5 c 128,-1,62
 141 316 141 316 135.5 321 c 128,-1,63
 130 326 130 326 125 330.5 c 128,-1,64
 120 335 120 335 114 335 c 0,65,66
 100 335 100 335 90 320.5 c 128,-1,67
 80 306 80 306 74 287 c 128,-1,68
 68 268 68 268 65 248.5 c 128,-1,69
 62 229 62 229 62 218 c 0,70,71
 62 186 62 186 69 156 c 128,-1,72
 76 126 76 126 76 94 c 2,73,-1
 76 82 l 1,74,75
 85 99 85 99 90 107 c 128,-1,76
 95 115 95 115 99 121 c 128,-1,77
 103 127 103 127 107.5 134.5 c 128,-1,78
 112 142 112 142 121 157 c 1,79,80
 104 161 104 161 89.5 173 c 128,-1,81
 75 185 75 185 75 206 c 0,82,83
 75 243 75 243 100 262.5 c 128,-1,84
 125 282 125 282 157 282 c 0,85,86
 204 282 204 282 204 240 c 0,87,88
 204 214 204 214 192.5 190 c 128,-1,89
 181 166 181 166 167 144 c 2,90,-1
 142 107 l 1,43,44
162 62 m 1,91,92
 162 59 162 59 161.5 56 c 128,-1,93
 161 53 161 53 161 50 c 0,94,95
 161 41 161 41 165 33 c 128,-1,96
 169 25 169 25 180 25 c 1,97,-1
 194 98 l 1,98,99
 177 91 177 91 170.5 80.5 c 128,-1,100
 164 70 164 70 162 62 c 1,91,92
120 221 m 2,101,102
 119 220 119 220 119 217 c 0,103,104
 119 209 119 209 124 204 c 128,-1,105
 129 199 129 199 137 199 c 0,106,107
 147 199 147 199 155 207 c 128,-1,108
 163 215 163 215 163 226 c 0,109,110
 163 234 163 234 158 239 c 128,-1,111
 153 244 153 244 145 244 c 256,112,113
 137 244 137 244 129.5 237.5 c 128,-1,114
 122 231 122 231 120 221 c 2,101,102
EndSplineSet
EndChar
StartChar: uni0E13
Encoding: 3603 3603 273
Width: 364
Flags: W
Fore
214 99 m 2,0,1
 234 113 234 113 243.5 125 c 128,-1,2
 253 137 253 137 258 160 c 2,3,-1
 303 387 l 1,4,-1
 365 387 l 1,5,-1
 317 144 l 2,6,7
 315 136 315 136 311 129 c 128,-1,8
 307 122 307 122 301 117 c 1,9,10
 313 109 313 109 320 100.5 c 128,-1,11
 327 92 327 92 327 78 c 0,12,13
 327 62 327 62 321.5 46.5 c 128,-1,14
 316 31 316 31 306.5 18.5 c 128,-1,15
 297 6 297 6 283.5 -1.5 c 128,-1,16
 270 -9 270 -9 253 -9 c 0,17,18
 229 -9 229 -9 217.5 3.5 c 128,-1,19
 206 16 206 16 206 38 c 0,20,21
 206 44 206 44 207 47 c 1,22,23
 197 38 197 38 181 26 c 128,-1,24
 165 14 165 14 156 0 c 1,25,-1
 112 0 l 1,26,-1
 122 55 l 1,27,28
 113 32 113 32 92.5 11.5 c 128,-1,29
 72 -9 72 -9 45 -9 c 0,30,31
 13 -9 13 -9 -1.5 12.5 c 128,-1,32
 -16 34 -16 34 -16 63 c 0,33,34
 -16 66 -16 66 -15.5 70.5 c 128,-1,35
 -15 75 -15 75 -12.5 89 c 128,-1,36
 -10 103 -10 103 -5 130 c 128,-1,37
 0 157 0 157 9 204 c 0,38,39
 13 224 13 224 27 240 c 128,-1,40
 41 256 41 256 51 266 c 1,41,-1
 12 266 l 1,42,-1
 22 318 l 1,43,44
 40 336 40 336 53 349.5 c 128,-1,45
 66 363 66 363 79.5 371.5 c 128,-1,46
 93 380 93 380 111 384.5 c 128,-1,47
 129 389 129 389 156 389 c 0,48,49
 198 389 198 389 214.5 371 c 128,-1,50
 231 353 231 353 231 323 c 0,51,52
 231 318 231 318 230 310.5 c 128,-1,53
 229 303 229 303 224.5 279 c 128,-1,54
 220 255 220 255 210.5 208 c 128,-1,55
 201 161 201 161 185 78 c 1,56,-1
 214 99 l 2,0,1
77 126 m 0,57,58
 103 126 103 126 114.5 111.5 c 128,-1,59
 126 97 126 97 126 77 c 2,60,-1
 126 75 l 1,61,62
 142 157 142 157 150.5 203 c 128,-1,63
 159 249 159 249 163.5 272 c 128,-1,64
 168 295 168 295 169 302 c 128,-1,65
 170 309 170 309 170 312 c 0,66,67
 170 326 170 326 163.5 334 c 128,-1,68
 157 342 157 342 137 342 c 0,69,70
 116 342 116 342 100.5 330 c 128,-1,71
 85 318 85 318 71 302 c 1,72,-1
 117 302 l 1,73,-1
 111 269 l 1,74,75
 95 266 95 266 86.5 252 c 128,-1,76
 78 238 78 238 76 225 c 2,77,-1
 55 122 l 1,78,79
 61 124 61 124 66 125 c 128,-1,80
 71 126 71 126 77 126 c 0,57,58
78 67 m 2,81,82
 78 74 78 74 75 79 c 128,-1,83
 72 84 72 84 65 84 c 0,84,85
 54 84 54 84 48 73.5 c 128,-1,86
 42 63 42 63 42 53 c 0,87,88
 42 45 42 45 45.5 40 c 128,-1,89
 49 35 49 35 57 35 c 256,90,91
 65 35 65 35 70.5 45 c 128,-1,92
 76 55 76 55 78 63 c 1,93,-1
 78 67 l 2,81,82
283 60 m 0,94,95
 283 61 283 61 283.5 62 c 128,-1,96
 284 63 284 63 284 65 c 0,97,98
 284 72 284 72 281.5 78.5 c 128,-1,99
 279 85 279 85 273 85 c 0,100,101
 263 85 263 85 256.5 73.5 c 128,-1,102
 250 62 250 62 250 52 c 0,103,104
 250 44 250 44 252.5 37 c 128,-1,105
 255 30 255 30 262 30 c 0,106,107
 270 30 270 30 275.5 41 c 128,-1,108
 281 52 281 52 283 60 c 0,94,95
EndSplineSet
EndChar
StartChar: uni0E14
Encoding: 3604 3604 274
Width: 364
Flags: W
Fore
204 339 m 0,0,1
 159 339 159 339 127.5 314 c 128,-1,2
 96 289 96 289 87 242 c 0,3,4
 81 211 81 211 81 179 c 0,5,6
 81 153 81 153 84 127 c 128,-1,7
 87 101 87 101 89 76 c 1,8,9
 105 95 105 95 118 110.5 c 128,-1,10
 131 126 131 126 148 146 c 1,11,12
 127 149 127 149 114.5 160.5 c 128,-1,13
 102 172 102 172 102 194 c 0,14,15
 102 212 102 212 109 228 c 128,-1,16
 116 244 116 244 128 256 c 128,-1,17
 140 268 140 268 156 275 c 128,-1,18
 172 282 172 282 190 282 c 0,19,20
 219 282 219 282 235.5 269 c 128,-1,21
 252 256 252 256 252 230 c 0,22,23
 252 203 252 203 238 180 c 128,-1,24
 224 157 224 157 207 137 c 0,25,26
 206 136 206 136 203.5 133 c 128,-1,27
 201 130 201 130 190 117 c 128,-1,28
 179 104 179 104 156.5 77 c 128,-1,29
 134 50 134 50 93 0 c 1,30,-1
 25 0 l 1,31,32
 27 14 27 14 28 27 c 128,-1,33
 29 40 29 40 29 53 c 0,34,35
 26 102 26 102 25 129 c 128,-1,36
 24 156 24 156 23 169.5 c 128,-1,37
 22 183 22 183 22 187 c 128,-1,38
 22 191 22 191 22 192 c 0,39,40
 22 236 22 236 36.5 272 c 128,-1,41
 51 308 51 308 77 334.5 c 128,-1,42
 103 361 103 361 138 375.5 c 128,-1,43
 173 390 173 390 214 390 c 0,44,45
 271 390 271 390 305.5 369.5 c 128,-1,46
 340 349 340 349 340 295 c 0,47,48
 340 291 340 291 339 282.5 c 128,-1,49
 338 274 338 274 333 245 c 128,-1,50
 328 216 328 216 317 159 c 128,-1,51
 306 102 306 102 286 0 c 1,52,-1
 224 0 l 1,53,54
 244 100 244 100 254.5 155.5 c 128,-1,55
 265 211 265 211 270 238 c 128,-1,56
 275 265 275 265 276 271.5 c 128,-1,57
 277 278 277 278 277 281 c 0,58,59
 277 313 277 313 257 326 c 128,-1,60
 237 339 237 339 204 339 c 0,0,1
158 214 m 2,61,62
 157 212 157 212 157 209 c 0,63,64
 157 201 157 201 161.5 196 c 128,-1,65
 166 191 166 191 174 191 c 0,66,67
 185 191 185 191 193 199 c 128,-1,68
 201 207 201 207 201 218 c 0,69,70
 201 226 201 226 196 231 c 128,-1,71
 191 236 191 236 183 236 c 0,72,73
 174 236 174 236 167 229.5 c 128,-1,74
 160 223 160 223 158 214 c 2,61,62
EndSplineSet
EndChar
